<svg width="32" height="31" viewBox="0 0 32 31" fill="none" xmlns="http://www.w3.org/2000/svg">
<path d="M22.189 8.26553H23.274V9.29886C23.274 9.57292 23.3883 9.83575 23.5918 10.0295C23.7953 10.2233 24.0713 10.3322 24.359 10.3322C24.6468 10.3322 24.9228 10.2233 25.1262 10.0295C25.3297 9.83575 25.444 9.57292 25.444 9.29886V8.26553H26.529C26.8168 8.26553 27.0928 8.15666 27.2962 7.96287C27.4997 7.76908 27.614 7.50625 27.614 7.23219C27.614 6.95814 27.4997 6.6953 27.2962 6.50152C27.0928 6.30773 26.8168 6.19886 26.529 6.19886H25.444V5.16553C25.444 4.89147 25.3297 4.62864 25.1262 4.43485C24.9228 4.24106 24.6468 4.13219 24.359 4.13219C24.0713 4.13219 23.7953 4.24106 23.5918 4.43485C23.3883 4.62864 23.274 4.89147 23.274 5.16553V6.19886H22.189C21.9013 6.19886 21.6253 6.30773 21.4218 6.50152C21.2183 6.6953 21.104 6.95814 21.104 7.23219C21.104 7.50625 21.2183 7.76908 21.4218 7.96287C21.6253 8.15666 21.9013 8.26553 22.189 8.26553ZM10.254 10.3322V20.6655C10.254 20.9396 10.3683 21.2024 10.5718 21.3962C10.7753 21.59 11.0513 21.6989 11.339 21.6989C11.6268 21.6989 11.9028 21.59 12.1062 21.3962C12.3097 21.2024 12.424 20.9396 12.424 20.6655V10.3322C12.424 10.0581 12.3097 9.7953 12.1062 9.60152C11.9028 9.40773 11.6268 9.29886 11.339 9.29886C11.0513 9.29886 10.7753 9.40773 10.5718 9.60152C10.3683 9.7953 10.254 10.0581 10.254 10.3322ZM26.095 12.3989C25.9554 12.426 25.8227 12.479 25.7046 12.555C25.5865 12.6309 25.4852 12.7283 25.4066 12.8416C25.328 12.9548 25.2737 13.0817 25.2466 13.2149C25.2195 13.3482 25.2202 13.4852 25.2487 13.6182C25.6723 15.5776 25.4213 17.6149 24.5327 19.4276C23.6442 21.2404 22.1656 22.7319 20.3165 23.6809C18.4673 24.6298 16.3461 24.9856 14.2678 24.6954C12.1894 24.4052 10.2648 23.4844 8.77947 22.0699C7.29416 20.6553 6.32739 18.8223 6.02267 16.8429C5.71794 14.8636 6.09151 12.8434 7.08792 11.0823C8.08433 9.32113 9.65045 7.91295 11.5538 7.06674C13.4572 6.22053 15.5963 5.98141 17.6537 6.38486C17.9415 6.43967 18.2403 6.38337 18.4845 6.22834C18.7287 6.07331 18.8982 5.83225 18.9557 5.55819C19.0133 5.28414 18.9542 4.99953 18.7914 4.76698C18.6286 4.53444 18.3755 4.373 18.0877 4.31819C17.2937 4.1773 16.4865 4.11497 15.679 4.13219C13.3185 4.13219 11.011 4.79884 9.04829 6.04782C7.08559 7.29681 5.55585 9.07204 4.65252 11.149C3.74919 13.226 3.51284 15.5115 3.97335 17.7164C4.43387 19.9213 5.57056 21.9467 7.2397 23.5363C8.90884 25.126 11.0355 26.2085 13.3506 26.6471C15.6658 27.0857 18.0655 26.8606 20.2463 26.0003C22.4272 25.14 24.2912 23.6831 25.6026 21.8138C26.914 19.9446 27.614 17.747 27.614 15.4989C27.6163 14.7353 27.5363 13.9735 27.3753 13.2255C27.3493 13.0907 27.2954 12.9621 27.2167 12.8473C27.1381 12.7325 27.0362 12.6337 26.917 12.5568C26.7978 12.4798 26.6638 12.4262 26.5227 12.3991C26.3816 12.372 26.2362 12.3719 26.095 12.3989ZM14.594 12.3989V13.4322C14.5988 14.1969 14.9002 14.933 15.4403 15.4989C14.9002 16.0648 14.5988 16.8008 14.594 17.5655V18.5989C14.594 19.421 14.937 20.2095 15.5474 20.7909C16.1578 21.3723 16.9857 21.6989 17.849 21.6989H18.934C19.7973 21.6989 20.6252 21.3723 21.2357 20.7909C21.8461 20.2095 22.189 19.421 22.189 18.5989V17.5655C22.1842 16.8008 21.8828 16.0648 21.3427 15.4989C21.8828 14.933 22.1842 14.1969 22.189 13.4322V12.3989C22.189 11.5767 21.8461 10.7882 21.2357 10.2068C20.6252 9.62547 19.7973 9.29886 18.934 9.29886H17.849C16.9857 9.29886 16.1578 9.62547 15.5474 10.2068C14.937 10.7882 14.594 11.5767 14.594 12.3989ZM20.019 18.5989C20.019 18.8729 19.9047 19.1358 19.7012 19.3295C19.4978 19.5233 19.2218 19.6322 18.934 19.6322H17.849C17.5613 19.6322 17.2853 19.5233 17.0818 19.3295C16.8783 19.1358 16.764 18.8729 16.764 18.5989V17.5655C16.764 17.2915 16.8783 17.0286 17.0818 16.8349C17.2853 16.6411 17.5613 16.5322 17.849 16.5322H18.934C19.2218 16.5322 19.4978 16.6411 19.7012 16.8349C19.9047 17.0286 20.019 17.2915 20.019 17.5655V18.5989ZM20.019 12.3989V13.4322C20.019 13.7063 19.9047 13.9691 19.7012 14.1629C19.4978 14.3567 19.2218 14.4655 18.934 14.4655H17.849C17.5613 14.4655 17.2853 14.3567 17.0818 14.1629C16.8783 13.9691 16.764 13.7063 16.764 13.4322V12.3989C16.764 12.1248 16.8783 11.862 17.0818 11.6682C17.2853 11.4744 17.5613 11.3655 17.849 11.3655H18.934C19.2218 11.3655 19.4978 11.4744 19.7012 11.6682C19.9047 11.862 20.019 12.1248 20.019 12.3989Z" fill="#FF5530"/>
</svg>
