<svg width="34" height="34" viewBox="0 0 34 34" fill="none" xmlns="http://www.w3.org/2000/svg">
<path fill-rule="evenodd" clip-rule="evenodd" d="M0.00805664 16.5443L1.76407 14.7883L2.55217 15.5764L1.58425 16.5443L2.55217 17.5123L1.76407 18.3004L0.00805664 16.5443ZM3.71701 14.0341L4.1112 12.4412L3.11764 13.4348L3.71701 14.0341ZM7.61139 8.94101H9.18758L16.5278 1.60079L23.868 8.94096L25.4442 8.94097L16.5278 0.0245972L7.61139 8.94101ZM23.8512 24.1645L16.5278 31.4879L9.39614 24.3562H7.81995L16.5278 33.0641L25.4274 24.1645L23.8512 24.1645ZM28.9253 20.6666L29.3264 19.0424L29.938 19.6539L28.9253 20.6666ZM31.4714 16.5443L30.5076 15.5806L31.2957 14.7925L33.0476 16.5443L31.2957 18.2962L30.5076 17.5081L31.4714 16.5443Z" fill="#FFB600"/>
<path fill-rule="evenodd" clip-rule="evenodd" d="M17.7585 23.05L16.0607 21.9973L17.9324 14.4186H25.7764L25.906 13.8034L27.8501 12.6645H7.08272L8.43779 13.8034L6.85061 20.2298L8.97337 19.2339H11.4526L12.049 16.91H9.56939L9.95762 15.4054L11.9638 14.4186H16.1831L14.3114 21.9973L12.1796 23.05H4.51775L2.93604 21.8281L5.55108 11.2399L4.38493 10.0555H17.2752L18.7175 11.2399L19.01 10.0554L28.9181 10.0555L30.1084 11.2399L29.2951 14.5331L27.5968 15.4054L28.8514 16.3171L27.1886 23.05L17.7585 23.05ZM22.1533 19.2339L20.0999 20.2298L20.9085 16.91H25.2289L24.6326 19.2339H22.1533Z" fill="#F0F0F0"/>
</svg>
