<svg width="20" height="20" viewBox="0 0 20 20" fill="none" xmlns="http://www.w3.org/2000/svg">
<g clip-path="url(#clip0_1_5052)">
<path d="M19.9987 14.9996C19.9987 15.5889 19.7646 16.1542 19.3478 16.5709C18.9311 16.9877 18.3658 17.2218 17.7765 17.2218H13.332V2.77734H17.7765C18.3658 2.77734 18.9311 3.01147 19.3478 3.42822C19.7646 3.84496 19.9987 4.4102 19.9987 4.99957V14.9996Z" fill="#ED2939"/>
<path d="M2.22222 2.77734C1.63285 2.77734 1.06762 3.01147 0.650874 3.42822C0.234126 3.84496 0 4.4102 0 4.99957L0 14.9996C0 15.5889 0.234126 16.1542 0.650874 16.5709C1.06762 16.9877 1.63285 17.2218 2.22222 17.2218H6.66667V2.77734H2.22222Z" fill="#002495"/>
<path d="M6.66797 2.77734H13.3346V17.2218H6.66797V2.77734Z" fill="#EEEEEE"/>
</g>
<defs>
<clipPath id="clip0_1_5052">
<rect width="20" height="20" fill="white"/>
</clipPath>
</defs>
</svg>
