<svg width="25" height="25" viewBox="0 0 25 25" fill="none" xmlns="http://www.w3.org/2000/svg">
<g clip-path="url(#clip0_26_10508)">
<rect x="0.5" y="0.599976" width="24" height="24" fill="url(#paint0_linear_26_10508)"/>
<path d="M10.5027 12.6309C10.5027 11.5254 11.3984 10.629 12.5036 10.629C13.6088 10.629 14.505 11.5254 14.505 12.6309C14.505 13.7365 13.6088 14.6329 12.5036 14.6329C11.3984 14.6329 10.5027 13.7365 10.5027 12.6309ZM9.42082 12.6309C9.42082 14.3341 10.801 15.7146 12.5036 15.7146C14.2062 15.7146 15.5864 14.3341 15.5864 12.6309C15.5864 10.9278 14.2062 9.54728 12.5036 9.54728C10.801 9.54728 9.42082 10.9278 9.42082 12.6309ZM14.988 9.42501C14.9879 9.56754 15.0301 9.70688 15.1092 9.82542C15.1884 9.94396 15.3008 10.0364 15.4325 10.091C15.5641 10.1456 15.7089 10.1599 15.8487 10.1321C15.9884 10.1044 16.1168 10.0358 16.2176 9.93507C16.3184 9.83433 16.3871 9.70595 16.4149 9.56617C16.4428 9.42639 16.4286 9.28149 16.3741 9.14979C16.3196 9.01808 16.2274 8.9055 16.1089 8.82627C15.9905 8.74703 15.8512 8.70471 15.7087 8.70466H15.7084C15.5174 8.70475 15.3343 8.78066 15.1992 8.91572C15.0641 9.05079 14.9882 9.23396 14.988 9.42501ZM10.0781 17.5191C9.49282 17.4925 9.17468 17.3949 8.96325 17.3126C8.68296 17.2034 8.48296 17.0734 8.27269 16.8634C8.06242 16.6533 7.93227 16.4535 7.82363 16.1731C7.74121 15.9617 7.64371 15.6434 7.6171 15.0579C7.588 14.4249 7.58218 14.2347 7.58218 12.631C7.58218 11.0273 7.58848 10.8377 7.6171 10.2041C7.64376 9.61862 7.74198 9.30091 7.82363 9.0889C7.93275 8.80852 8.06271 8.60848 8.27269 8.39814C8.48268 8.18781 8.68248 8.05762 8.96325 7.94895C9.17458 7.8665 9.49282 7.76898 10.0781 7.74236C10.711 7.71325 10.9011 7.70744 12.5036 7.70744C14.1061 7.70744 14.2964 7.71373 14.9298 7.74236C15.5151 7.76903 15.8327 7.86727 16.0447 7.94895C16.325 8.05762 16.525 8.1881 16.7352 8.39814C16.9455 8.60819 17.0752 8.80852 17.1843 9.0889C17.2667 9.30029 17.3642 9.61862 17.3908 10.2041C17.4199 10.8377 17.4257 11.0273 17.4257 12.631C17.4257 14.2347 17.4199 14.4243 17.3908 15.0579C17.3642 15.6434 17.2662 15.9616 17.1843 16.1731C17.0752 16.4535 16.9452 16.6535 16.7352 16.8634C16.5252 17.0732 16.325 17.2034 16.0447 17.3126C15.8333 17.395 15.5151 17.4925 14.9298 17.5191C14.2969 17.5483 14.1068 17.5541 12.5036 17.5541C10.9004 17.5541 10.7108 17.5483 10.0781 17.5191ZM10.0284 6.66198C9.38932 6.69109 8.95259 6.79246 8.57119 6.94091C8.17621 7.09422 7.84183 7.29989 7.50769 7.63359C7.17356 7.9673 6.96847 8.3023 6.81521 8.6974C6.6668 9.07915 6.56546 9.51576 6.53636 10.1551C6.50677 10.7954 6.5 11.0001 6.5 12.6309C6.5 14.2618 6.50677 14.4665 6.53636 15.1068C6.56546 15.7462 6.6668 16.1827 6.81521 16.5645C6.96847 16.9593 7.1736 17.2947 7.50769 17.6283C7.84178 17.9619 8.17621 18.1672 8.57119 18.321C8.95331 18.4694 9.38932 18.5708 10.0284 18.5999C10.6689 18.629 10.8732 18.6363 12.5036 18.6363C14.134 18.6363 14.3386 18.6295 14.9788 18.5999C15.6179 18.5708 16.0544 18.4694 16.436 18.321C16.8308 18.1672 17.1654 17.962 17.4995 17.6283C17.8336 17.2946 18.0383 16.9593 18.192 16.5645C18.3404 16.1827 18.4422 15.7461 18.4708 15.1068C18.4999 14.466 18.5067 14.2618 18.5067 12.6309C18.5067 11.0001 18.4999 10.7954 18.4708 10.1551C18.4417 9.51571 18.3404 9.07891 18.192 8.6974C18.0383 8.30254 17.8331 7.96783 17.4995 7.63359C17.1659 7.29936 16.8308 7.09422 16.4365 6.94091C16.0544 6.79246 15.6179 6.69061 14.9792 6.66198C14.3391 6.63286 14.1345 6.62561 12.5041 6.62561C10.8737 6.62561 10.6689 6.63238 10.0284 6.66198Z" fill="white"/>
</g>
<defs>
<linearGradient id="paint0_linear_26_10508" x1="24.0387" y1="24.6" x2="0.0387207" y2="0.599975" gradientUnits="userSpaceOnUse">
<stop stop-color="#FBE18A"/>
<stop offset="0.21" stop-color="#FCBB45"/>
<stop offset="0.38" stop-color="#F75274"/>
<stop offset="0.52" stop-color="#D53692"/>
<stop offset="0.74" stop-color="#8F39CE"/>
<stop offset="1" stop-color="#5B4FE9"/>
</linearGradient>
<clipPath id="clip0_26_10508">
<rect x="0.5" y="0.599976" width="24" height="24" rx="8" fill="white"/>
</clipPath>
</defs>
</svg>
