<svg width="100" height="34" viewBox="0 0 100 34" fill="none" xmlns="http://www.w3.org/2000/svg">
<path d="M37.9389 17.4248C38.1024 16.4801 38.4521 15.6398 38.9881 14.9041C39.524 14.1592 40.1962 13.5824 41.0046 13.1736C41.8131 12.7558 42.6987 12.5468 43.6616 12.5468C44.8697 12.5468 45.8145 12.8375 46.4957 13.4189C47.1861 14.0002 47.5404 14.7951 47.5585 15.8033H44.6835C44.5836 15.549 44.411 15.3537 44.1658 15.2174C43.9205 15.0812 43.6117 15.0131 43.2392 15.0131C42.5761 15.0131 42.0084 15.2311 41.536 15.6671C41.0728 16.1031 40.7775 16.689 40.6504 17.4248C40.605 17.6973 40.5822 17.9244 40.5822 18.1061C40.5822 18.7147 40.7548 19.1779 41.1 19.4959C41.4452 19.8047 41.9539 19.9591 42.6261 19.9591C43.5617 19.9591 44.3066 19.5367 44.8607 18.692H42.1764L42.5171 16.7708H47.504L47.0408 19.3596C46.5684 20.1681 45.8917 20.863 45.0105 21.4443C44.1294 22.0257 43.1121 22.3164 41.9584 22.3164C41.1046 22.3164 40.3688 22.1574 39.7511 21.8395C39.1334 21.5125 38.661 21.0583 38.334 20.4769C38.007 19.8956 37.8435 19.2234 37.8435 18.4603C37.8435 18.097 37.8753 17.7518 37.9389 17.4248Z" fill="#F0F0F0"/>
<path d="M52.1617 22.3436C51.3533 22.3436 50.6402 22.1756 50.0225 21.8395C49.4048 21.5034 48.9279 21.031 48.5918 20.4224C48.2557 19.8138 48.0877 19.1144 48.0877 18.3241C48.0877 17.1886 48.3239 16.1803 48.7962 15.2992C49.2776 14.409 49.9453 13.7186 50.7992 13.2281C51.6621 12.7376 52.6477 12.4923 53.7559 12.4923C54.5825 12.4923 55.3047 12.6604 55.9224 12.9965C56.5492 13.3235 57.0306 13.7913 57.3667 14.3999C57.7028 14.9994 57.8708 15.6943 57.8708 16.4846C57.8708 17.611 57.6301 18.6193 57.1487 19.5095C56.6672 20.3997 55.995 21.0946 55.1321 21.5942C54.2691 22.0938 53.279 22.3436 52.1617 22.3436ZM52.5705 19.8638C53.1064 19.8638 53.5742 19.723 53.9739 19.4414C54.3827 19.1598 54.6915 18.7873 54.9005 18.3241C55.1185 17.8517 55.2275 17.343 55.2275 16.798C55.2275 16.2167 55.0685 15.767 54.7506 15.4491C54.4417 15.1221 53.9966 14.9586 53.4153 14.9586C52.8793 14.9586 52.407 15.0994 51.9982 15.381C51.5894 15.6535 51.2761 16.0214 51.0581 16.4846C50.84 16.9479 50.731 17.4566 50.731 18.0107C50.731 18.583 50.89 19.0371 51.2079 19.3732C51.5259 19.7003 51.98 19.8638 52.5705 19.8638Z" fill="#F0F0F0"/>
<path d="M60.8549 20.218H63.8389L63.471 22.2482H57.8028L59.506 12.6422H62.1766L60.8549 20.218Z" fill="#F0F0F0"/>
<path d="M70.0292 12.6422C70.9103 12.6422 71.6733 12.8012 72.3183 13.1191C72.9632 13.428 73.4537 13.8685 73.7898 14.4408C74.1259 15.0131 74.294 15.6807 74.294 16.4437C74.294 16.7889 74.2622 17.1205 74.1986 17.4384C74.0351 18.365 73.6808 19.1916 73.1358 19.9183C72.5999 20.645 71.9141 21.2172 71.0784 21.6351C70.2517 22.0438 69.3343 22.2482 68.326 22.2482H64.5245L66.2277 12.6422H70.0292ZM68.544 19.9046C69.3252 19.9046 69.9747 19.6912 70.4925 19.2642C71.0102 18.8282 71.3418 18.2196 71.4871 17.4384C71.5234 17.2567 71.5416 17.0614 71.5416 16.8525C71.5416 16.2439 71.3554 15.7761 70.983 15.4491C70.6105 15.1221 70.0882 14.9586 69.416 14.9586H68.5031L67.6175 19.9046H68.544Z" fill="#F0F0F0"/>
<path d="M83.0191 15.1357C82.9192 15.6989 82.683 16.1712 82.3106 16.5528C81.9472 16.9252 81.5112 17.1795 81.0025 17.3158C81.4658 17.4248 81.8246 17.6473 82.079 17.9834C82.3424 18.3195 82.4741 18.7192 82.4741 19.1825C82.4741 19.3278 82.4605 19.4777 82.4332 19.6321C82.297 20.4497 81.9064 21.0901 81.2614 21.5533C80.6165 22.0166 79.7808 22.2482 78.7543 22.2482H73.999L75.7022 12.6422H80.3076C81.1797 12.6422 81.8564 12.8194 82.3378 13.1736C82.8193 13.5188 83.06 14.0139 83.06 14.6588C83.06 14.8132 83.0464 14.9722 83.0191 15.1357ZM80.1986 15.6262C80.2077 15.5808 80.2123 15.5127 80.2123 15.4218C80.2123 14.9858 79.9261 14.7678 79.3538 14.7678H78.0049L77.7052 16.471H79.0541C79.7172 16.471 80.0987 16.1894 80.1986 15.6262ZM79.7762 19.2506C79.7853 19.2052 79.7899 19.1416 79.7899 19.0599C79.7899 18.8328 79.7127 18.6602 79.5582 18.5421C79.4129 18.4149 79.1949 18.3513 78.9042 18.3513H77.3645L77.0648 20.109H78.6181C79.2812 20.109 79.6672 19.8229 79.7762 19.2506Z" fill="#F0F0F0"/>
<path d="M86.6694 14.7542L86.3969 16.3484H89.4626L89.0947 18.3786H86.029L85.7156 20.1226H89.1901L88.8222 22.2482H82.6635L84.3667 12.6422H90.5118L90.1439 14.7542H86.6694Z" fill="#F0F0F0"/>
<path d="M99.1347 12.6422L98.7532 14.7678H96.2052L94.8836 22.2482H92.1993L93.521 14.7678H90.9867L91.3682 12.6422H99.1347Z" fill="#F0F0F0"/>
<path fill-rule="evenodd" clip-rule="evenodd" d="M1.73071 16.974L3.48673 15.218L4.27482 16.0061L3.30691 16.974L4.27482 17.9419L3.48673 18.73L1.73071 16.974ZM5.43966 14.4638L5.83386 12.8709L4.8403 13.8644L5.43966 14.4638ZM9.33404 9.3707H10.9102L18.2505 2.03048L25.5906 9.37065L27.1668 9.37066L18.2505 0.454285L9.33404 9.3707ZM25.5738 24.5942L18.2505 31.9176L11.1188 24.7859H9.5426L18.2505 33.4938L27.15 24.5942L25.5738 24.5942ZM30.6479 21.0963L31.0491 19.4721L31.6606 20.0836L30.6479 21.0963ZM33.194 16.974L32.2303 16.0103L33.0184 15.2222L34.7702 16.974L33.0184 18.7258L32.2303 17.9377L33.194 16.974Z" fill="#FFB600"/>
<path fill-rule="evenodd" clip-rule="evenodd" d="M19.4811 23.4797L17.7833 22.427L19.6551 14.8483H27.4991L27.6286 14.2331L29.5728 13.0942H8.80537L10.1604 14.2331L8.57327 20.6595L10.696 19.6636H13.1753L13.7716 17.3397H11.292L11.6803 15.8351L13.6864 14.8483H17.9058L16.034 22.427L13.9023 23.4797H6.24041L4.65869 22.2578L7.27373 11.6696L6.10759 10.4852H18.9979L20.4401 11.6696L20.7327 10.4851L30.6408 10.4852L31.8311 11.6696L31.0177 14.9628L29.3195 15.8351L30.5741 16.7468L28.9112 23.4797L19.4811 23.4797ZM23.876 19.6636L21.8226 20.6595L22.6311 17.3397H26.9516L26.3552 19.6636H23.876Z" fill="#F0F0F0"/>
</svg>
