<svg width="81" height="55" viewBox="0 0 81 55" fill="none" xmlns="http://www.w3.org/2000/svg">
<mask id="mask0_2002_1232" style="mask-type:alpha" maskUnits="userSpaceOnUse" x="1" y="0" width="80" height="55">
<rect x="1.98438" y="0.923828" width="78.1318" height="53.5699" fill="#016FD0"/>
</mask>
<g mask="url(#mask0_2002_1232)">
<path d="M5.95607 15.0262L1.99756 24.23H4.57476L5.30515 22.387H9.55128L10.2779 24.23H12.9119L8.95713 15.0262H5.95607ZM7.42065 17.1682L8.71492 20.3888H6.12259L7.42065 17.1682Z" fill="#F0F0F0"/>
<path d="M13.1841 24.2278V15.024L16.8464 15.0377L18.9766 20.9716L21.0557 15.024H24.6888V24.2278H22.3878V17.4461L19.9488 24.2278H17.9309L15.485 17.4461V24.2278H13.1841Z" fill="#F0F0F0"/>
<path d="M26.2651 24.2279V15.024H33.7735V17.0828H28.5903V18.6571H33.6524V20.5948H28.5903V22.2297H33.7735V24.2279H26.2651Z" fill="#F0F0F0"/>
<path d="M35.1035 15.0261V24.2299H37.4045V20.9602H38.3733L41.1322 24.2299H43.944L40.9165 20.8391C42.159 20.7342 43.4407 19.6678 43.4407 18.0121C43.4407 16.0753 41.9205 15.0261 40.2239 15.0261H35.1035ZM37.4045 17.0849H40.0347C40.6656 17.0849 41.1246 17.5784 41.1246 18.0537C41.1246 18.6652 40.5299 19.0225 40.0687 19.0225H37.4045V17.0849Z" fill="#F0F0F0"/>
<path d="M46.7332 24.2279H44.3838V15.024H46.7332V24.2279Z" fill="#F0F0F0"/>
<path d="M52.3036 24.2279H51.7964C49.3428 24.2279 47.853 22.2948 47.853 19.6638C47.853 16.9678 49.3261 15.024 52.4247 15.024H54.9678V17.2039H52.3317C51.0738 17.2039 50.1843 18.1855 50.1843 19.6865C50.1843 21.4689 51.2015 22.2176 52.6669 22.2176H53.2724L52.3036 24.2279Z" fill="#F0F0F0"/>
<path d="M57.312 15.0261L53.3535 24.2299H55.9307L56.6611 22.3868H60.9072L61.6339 24.2299H64.2678L60.3131 15.0261H57.312ZM58.7766 17.1681L60.0709 20.3887H57.4785L58.7766 17.1681Z" fill="#F0F0F0"/>
<path d="M64.5337 24.2279V15.024H67.4591L71.1944 20.8067V15.024H73.4953V24.2279H70.6645L66.8346 18.2938V24.2279H64.5337Z" fill="#F0F0F0"/>
<path d="M18.7573 40.3335V31.1296H26.2657V33.1884H21.0825V34.7627H26.1446V36.7004H21.0825V38.3353H26.2657V40.3335H18.7573Z" fill="#F0F0F0"/>
<path d="M55.5464 40.3333V31.1295H63.0548V33.1883H57.8716V34.7626H62.9094V36.7003H57.8716V38.3351H63.0548V40.3333H55.5464Z" fill="#F0F0F0"/>
<path d="M26.5577 40.3333L30.2135 35.7882L26.4707 31.1295H29.3696L31.5986 34.0095L33.8352 31.1295H36.6205L32.9269 35.7314L36.5894 40.3333H33.691L31.5267 37.4987L29.415 40.3333H26.5577Z" fill="#F0F0F0"/>
<path d="M36.8604 31.1306V40.3344H39.2219V37.428H41.6439C43.6933 37.428 45.2467 36.3407 45.2467 34.2263C45.2467 32.4747 44.0284 31.1306 41.9429 31.1306H36.8604ZM39.2219 33.2121H41.7726C42.4347 33.2121 42.9079 33.6179 42.9079 34.2717C42.9079 34.886 42.4371 35.3314 41.765 35.3314H39.2219V33.2121Z" fill="#F0F0F0"/>
<path d="M46.2466 31.1296V40.3335H48.5475V37.0637H49.5164L52.2752 40.3335H55.0871L52.0595 36.9426C53.3021 36.8377 54.5838 35.7713 54.5838 34.1156C54.5838 32.1788 53.0636 31.1296 51.367 31.1296H46.2466ZM48.5475 33.1884H51.1777C51.8087 33.1884 52.2677 33.6819 52.2677 34.1572C52.2677 34.7687 51.673 35.126 51.2118 35.126H48.5475V33.1884Z" fill="#F0F0F0"/>
<path d="M64.1227 40.3335V38.3353H68.7277C69.409 38.3353 69.7041 37.9671 69.7041 37.5632C69.7041 37.1763 69.41 36.7851 68.7277 36.7851H66.6467C64.8379 36.7851 63.8306 35.6831 63.8306 34.0285C63.8306 32.5528 64.7531 31.1296 67.4409 31.1296H71.9218L70.9529 33.2005H67.0776C66.3369 33.2005 66.1088 33.5892 66.1088 33.9604C66.1088 34.342 66.3906 34.7627 66.9565 34.7627H69.1364C71.1528 34.7627 72.0277 35.9065 72.0277 37.4043C72.0277 39.0146 71.0527 40.3335 69.0266 40.3335H64.1227Z" fill="#F0F0F0"/>
<path d="M72.5656 40.3335V38.3353H77.1705C77.8519 38.3353 78.1469 37.9671 78.1469 37.5632C78.1469 37.1763 77.8528 36.7851 77.1705 36.7851H75.0896C73.2808 36.7851 72.2734 35.6831 72.2734 34.0285C72.2734 32.5528 73.1959 31.1296 75.8838 31.1296H80.2731L79.3958 33.2005H75.5205C74.7797 33.2005 74.5517 33.5892 74.5517 33.9604C74.5517 34.342 74.8335 34.7627 75.3994 34.7627H77.5793C79.5956 34.7627 80.4706 35.9065 80.4706 37.4043C80.4706 39.0146 79.4956 40.3335 77.4695 40.3335H72.5656Z" fill="#F0F0F0"/>
</g>
</svg>
