<svg width="79" height="55" viewBox="0 0 79 55" fill="none" xmlns="http://www.w3.org/2000/svg">
<path fill-rule="evenodd" clip-rule="evenodd" d="M42.1115 19.0978L38.1426 19.9496V16.7318L42.1115 15.8958V19.0978ZM25.9826 17.7254L22.1244 18.5456L22.1086 31.1789C22.1086 33.5132 23.8638 35.2323 26.204 35.2323C27.5006 35.2323 28.4494 34.9957 28.9712 34.7118V31.5101C28.4652 31.7152 25.9668 32.4407 25.9668 30.1064V24.5074H28.9712V21.148H25.9668L25.9826 17.7254ZM68.2175 28.1032C68.2175 24.0656 66.2568 20.8796 62.5092 20.8796C58.7459 20.8796 56.4689 24.0656 56.4689 28.0716C56.4689 32.819 59.157 35.2163 63.0152 35.2163C64.8969 35.2163 66.32 34.7905 67.3953 34.1912V31.0368C66.32 31.573 65.0867 31.9042 63.5212 31.9042C61.9874 31.9042 60.6276 31.368 60.4536 29.5069H68.1859C68.1859 29.42 68.1916 29.2225 68.1981 28.995L68.1981 28.9945L68.1981 28.9941L68.1982 28.9935C68.2071 28.6847 68.2175 28.3209 68.2175 28.1032ZM60.4062 26.6052C60.4062 24.8227 61.4972 24.0814 62.4934 24.0814C63.458 24.0814 64.4858 24.8227 64.4858 26.6052H60.4062ZM16.6381 24.3023C15.8 24.3023 15.294 24.5388 15.294 25.1539C15.294 25.8255 16.1648 26.121 17.2452 26.4875C19.0065 27.085 21.3246 27.8714 21.3344 30.7845C21.3344 33.6077 19.0732 35.2322 15.7842 35.2322C14.4243 35.2322 12.938 34.9641 11.4674 34.3332V30.5795C12.7956 31.305 14.4718 31.8413 15.7842 31.8413C16.6697 31.8413 17.3022 31.6047 17.3022 30.8792C17.3022 30.1352 16.3582 29.7952 15.2185 29.3847C13.4829 28.7595 11.2935 27.9709 11.2935 25.3432C11.2935 22.5516 13.4281 20.8797 16.6381 20.8797C17.9505 20.8797 19.2471 21.0848 20.5596 21.6053V25.3117C19.3578 24.665 17.8398 24.3023 16.6381 24.3023ZM33.8899 22.315L33.6369 21.1479H30.2215V34.9483H34.1746V25.5955C35.1075 24.3811 36.6887 24.6019 37.1789 24.7754V21.1479C36.6729 20.9586 34.8229 20.6116 33.8899 22.315ZM38.1426 21.1479H42.1115V34.9483H38.1426V21.1479ZM47.266 22.1098C47.8195 21.6051 48.8157 20.8796 50.3653 20.8796C53.1324 20.8796 55.7415 23.3716 55.7573 27.9455C55.7573 32.9452 53.1799 35.2163 50.3495 35.2163C48.958 35.2163 48.1199 34.6328 47.5507 34.2227L47.5348 38.6862L43.5817 39.5221V21.132H47.0605L47.266 22.1098ZM47.5509 31.0058C47.9304 31.416 48.4839 31.7472 49.4168 31.7472C50.8716 31.7472 51.8519 30.1698 51.8519 28.0561C51.8519 25.9898 50.8557 24.3809 49.4168 24.3809C48.5155 24.3809 47.9463 24.6963 47.5351 25.1538L47.5509 31.0058Z" fill="#F0F0F0"/>
</svg>
