<svg width="79" height="55" viewBox="0 0 79 55" fill="none" xmlns="http://www.w3.org/2000/svg">
<path fill-rule="evenodd" clip-rule="evenodd" d="M67.3836 22.376C69.8092 22.376 71.1432 23.4553 71.1432 25.494C71.2645 27.053 70.173 28.3721 68.7177 28.612L71.9922 33.0491H69.4453L66.656 28.7319H66.4134V33.0491H64.3517V22.376H67.3836ZM66.413 27.2933H67.0194C68.3534 27.2933 68.9598 26.6936 68.9598 25.6141C68.9598 24.6547 68.3534 24.055 67.0194 24.055H66.413V27.2933ZM57.1967 33.0491H63.0181V31.2503H59.2585V28.3721H62.8968V26.5733H59.2585V24.1748H63.0181V22.376H57.1967V33.0491ZM51.1328 29.5713L48.3434 22.376H46.1604L50.6477 33.2889H51.7392L56.2265 22.376H54.0435L51.1328 29.5713ZM26.5134 27.7726C26.5134 30.7706 28.9389 33.289 31.9709 33.289C32.9411 33.289 33.7901 33.0492 34.639 32.6894V30.2909C34.0326 31.0105 33.1837 31.4902 32.2134 31.4902C30.273 31.4902 28.6964 30.0511 28.6964 28.1323V27.8925C28.5751 25.9737 30.1517 24.2948 32.0922 24.1749C33.0624 24.1749 34.0326 24.6546 34.639 25.3741V22.9757C33.9113 22.496 32.9411 22.376 32.0922 22.376C28.9389 22.1362 26.5134 24.6546 26.5134 27.7726ZM22.7537 26.4535C21.5409 25.9738 21.1771 25.7339 21.1771 25.1343C21.2983 24.4148 21.9047 23.8152 22.6324 23.9351C23.2388 23.9351 23.8452 24.2948 24.3303 24.7745L25.4218 23.3355C24.5728 22.6159 23.4813 22.1362 22.3898 22.1362C20.6919 22.0163 19.2366 23.3355 19.1153 25.0144V25.1343C19.1153 26.5734 19.7217 27.4128 21.6622 28.0125C22.1473 28.1324 22.6324 28.3722 23.1175 28.6121C23.4813 28.8519 23.7239 29.2117 23.7239 29.6914C23.7239 30.5308 22.9962 31.2504 22.2686 31.2504H22.1473C21.1771 31.2504 20.3281 30.6508 19.9643 29.8113L18.6302 31.1304C19.3579 32.4496 20.8132 33.1691 22.2686 33.1691C24.209 33.2891 25.7856 31.85 25.9069 29.9312V29.5714C25.7856 28.1324 25.1792 27.4128 22.7537 26.4535ZM15.7195 33.0491H17.7813V22.376H15.7195V33.0491ZM6.13867 22.376H9.17062H9.77701C12.6877 22.4959 14.992 24.8943 14.8707 27.7725C14.8707 29.3315 14.143 30.7706 12.9302 31.8499C11.8387 32.6893 10.5047 33.169 9.17062 33.0491H6.13867V22.376ZM8.80614 31.2511C9.77636 31.3711 10.8679 31.0113 11.5955 30.4116C12.3232 29.692 12.687 28.7325 12.687 27.653C12.687 26.6935 12.3232 25.734 11.5955 25.0144C10.8679 24.4147 9.77636 24.0549 8.80614 24.1749H8.19975V31.2511H8.80614Z" fill="#F0F0F0"/>
<path fill-rule="evenodd" clip-rule="evenodd" d="M40.8249 22.1287C37.7929 22.1287 35.2461 24.5271 35.2461 27.6451C35.2461 30.6432 37.6717 33.1616 40.8249 33.2815C43.9781 33.4014 46.4037 30.883 46.5249 27.765C46.4037 24.647 43.9781 22.1287 40.8249 22.1287V22.1287Z" fill="#F0F0F0"/>
</svg>
