<svg width="79" height="55" viewBox="0 0 79 55" fill="none" xmlns="http://www.w3.org/2000/svg">
<path d="M35.2801 36.822H30.8623L33.6255 19.7385H38.043L35.2801 36.822Z" fill="#F0F0F0"/>
<path d="M51.2931 20.1563C50.4217 19.8106 49.0396 19.429 47.3307 19.429C42.968 19.429 39.8959 21.7551 39.877 25.0808C39.8408 27.5344 42.0766 28.8973 43.7488 29.7154C45.458 30.5514 46.039 31.0971 46.039 31.8423C46.0216 32.9867 44.6579 33.5143 43.3859 33.5143C41.6222 33.5143 40.6771 33.2423 39.2409 32.6056L38.6592 32.3326L38.041 36.1675C39.0771 36.6395 40.9861 37.0583 42.968 37.0767C47.6034 37.0767 50.6212 34.7865 50.657 31.2425C50.6746 29.2978 49.494 27.8076 46.9487 26.59C45.4036 25.8083 44.4573 25.2812 44.4573 24.4815C44.4755 23.7544 45.2577 23.0097 47.0019 23.0097C48.4381 22.9732 49.4933 23.3184 50.2927 23.6638L50.6922 23.8452L51.2931 20.1563Z" fill="#F0F0F0"/>
<path d="M57.167 30.7699C57.5308 29.7885 58.9308 25.9901 58.9308 25.9901C58.9124 26.0266 59.2939 24.9906 59.512 24.3546L59.8208 25.8266C59.8208 25.8266 60.6573 29.9158 60.839 30.7699C60.1486 30.7699 58.0396 30.7699 57.167 30.7699ZM62.6202 19.7385H59.203C58.1493 19.7385 57.3487 20.0472 56.894 21.1559L50.332 36.8217H54.9674C54.9674 36.8217 55.7306 34.7132 55.8946 34.2591C56.4031 34.2591 60.9124 34.2591 61.5666 34.2591C61.6935 34.8589 62.0938 36.8217 62.0938 36.8217H66.1842L62.6202 19.7385Z" fill="#F0F0F0"/>
<path d="M27.1717 19.7385L22.8453 31.3878L22.3725 29.0252C21.5726 26.299 19.0641 23.3371 16.2646 21.8644L20.2275 36.8038H24.8992L31.8431 19.7385H27.1717Z" fill="#F0F0F0"/>
<path d="M18.8279 19.7385H11.7202L11.6475 20.0837C17.1919 21.5016 20.8639 24.9192 22.3726 29.027L20.8275 21.1747C20.5731 20.0835 19.7913 19.7745 18.8279 19.7385Z" fill="#F0F0F0"/>
</svg>
