<svg width="70" height="31" viewBox="0 0 70 31" fill="none" xmlns="http://www.w3.org/2000/svg">
<path d="M2.14301 4.60083H4.55758C5.67984 4.60083 6.51115 4.80488 7.0515 5.21297C7.59563 5.62107 7.86769 6.24455 7.86769 7.08342C7.86769 7.57086 7.73355 8.00541 7.46527 8.38706C7.19698 8.76492 6.81722 9.06155 6.326 9.27693C7.65609 11.2645 8.4685 12.468 8.76324 12.8875H6.81345L4.83531 9.7077H3.90009V12.8875H2.14301V4.60083ZM3.90009 6.0405V8.27936H4.46689C5.02236 8.27936 5.43234 8.18679 5.69685 8.00163C5.96136 7.81648 6.09361 7.52741 6.09361 7.13443C6.09361 6.74145 5.95947 6.46182 5.69118 6.29556C5.42667 6.12552 5.00724 6.0405 4.43288 6.0405H3.90009ZM14.5915 12.553C14.0096 12.8516 13.2671 13.0008 12.364 13.0008C11.3438 13.0008 10.5465 12.7193 9.97211 12.1563C9.39775 11.5933 9.11057 10.7884 9.11057 9.74171C9.11057 8.69502 9.37508 7.88449 9.90409 7.31014C10.4331 6.72444 11.1567 6.4316 12.0749 6.4316C12.9932 6.4316 13.6998 6.68666 14.1948 7.19678C14.6973 7.70312 14.9486 8.40784 14.9486 9.31094V10.1498H10.862C10.8809 10.6448 11.0264 11.0302 11.2984 11.3061C11.5743 11.5781 11.9559 11.7142 12.4434 11.7142C13.1613 11.7142 13.8774 11.5479 14.5915 11.2154V12.553ZM13.3276 8.9992C13.32 8.57599 13.2085 8.24725 12.9932 8.01297C12.7816 7.77869 12.4925 7.66155 12.126 7.66155C11.7594 7.66155 11.4704 7.7768 11.2587 8.0073C11.0509 8.2378 10.9319 8.56843 10.9017 8.9992H13.3276ZM17.9542 11.7368C18.5815 11.7368 18.8951 11.5555 18.8951 11.1927C18.8951 11.0076 18.812 10.8602 18.6457 10.7506C18.4833 10.641 18.1092 10.4559 17.5235 10.1951C17.036 9.9911 16.6771 9.80217 16.4466 9.62835C16.2198 9.45453 16.0536 9.25615 15.9478 9.03321C15.8457 8.80649 15.7947 8.52876 15.7947 8.20001C15.7947 7.63699 16.012 7.20244 16.4466 6.89637C16.8849 6.58652 17.497 6.4316 18.283 6.4316C19.069 6.4316 19.819 6.59786 20.5332 6.93038L20.0117 8.17734C19.6452 8.02241 19.3297 7.90717 19.0652 7.83159C18.8044 7.75224 18.5418 7.71256 18.2773 7.71256C17.7672 7.71256 17.5121 7.85049 17.5121 8.12633C17.5121 8.28125 17.5953 8.41729 17.7615 8.53442C17.9278 8.64778 18.2717 8.80838 18.7931 9.0162C19.3183 9.22403 19.6962 9.41674 19.9267 9.59434C20.3764 9.93442 20.6012 10.4181 20.6012 11.0454C20.6012 11.6726 20.3745 12.1563 19.921 12.4964C19.4676 12.8327 18.812 13.0008 17.9542 13.0008C17.0965 13.0008 16.3785 12.878 15.8004 12.6324V11.2041C16.1254 11.3552 16.4881 11.4818 16.8887 11.5838C17.293 11.6858 17.6482 11.7368 17.9542 11.7368ZM23.5048 7.37815C23.9053 6.74711 24.491 6.4316 25.2619 6.4316C26.0365 6.4316 26.6354 6.72255 27.0586 7.30447C27.4819 7.87505 27.6935 8.67235 27.6935 9.69637C27.6972 10.7166 27.4781 11.5234 27.036 12.1166C26.5976 12.7061 26.0176 13.0008 25.2959 13.0008C25.2846 13.0008 25.2713 13.0008 25.2562 13.0008C24.5156 13.0008 23.9318 12.7306 23.5048 12.1903H23.4141C23.4746 12.7004 23.5048 13.0065 23.5048 13.1085V15.6761H21.7761V6.55062H23.1817L23.4255 7.37815H23.5048ZM23.5048 9.69637C23.5048 10.3727 23.6049 10.8602 23.8052 11.1587C24.0055 11.4534 24.3267 11.6008 24.7688 11.6008C25.5434 11.6008 25.9307 10.9622 25.9307 9.68503C25.9307 9.05777 25.8344 8.58922 25.6416 8.27936C25.4489 7.96951 25.1429 7.81459 24.7234 7.81459C24.3078 7.81459 24.0017 7.94684 23.8052 8.21135C23.6125 8.47586 23.5124 8.90851 23.5048 9.50932V9.69637ZM31.6967 6.4316C32.2786 6.4316 32.7981 6.56385 33.2554 6.82836C33.7164 7.08908 34.0716 7.46695 34.3209 7.96196C34.5741 8.45318 34.7007 9.0162 34.7007 9.65102C34.7007 9.66991 34.7007 9.68881 34.7007 9.7077C34.7007 10.7393 34.4286 11.546 33.8845 12.1279C33.3404 12.7099 32.5828 13.0008 31.6116 13.0008C31.5965 13.0008 31.5795 13.0008 31.5606 13.0008C30.9787 13.0008 30.4573 12.8686 29.9963 12.6041C29.539 12.3358 29.1838 11.9541 28.9307 11.4591C28.6813 10.9641 28.5566 10.3992 28.5566 9.76438C28.5566 9.74549 28.5566 9.72659 28.5566 9.7077C28.5566 8.67235 28.8268 7.86938 29.3671 7.2988C29.9075 6.72066 30.667 6.4316 31.6456 6.4316C31.6608 6.4316 31.6778 6.4316 31.6967 6.4316ZM32.6205 8.2907C32.4127 7.98085 32.0802 7.82592 31.623 7.82592C31.1658 7.82592 30.8332 7.97896 30.6254 8.28503C30.4214 8.5911 30.3193 9.06533 30.3193 9.7077C30.3193 10.3463 30.4232 10.8243 30.6311 11.1417C30.8427 11.4553 31.1752 11.6122 31.6286 11.6122C32.0859 11.6122 32.4165 11.4553 32.6205 11.1417C32.8284 10.8281 32.9323 10.352 32.9323 9.71337C32.9323 9.071 32.8284 8.59677 32.6205 8.2907ZM39.5598 6.4316C40.2928 6.4316 40.8502 6.63186 41.2318 7.0324C41.6173 7.42916 41.81 8.00352 41.81 8.75548V12.8875H40.0812V9.18624C40.0812 8.72525 39.9981 8.38139 39.8318 8.15467C39.6694 7.92795 39.4124 7.81459 39.061 7.81459C38.5773 7.81459 38.2278 7.97707 38.0124 8.30204C37.797 8.627 37.6893 9.16168 37.6893 9.90608V12.8875H35.9606V6.55062H37.2812L37.5136 7.36682H37.61C37.7989 7.06074 38.0615 6.82836 38.3978 6.66965C38.7379 6.51095 39.1252 6.4316 39.5598 6.4316ZM45.1897 11.7368C45.8169 11.7368 46.1306 11.5555 46.1306 11.1927C46.1306 11.0076 46.0474 10.8602 45.8812 10.7506C45.7187 10.641 45.3446 10.4559 44.7589 10.1951C44.2715 9.9911 43.9125 9.80217 43.682 9.62835C43.4553 9.45453 43.289 9.25615 43.1832 9.03321C43.0812 8.80649 43.0302 8.52876 43.0302 8.20001C43.0302 7.63699 43.2474 7.20244 43.682 6.89637C44.1203 6.58652 44.7325 6.4316 45.5184 6.4316C46.3044 6.4316 47.0545 6.59786 47.7686 6.93038L47.2472 8.17734C46.8806 8.02241 46.5651 7.90717 46.3006 7.83159C46.0399 7.75224 45.7773 7.71256 45.5128 7.71256C45.0026 7.71256 44.7476 7.85049 44.7476 8.12633C44.7476 8.28125 44.8307 8.41729 44.997 8.53442C45.1632 8.64778 45.5071 8.80838 46.0285 9.0162C46.5538 9.22403 46.9316 9.41674 47.1621 9.59434C47.6118 9.93442 47.8366 10.4181 47.8366 11.0454C47.8366 11.6726 47.6099 12.1563 47.1565 12.4964C46.703 12.8327 46.0474 13.0008 45.1897 13.0008C44.3319 13.0008 43.614 12.878 43.0358 12.6324V11.2041C43.3608 11.3552 43.7236 11.4818 44.1241 11.5838C44.5284 11.6858 44.8836 11.7368 45.1897 11.7368ZM48.9378 4.91824C48.9378 4.35144 49.2515 4.06804 49.8787 4.06804C50.506 4.06804 50.8196 4.34955 50.8196 4.91257C50.8196 5.18463 50.7402 5.39435 50.5815 5.54172C50.4228 5.68909 50.1886 5.76277 49.8787 5.76277C49.2515 5.76277 48.9378 5.48126 48.9378 4.91824ZM50.7402 12.8875H49.0115V6.55062H50.7402V12.8875ZM54.1143 4.06804V6.11985C54.1143 6.38058 54.0916 6.80002 54.0463 7.37815H54.1143C54.5148 6.74711 55.1005 6.4316 55.8714 6.4316C56.646 6.4316 57.2449 6.72633 57.6681 7.3158C58.0913 7.89016 58.3029 8.69502 58.3029 9.73037C58.3029 10.7619 58.0838 11.5649 57.6455 12.1393C57.2071 12.7136 56.6158 13.0008 55.8714 13.0008C55.127 13.0008 54.5413 12.7306 54.1143 12.1903H53.9953L53.7062 12.8875H52.3856V4.06804H54.1143ZM54.1143 9.69637C54.1143 10.3727 54.2144 10.8602 54.4147 11.1587C54.615 11.4534 54.9362 11.6008 55.3783 11.6008C55.7372 11.6008 56.0206 11.4364 56.2285 11.1077C56.4363 10.7752 56.5402 10.3028 56.5402 9.6907C56.5402 9.07477 56.4363 8.60811 56.2285 8.2907C56.0206 7.97329 55.7297 7.81459 55.3556 7.81459C54.9248 7.81459 54.6112 7.94684 54.4147 8.21135C54.222 8.47586 54.1219 8.90851 54.1143 9.50932V9.69637ZM61.2859 12.8875H59.5572V4.06804H61.2859V12.8875ZM68.0267 12.553C67.4448 12.8516 66.7023 13.0008 65.7992 13.0008C64.779 13.0008 63.9817 12.7193 63.4073 12.1563C62.833 11.5933 62.5458 10.7884 62.5458 9.74171C62.5458 8.69502 62.8103 7.88449 63.3393 7.31014C63.8683 6.72444 64.5919 6.4316 65.5102 6.4316C66.4284 6.4316 67.135 6.68666 67.63 7.19678C68.1326 7.70312 68.3838 8.40784 68.3838 9.31094V10.1498H64.2972C64.3161 10.6448 64.4616 11.0302 64.7336 11.3061C65.0095 11.5781 65.3911 11.7142 65.8786 11.7142C66.5965 11.7142 67.3126 11.5479 68.0267 11.2154V12.553ZM66.7628 8.9992C66.7552 8.57599 66.6438 8.24725 66.4284 8.01297C66.2168 7.77869 65.9277 7.66155 65.5612 7.66155C65.1946 7.66155 64.9056 7.7768 64.694 8.0073C64.4861 8.2378 64.3671 8.56843 64.3369 8.9992H66.7628ZM8.57619 21.234V25.5304C7.60886 25.844 6.6264 26.0008 5.62883 26.0008C4.38187 26.0008 3.42587 25.6343 2.76082 24.9012C2.10333 24.1644 1.77459 23.1177 1.77459 21.7611C1.77459 20.4046 2.15624 19.3522 2.91953 18.6041C3.6866 17.8559 4.7484 17.4818 6.10494 17.4818C6.95515 17.4818 7.77512 17.6518 8.56486 17.9919L7.98105 19.3976C7.36891 19.0953 6.73976 18.9441 6.09361 18.9441C5.3341 18.9441 4.72573 19.2011 4.26851 19.715C3.81129 20.2251 3.58268 20.9204 3.58268 21.8008C3.58268 22.6775 3.76595 23.3539 4.13248 23.83C4.50279 24.3023 5.03936 24.5385 5.74219 24.5385C6.09739 24.5385 6.46959 24.5007 6.85879 24.4251V22.6964H5.28875V21.234H8.57619ZM10.4142 19.9927C11.1473 19.6111 11.9502 19.4203 12.8231 19.4203C13.696 19.4203 14.3554 19.6073 14.8012 19.9814C15.2509 20.3555 15.4757 20.9166 15.4757 21.6648V25.8875H14.2685L13.934 25.0259H13.8887C13.5977 25.3962 13.2992 25.6513 12.9932 25.7911C12.6871 25.9309 12.2847 26.0008 11.7859 26.0008C11.1813 26.0008 10.7014 25.827 10.3462 25.4794C9.99856 25.1317 9.82474 24.631 9.82474 23.9773C9.82474 23.3236 10.0571 22.8362 10.5219 22.515C10.9867 22.19 11.699 22.0105 12.6587 21.9765L13.7583 21.9425V21.6648C13.7583 21.0224 13.4296 20.7012 12.7721 20.7012C12.2658 20.7012 11.6706 20.8543 10.9867 21.1603L10.4142 19.9927ZM11.5988 24.0057C11.5988 24.4931 11.8784 24.7368 12.4377 24.7368C12.842 24.7368 13.1632 24.6216 13.4013 24.3911C13.6393 24.1606 13.7583 23.8545 13.7583 23.4729V22.9514L13.0895 22.9741C12.5869 22.9892 12.2129 23.0799 11.9672 23.2462C11.7216 23.4124 11.5988 23.6656 11.5988 24.0057ZM24.5291 19.4316C25.2584 19.4316 25.8044 19.6186 26.1672 19.9927C26.5299 20.3668 26.7113 20.9544 26.7113 21.7555V25.8875H24.9769V22.1862C24.9769 21.7252 24.8994 21.3814 24.7445 21.1547C24.5896 20.9279 24.3496 20.8146 24.0247 20.8146C23.5977 20.8146 23.2803 20.9676 23.0725 21.2737C22.8646 21.5798 22.7607 22.0578 22.7607 22.7077V25.8875H21.032V22.1862C21.032 21.7252 20.9545 21.3814 20.7996 21.1547C20.6447 20.9279 20.4047 20.8146 20.0797 20.8146C19.6376 20.8146 19.3165 20.9771 19.1162 21.302C18.9159 21.627 18.8158 22.1617 18.8158 22.9061V25.8875H17.087V19.5506H18.4077L18.6401 20.3668H18.7364C18.9065 20.0721 19.1521 19.8435 19.4733 19.681C19.7945 19.5147 20.1629 19.4316 20.5785 19.4316C21.5308 19.4316 22.1731 19.7433 22.5057 20.3668H22.6587C22.8287 20.0721 23.0781 19.8435 23.4069 19.681C23.7356 19.5147 24.1097 19.4316 24.5291 19.4316ZM30.0457 17.068V19.1199C30.0457 19.3806 30.023 19.8 29.9777 20.3782H30.0457C30.4462 19.7471 31.0319 19.4316 31.8028 19.4316C32.5774 19.4316 33.1763 19.7263 33.5995 20.3158C34.0227 20.8902 34.2343 21.695 34.2343 22.7304C34.2343 23.7619 34.0152 24.5649 33.5769 25.1393C33.1385 25.7136 32.5472 26.0008 31.8028 26.0008C31.0584 26.0008 30.4727 25.7306 30.0457 25.1903H29.9267L29.6376 25.8875H28.3169V17.068H30.0457ZM30.0457 22.6964C30.0457 23.3727 30.1458 23.8602 30.3461 24.1587C30.5464 24.4534 30.8675 24.6008 31.3096 24.6008C31.6686 24.6008 31.952 24.4364 32.1598 24.1077C32.3677 23.7752 32.4716 23.3028 32.4716 22.6907C32.4716 22.0748 32.3677 21.6081 32.1598 21.2907C31.952 20.9733 31.6611 20.8146 31.287 20.8146C30.8562 20.8146 30.5426 20.9468 30.3461 21.2113C30.1534 21.4759 30.0532 21.9085 30.0457 22.5093V22.6964ZM37.2173 25.8875H35.4886V17.068H37.2173V25.8875ZM38.7889 17.9182C38.7889 17.3514 39.1025 17.068 39.7298 17.068C40.3571 17.068 40.6707 17.3495 40.6707 17.9126C40.6707 18.1846 40.5913 18.3944 40.4326 18.5417C40.2739 18.6891 40.0397 18.7628 39.7298 18.7628C39.1025 18.7628 38.7889 18.4813 38.7889 17.9182ZM40.5913 25.8875H38.8626V19.5506H40.5913V25.8875ZM45.8358 19.4316C46.5689 19.4316 47.1263 19.6319 47.5079 20.0324C47.8933 20.4292 48.086 21.0035 48.086 21.7555V25.8875H46.3573V22.1862C46.3573 21.7252 46.2742 21.3814 46.1079 21.1547C45.9454 20.9279 45.6885 20.8146 45.3371 20.8146C44.8534 20.8146 44.5039 20.9771 44.2885 21.302C44.0731 21.627 43.9654 22.1617 43.9654 22.9061V25.8875H42.2367V19.5506H43.5573L43.7897 20.3668H43.886C44.075 20.0607 44.3376 19.8284 44.6739 19.6697C45.014 19.5109 45.4013 19.4316 45.8358 19.4316ZM51.9192 24.5781H52.9961C53.6914 24.5781 54.2204 24.7293 54.5832 25.0316C54.9497 25.3301 55.133 25.7665 55.133 26.3409C55.133 27.0815 54.8231 27.6559 54.2034 28.064C53.5875 28.4721 52.7014 28.6761 51.5451 28.6761C50.6647 28.6761 49.9902 28.5231 49.5216 28.217C49.0531 27.9109 48.8188 27.4783 48.8188 26.919C48.8188 26.5374 48.9378 26.2181 49.1759 25.9611C49.4139 25.7042 49.7635 25.5209 50.2245 25.4113C50.0506 25.3433 49.8957 25.2205 49.7597 25.0429C49.6274 24.8653 49.5613 24.6726 49.5613 24.4648C49.5613 24.2532 49.6255 24.068 49.754 23.9093C49.8863 23.7468 50.0941 23.5825 50.3775 23.4162C50.0412 23.2688 49.7767 23.0364 49.584 22.719C49.3913 22.4016 49.2949 22.0294 49.2949 21.6024C49.2949 20.9109 49.5197 20.3763 49.9694 19.9984C50.4191 19.6205 51.0614 19.4316 51.8965 19.4316C52.0741 19.4316 52.2838 19.4486 52.5257 19.4826C52.7713 19.5128 52.9281 19.5355 52.9961 19.5506H55.2066V20.4292L54.2147 20.6842C54.3961 20.9752 54.4868 21.2926 54.4868 21.6364C54.4868 22.3166 54.2506 22.8475 53.7783 23.2292C53.306 23.607 52.6466 23.796 51.8002 23.796L51.4884 23.779L51.2334 23.7506C51.0558 23.8866 50.967 24.0378 50.967 24.2041C50.967 24.4534 51.2844 24.5781 51.9192 24.5781ZM51.8965 20.4802C51.2617 20.4802 50.9443 20.8618 50.9443 21.6251C50.9443 21.9765 51.0236 22.2505 51.1824 22.447C51.3448 22.6435 51.5829 22.7417 51.8965 22.7417C52.2139 22.7417 52.4501 22.6454 52.605 22.4526C52.7599 22.2562 52.8374 21.9803 52.8374 21.6251C52.8374 20.8618 52.5238 20.4802 51.8965 20.4802ZM52.3273 25.9668H51.4317C51.1143 25.9668 50.8479 26.0405 50.6326 26.1879C50.4209 26.3428 50.3151 26.5393 50.3151 26.7773C50.3151 27.0192 50.4304 27.2081 50.6609 27.3441C50.8914 27.4802 51.2107 27.5482 51.6188 27.5482C52.2385 27.5482 52.724 27.4632 53.0755 27.2931C53.4269 27.1231 53.6026 26.8907 53.6026 26.596C53.6026 26.3655 53.5006 26.203 53.2965 26.1085C53.0962 26.014 52.7732 25.9668 52.3273 25.9668Z" fill="#F0F0F0"/>
</svg>
