<svg width="55" height="31" viewBox="0 0 55 31" fill="none" xmlns="http://www.w3.org/2000/svg">
<path d="M28.7864 14.8903L29.7919 13.6814C30.4246 14.2689 31.2493 14.5965 32.1079 14.6304C32.8084 14.6304 33.2264 14.348 33.2264 13.8961V13.8735C33.2264 13.4442 32.9666 13.2182 31.6673 12.8906C30.0969 12.4951 29.0914 12.0545 29.0914 10.518V10.4954C29.0914 9.08321 30.2212 8.15679 31.8142 8.15679C32.8649 8.1342 33.8817 8.48443 34.6951 9.1397L33.8026 10.4276C33.2264 9.97573 32.5146 9.70459 31.7803 9.6594C31.125 9.6594 30.7861 9.96444 30.7861 10.3373V10.3599C30.7861 10.8683 31.1137 11.0377 32.4582 11.3767C34.0285 11.7834 34.9211 12.3483 34.9211 13.704V13.7266C34.9211 15.2744 33.7461 16.133 32.074 16.133C30.8765 16.133 29.7015 15.6924 28.7864 14.8903Z" fill="#F0F0F0"/>
<path d="M35.7795 14.8903L36.785 13.6814C37.4177 14.2689 38.2425 14.5965 39.1011 14.6304C39.8016 14.6304 40.2196 14.348 40.2196 13.8961V13.8735C40.2196 13.4442 39.9597 13.2182 38.6605 12.8906C37.0901 12.4951 36.0846 12.0545 36.0846 10.518V10.4954C36.0846 9.08321 37.2144 8.15679 38.8074 8.15679C39.858 8.1342 40.8748 8.48443 41.6883 9.1397L40.7958 10.4276C40.2196 9.97573 39.5078 9.70459 38.7735 9.6594C38.1182 9.6594 37.7792 9.96444 37.7792 10.3373V10.3599C37.7792 10.8683 38.1069 11.0377 39.4513 11.3767C41.0217 11.7834 41.9142 12.3483 41.9142 13.704V13.7266C41.9142 15.2744 40.7393 16.133 39.0672 16.133C37.8583 16.133 36.6947 15.6924 35.7795 14.8903Z" fill="#F0F0F0"/>
<path d="M43.4146 8.24805H45.1205V14.4618H48.9956V16.0209H43.4146V8.24805Z" fill="#F0F0F0"/>
<path d="M28.5806 19.9513L28.9647 19.4881C29.2132 19.714 29.5296 19.8383 29.8572 19.8496C30.1284 19.8496 30.2865 19.7479 30.2865 19.5671V19.5558C30.2865 19.3864 30.1848 19.3073 29.6877 19.1717C29.089 19.0135 28.6935 18.8554 28.6935 18.2566V18.2453C28.7048 17.7256 29.1342 17.3189 29.6539 17.3415C29.6765 17.3415 29.7103 17.3415 29.7329 17.3528C30.1397 17.3415 30.5238 17.477 30.8401 17.7369L30.5012 18.234C30.2752 18.0645 30.0041 17.9516 29.7216 17.9403C29.4731 17.9403 29.3375 18.0532 29.3375 18.2001V18.2114C29.3375 18.4035 29.4618 18.4713 29.9815 18.6068C30.5916 18.765 30.9305 18.9797 30.9305 19.4994V19.5106C30.9305 20.1094 30.4786 20.4371 29.8346 20.4371C29.3827 20.4258 28.9308 20.2563 28.5806 19.9513Z" fill="#F0F0F0"/>
<path d="M31.5171 17.3982H33.7653V17.9857H32.1611V18.5958H33.5733V19.1832H32.1611V19.8159H33.7879V20.4034H31.5171V17.3982Z" fill="#F0F0F0"/>
<path d="M34.254 18.9017C34.2427 18.0543 34.9093 17.3652 35.7454 17.3426C35.768 17.3426 35.7906 17.3426 35.8131 17.3426C36.2538 17.32 36.6831 17.4895 36.9881 17.8058L36.5701 18.2916C36.3667 18.0882 36.0956 17.964 35.8018 17.9527C35.316 17.964 34.9206 18.3707 34.9319 18.8565C34.9319 18.8678 34.9319 18.8791 34.9319 18.8791V18.8904C34.898 19.3762 35.2821 19.7942 35.768 19.8281C35.7793 19.8281 35.7905 19.8281 35.8018 19.8281C36.0956 19.8281 36.3893 19.7038 36.5927 19.4779L37.0107 19.8959C36.7057 20.2574 36.2538 20.4495 35.7905 20.4269C34.9545 20.4382 34.2766 19.7716 34.254 18.9469C34.254 18.9356 34.254 18.9243 34.254 18.9017Z" fill="#F0F0F0"/>
<path d="M37.4862 19.1042V17.3982H38.1414V19.0816C38.1414 19.5674 38.39 19.8159 38.7854 19.8159C39.1808 19.8159 39.4294 19.5674 39.4294 19.1042V17.3982H40.0846V19.0816C40.1637 19.7368 39.7005 20.3469 39.0452 20.426C38.9549 20.4373 38.8645 20.4373 38.7741 20.426C38.1188 20.4938 37.5426 20.0193 37.4749 19.364C37.4749 19.2849 37.4749 19.1945 37.4862 19.1042Z" fill="#F0F0F0"/>
<path d="M40.7627 17.3964H42.1297C42.4461 17.3738 42.7624 17.4868 42.9997 17.7014C43.1691 17.8822 43.2708 18.1308 43.2595 18.3793V18.3906C43.2821 18.8086 43.0222 19.1927 42.6155 19.317L43.3499 20.379H42.5816L41.9377 19.4187H41.418V20.379H40.7627V17.3964ZM42.0845 18.8538C42.4009 18.8538 42.5929 18.6843 42.5929 18.4358V18.4245C42.5929 18.1421 42.4009 17.9952 42.0732 17.9952H41.418V18.8538H42.0845Z" fill="#F0F0F0"/>
<path d="M43.8564 17.3982H46.1047V17.9857H44.5004V18.5958H45.9126V19.1832H44.5004V19.8159H46.1273V20.4034H43.8564V17.3982Z" fill="#F0F0F0"/>
<path d="M46.7144 17.3969H47.878C48.7028 17.3404 49.4032 17.9618 49.4597 18.7865C49.4597 18.8204 49.4597 18.8543 49.4597 18.8882V18.8995C49.4597 19.7242 48.7931 20.3908 47.9684 20.4021C47.9345 20.4021 47.9006 20.4021 47.878 20.4021H46.7144V17.3969ZM47.878 19.792C48.3525 19.8146 48.748 19.4644 48.7818 18.9899C48.7818 18.956 48.7818 18.9334 48.7818 18.8995V18.8882C48.8044 18.4137 48.4429 18.007 47.9684 17.9844C47.9345 17.9844 47.9119 17.9844 47.878 17.9844H47.3696V19.7807L47.878 19.792Z" fill="#F0F0F0"/>
<path d="M5.43269 15.0601C5.43269 21.8952 12.0984 25.3636 14.9567 26.5386L15.0584 26.5838C15.2731 26.6855 15.5216 26.6855 15.725 26.5838L15.8266 26.5386C18.6963 25.3636 25.3507 21.8952 25.3507 15.0601V5.90887C25.3507 5.55864 25.1134 5.2536 24.7745 5.17451L15.5668 2.89236C15.4425 2.85847 15.3182 2.85847 15.2053 2.89236L5.99757 5.17451C5.65864 5.2536 5.42139 5.55864 5.42139 5.90887M23.8481 15.0601C23.8481 20.8784 18.0523 23.974 15.4086 25.0812C12.7536 23.974 6.96918 20.8784 6.96918 15.0601V6.49635L15.4086 4.40626L23.8481 6.49635V15.0601Z" fill="#F0F0F0"/>
<path d="M15.3775 7.45947C13.6828 7.45947 12.3045 8.8378 12.3045 10.5325V11.2894C11.7057 11.3911 11.2764 11.8995 11.2764 12.4983V17.876C11.2764 18.5539 11.83 19.1075 12.5078 19.1075H18.3262C19.004 19.1075 19.5576 18.5539 19.5576 17.876V12.4983C19.5576 11.8769 19.0831 11.3572 18.473 11.2781V10.5212C18.4392 8.8265 17.0721 7.45947 15.3775 7.45947ZM15.3775 8.79261C16.3378 8.79261 17.1173 9.57216 17.1173 10.5325V11.2668H13.6489V10.5325C13.6376 9.57216 14.4171 8.79261 15.3775 8.79261ZM18.2019 17.763H12.6095V12.6113H18.2019V17.763ZM16.462 13.5151L17.3885 14.4415L15.9875 15.8424L15.0611 16.7688L14.1347 15.8424L13.4229 15.1307L14.3494 14.2042L15.0611 14.916L16.462 13.5151Z" fill="#F0F0F0"/>
</svg>
