<svg width="25" height="25" viewBox="0 0 25 25" fill="none" xmlns="http://www.w3.org/2000/svg">
<g clip-path="url(#clip0_26_10505)">
<rect x="0.5" y="0.599976" width="24" height="24" rx="8" fill="#FF0000"/>
<path d="M19.1752 9.29896C19.0185 8.70987 18.5549 8.24514 17.9652 8.08587C16.8988 7.80005 12.6203 7.80005 12.6203 7.80005C12.6203 7.80005 8.34391 7.80005 7.27537 8.08587C6.68778 8.24296 6.22423 8.70769 6.06536 9.29896C5.78027 10.368 5.78027 12.6 5.78027 12.6C5.78027 12.6 5.78027 14.832 6.06536 15.9011C6.22206 16.4902 6.6856 16.955 7.27537 17.1142C8.34391 17.4 12.6203 17.4 12.6203 17.4C12.6203 17.4 16.8988 17.4 17.9652 17.1142C18.5528 16.9571 19.0163 16.4924 19.1752 15.9011C19.4603 14.832 19.4603 12.6 19.4603 12.6C19.4603 12.6 19.4603 10.368 19.1752 9.29896Z" fill="white"/>
<path d="M11.2536 14.6575L14.8074 12.6L11.2536 10.5426V14.6575Z" fill="#FF0000"/>
</g>
<defs>
<clipPath id="clip0_26_10505">
<rect x="0.5" y="0.599976" width="24" height="24" rx="8" fill="white"/>
</clipPath>
</defs>
</svg>
