<svg width="70" height="48" viewBox="0 0 70 48" fill="none" xmlns="http://www.w3.org/2000/svg">
<path fill-rule="evenodd" clip-rule="evenodd" d="M43.208 33.2882C43.6021 32.2876 44.4791 30.0453 44.0621 29.5019H44.0651C43.6499 28.9574 41.3192 29.2432 40.2709 29.3717L40.2686 29.372C39.9497 29.4111 39.9006 29.1277 40.1874 28.9226C42.0488 27.5869 45.0986 27.969 45.4528 28.4199C45.807 28.8709 45.3562 31.9932 43.6128 33.4839C43.3445 33.7125 43.0884 33.5904 43.208 33.2882ZM30.6823 34.8321C34.7364 34.8321 39.4575 33.5247 42.7096 31.0741V31.0788C43.2478 30.6654 42.7863 30.0579 42.2374 30.2959C38.6875 31.825 34.8769 32.6232 31.0242 32.6446C25.679 32.6446 20.5086 31.1477 16.3257 28.6627C15.9593 28.445 15.6863 28.8287 15.993 29.1089C20.02 32.8193 25.2585 34.8604 30.6823 34.8321Z" fill="#F0F0F0"/>
<path fill-rule="evenodd" clip-rule="evenodd" d="M57.1924 27.4947H58.9189H58.9205C59.1011 27.4982 59.2511 27.3533 59.2578 27.169V22.2825C59.2578 21.6688 59.29 21.1145 59.5323 20.5603C59.6986 20.1387 60.0904 19.8548 60.5351 19.8338C61.6394 19.8338 61.6288 21.0695 61.6205 22.0403C61.6198 22.1222 61.6191 22.2022 61.6191 22.2794V27.2097C61.6405 27.3679 61.7696 27.4878 61.9258 27.4947H63.6676C63.8328 27.4982 63.9751 27.3764 64.0004 27.2097V21.4966C64.0004 20.6182 64.0004 19.3954 63.548 18.669C63.0589 17.8861 62.3014 17.5996 61.5256 17.5996C60.3296 17.5996 59.6503 18.1914 59.1658 19.433H59.1321V18.0443C59.0971 17.8991 58.9717 17.7954 58.8254 17.7906H57.2185C57.0487 17.7864 56.904 17.9157 56.8857 18.0881V27.169C56.8879 27.3431 57.0221 27.4856 57.1924 27.4947ZM55.5663 22.7318C55.5663 19.8666 54.1756 17.6121 51.6042 17.6121C49.0987 17.6121 47.708 19.8291 47.708 22.6363C47.708 25.4436 49.0819 27.6981 51.6042 27.6981C54.033 27.6981 55.5663 25.5015 55.5663 22.7318ZM50.2625 22.3501C50.2625 21.2415 50.3438 19.4658 51.621 19.4658C52.1699 19.4658 52.5579 19.7179 52.7526 20.3443C52.9795 21.0692 53.0117 21.9868 53.0117 22.751C53.0117 23.916 52.9611 25.8263 51.6041 25.8263C50.262 25.8263 50.2623 23.5101 50.2625 22.3869L50.2625 22.3501ZM17.8643 27.5136H19.5954H19.5969C19.6838 27.5156 19.7679 27.4822 19.8307 27.4208C19.8934 27.3594 19.9296 27.275 19.9312 27.1863V22.3749L19.9312 22.2996C19.9305 21.2535 19.9295 19.8699 21.1272 19.8699C22.2344 19.8699 22.2173 21.0856 22.2035 22.0673V22.0673V22.0674V22.0674V22.0675C22.202 22.1733 22.2005 22.2764 22.2005 22.3749V27.1878C22.2035 27.3616 22.3372 27.5037 22.5072 27.5136H24.2429C24.3295 27.5152 24.4133 27.4816 24.4757 27.4203C24.5381 27.3589 24.574 27.2747 24.5756 27.1863V22.3749L24.5755 22.2606C24.5744 21.7508 24.573 21.0629 24.7382 20.6355C24.9066 20.1986 25.3136 19.9061 25.7732 19.8918C26.2746 19.8918 26.6625 20.064 26.7913 20.6746C26.857 20.9685 26.8485 21.6498 26.8429 22.1016C26.8415 22.2082 26.8404 22.302 26.8404 22.3749V27.1878C26.8426 27.3619 26.9767 27.5044 27.147 27.5136H28.8782C28.965 27.5156 29.0492 27.4822 29.1119 27.4208C29.1746 27.3594 29.2108 27.275 29.2124 27.1863V21.4575C29.2124 21.3179 29.2148 21.1752 29.2172 21.031L29.2172 21.0307C29.2313 20.1754 29.2464 19.2648 28.7754 18.6111C28.2045 17.8695 27.2862 17.5 26.3733 17.6444C25.4604 17.7887 24.6947 18.4246 24.3702 19.3078C23.8841 18.1602 23.1895 17.6263 22.1223 17.6263C21.0551 17.6263 20.2624 18.1602 19.8423 19.3078H19.8101V18.1226C19.8009 17.9537 19.6688 17.8188 19.5034 17.8094H17.8888C17.7105 17.8077 17.5634 17.9516 17.5576 18.1335V27.2144C17.5733 27.3778 17.7037 27.505 17.8643 27.5136ZM14.8509 27.5824C14.7369 27.6833 14.573 27.7003 14.4415 27.6246C13.9509 27.2078 13.803 26.9825 13.5758 26.6365L13.5758 26.6365C13.5368 26.577 13.4953 26.5139 13.4494 26.4457C12.4972 27.4352 11.8241 27.7311 10.5929 27.7311C9.13466 27.7311 8 26.8121 8 24.974C8 23.5382 8.76666 22.5628 9.83999 22.0837C10.6326 21.7286 11.69 21.6184 12.6043 21.5231C12.7743 21.5053 12.9393 21.4881 13.0968 21.47V21.2414C13.0968 21.1978 13.0971 21.1533 13.0975 21.1082C13.1005 20.7185 13.1039 20.2845 12.8867 19.9575C12.6751 19.6319 12.2734 19.4988 11.9146 19.4988C11.2537 19.4988 10.6649 19.8448 10.5208 20.5603C10.5025 20.7272 10.3767 20.8608 10.2141 20.886L8.54893 20.6997C8.46584 20.6875 8.39125 20.6411 8.34258 20.5713C8.2939 20.5015 8.27537 20.4143 8.29133 20.3302C8.6762 18.251 10.5162 17.6231 12.1645 17.6231C13.0078 17.6231 14.1088 17.8517 14.7712 18.503C15.5488 19.2464 15.5439 20.2196 15.5387 21.2831C15.5383 21.3709 15.5378 21.4593 15.5378 21.5483V24.3023C15.5378 25.044 15.8073 25.4129 16.0912 25.8016C16.1249 25.8477 16.1589 25.8942 16.1926 25.9415C16.303 26.0981 16.3275 26.2938 16.1926 26.4112C15.8384 26.7134 15.2097 27.2708 14.8647 27.5855L14.8509 27.5824ZM13.1044 23.2705L13.1045 23.3563C13.1051 24.0076 13.1056 24.5599 12.7809 25.1495C12.5049 25.6475 12.0679 25.9544 11.5803 25.9544C10.9164 25.9544 10.5284 25.4377 10.5284 24.6704C10.5284 23.164 11.8517 22.89 13.1044 22.89V23.2705ZM38.7939 25.7952C38.8277 25.8414 38.8617 25.8879 38.8954 25.9354C39.0119 26.0982 39.0365 26.2892 38.8877 26.3972C38.5335 26.6994 37.9049 27.2583 37.5599 27.5715C37.4451 27.6711 37.2819 27.6873 37.1505 27.6122C36.6578 27.1936 36.5118 26.9716 36.2814 26.6211L36.2811 26.6207C36.2427 26.5623 36.202 26.5003 36.1569 26.4332C35.2062 27.4227 34.5285 27.7187 33.3018 27.7187C31.8436 27.7187 30.709 26.7996 30.709 24.9631C30.709 23.5258 31.471 22.5504 32.5566 22.0713C33.3509 21.7148 34.4143 21.6051 35.3313 21.5105C35.4976 21.4933 35.6592 21.4767 35.8134 21.4591V21.2352C35.8134 21.1918 35.8138 21.1476 35.8141 21.1027C35.8171 20.7128 35.8205 20.2787 35.6018 19.9529C35.3964 19.6273 34.987 19.4926 34.6297 19.4926C33.9688 19.4926 33.3831 19.8386 33.2374 20.5541C33.2187 20.7208 33.0931 20.8541 32.9308 20.8798L31.2518 20.6951C31.1681 20.6833 31.0928 20.6369 31.0438 20.5666C30.9947 20.4964 30.9762 20.4086 30.9926 20.324C31.379 18.2432 33.219 17.6169 34.8674 17.6169C35.7092 17.6169 36.8101 17.8455 37.474 18.4969C38.2532 19.2364 38.2477 20.202 38.2417 21.2601C38.2412 21.3534 38.2407 21.4474 38.2407 21.5421V24.2977C38.2407 25.0378 38.5101 25.4066 38.7939 25.7952ZM34.2921 25.9451C34.7782 25.9451 35.2167 25.6382 35.4912 25.1418C35.817 24.549 35.8167 23.9941 35.8163 23.3346L35.8162 23.2644V22.8823C34.5635 22.8823 33.2402 23.1548 33.2402 24.6627C33.2402 25.4284 33.6282 25.9451 34.2921 25.9451ZM40.3608 18.1022V19.3954C40.3599 19.4841 40.3946 19.5694 40.4569 19.6312C40.5192 19.693 40.6036 19.7261 40.6904 19.7227H43.6712L40.2534 24.7328C40.0974 25.0016 40.0237 25.3118 40.0418 25.6237V26.9467C40.0418 27.1377 40.2488 27.3553 40.4466 27.2473C42.3317 26.2492 44.5733 26.2452 46.4619 27.2363C46.6781 27.3506 46.882 27.1299 46.882 26.9388V25.5485C46.8762 25.3359 46.7591 25.1429 46.5753 25.0428C45.5802 24.4713 44.4225 24.3038 43.3277 24.3304L46.2779 20.0311C46.5523 19.6459 46.7057 19.4017 46.7057 19.2154V18.1022C46.7065 18.0138 46.672 17.9288 46.61 17.867C46.5481 17.8052 46.4641 17.772 46.3775 17.775H40.6843C40.5976 17.77 40.513 17.8028 40.4513 17.8651C40.3896 17.9275 40.3567 18.0136 40.3608 18.1022Z" fill="#F0F0F0"/>
</svg>
