<svg width="70" height="48" viewBox="0 0 70 48" fill="none" xmlns="http://www.w3.org/2000/svg">
<path fill-rule="evenodd" clip-rule="evenodd" d="M15.6924 17.8642C16.6325 17.9435 17.5726 17.3884 18.1601 16.6846C18.7379 15.961 19.1198 14.9896 19.0219 13.9983C18.1895 14.0379 17.1613 14.5534 16.5737 15.277C16.0352 15.9015 15.5749 16.9126 15.6924 17.8642ZM26.875 30.6297V15.1777H32.6036C35.561 15.1777 37.6272 17.2393 37.6272 20.2524C37.6272 23.2655 35.5218 25.3469 32.5253 25.3469H29.2448V30.6297H26.875ZM19.012 18.0521C18.1838 18.0038 17.4281 18.3042 16.8177 18.5468C16.4249 18.7029 16.0923 18.8351 15.8392 18.8351C15.5552 18.8351 15.2089 18.6958 14.82 18.5394C14.3104 18.3345 13.7278 18.1003 13.1169 18.1115C11.7166 18.1314 10.4142 18.9342 9.69932 20.2128C8.23044 22.7699 9.31741 26.5561 10.7373 28.6375C11.4326 29.6683 12.265 30.7982 13.3617 30.7586C13.8442 30.7401 14.1913 30.5911 14.5505 30.4368C14.9641 30.2592 15.3937 30.0747 16.0645 30.0747C16.712 30.0747 17.1228 30.2544 17.5172 30.4269C17.8921 30.5909 18.2522 30.7484 18.7868 30.7387C19.9227 30.7189 20.6376 29.7079 21.3328 28.6771C22.0831 27.5708 22.4129 26.4911 22.4629 26.3273L22.4688 26.3083C22.4676 26.3071 22.4583 26.3028 22.4421 26.2953L22.442 26.2952L22.4419 26.2952C22.1911 26.179 20.274 25.2907 20.2557 22.9087C20.2372 20.9093 21.7762 19.8963 22.0185 19.7369C22.0332 19.7272 22.0432 19.7206 22.0477 19.7172C21.0684 18.2503 19.5408 18.0917 19.012 18.0521ZM41.9556 30.7487C43.444 30.7487 44.8248 29.9855 45.4515 28.7763H45.5005V30.6298H47.694V22.9385C47.694 20.7084 45.9314 19.2712 43.2188 19.2712C40.7021 19.2712 38.8416 20.7282 38.773 22.7303H40.9078C41.0841 21.7788 41.9556 21.1544 43.1503 21.1544C44.5996 21.1544 45.4123 21.8383 45.4123 23.0971V23.9494L42.455 24.1279C39.7033 24.2963 38.2148 25.4362 38.2148 27.4185C38.2148 29.4206 39.7523 30.7487 41.9556 30.7487ZM42.5924 28.9154C41.3292 28.9154 40.5262 28.3008 40.5262 27.3591C40.5262 26.3877 41.2998 25.8227 42.7785 25.7335L45.4127 25.565V26.4373C45.4127 27.8845 44.1984 28.9154 42.5924 28.9154ZM54.9706 31.2344C54.0207 33.9402 52.9337 34.8322 50.6227 34.8322C50.4464 34.8322 49.8589 34.8124 49.7218 34.7728V32.9193C49.8687 32.9391 50.231 32.959 50.4171 32.959C51.4649 32.959 52.0524 32.5129 52.4147 31.3533L52.6302 30.6694L48.6152 19.4199H51.0927L53.8836 28.5484H53.9326L56.7234 19.4199H59.1324L54.9706 31.2344ZM29.2451 17.1997H31.9772C34.0336 17.1997 35.2087 18.3099 35.2087 20.2627C35.2087 22.2155 34.0336 23.3356 31.9674 23.3356H29.2451V17.1997Z" fill="#F0F0F0"/>
</svg>
