<svg width="70" height="48" viewBox="0 0 70 48" fill="none" xmlns="http://www.w3.org/2000/svg">
<path fill-rule="evenodd" clip-rule="evenodd" d="M60.3707 19.2195C62.5438 19.2195 63.739 20.1865 63.739 22.013C63.8477 23.4097 62.8698 24.5916 61.5659 24.8064L64.4996 28.7818H62.2178L59.7188 24.9139H59.5014V28.7818H57.6543V19.2195H60.3707ZM59.501 23.6249H60.0443C61.2395 23.6249 61.7827 23.0876 61.7827 22.1205C61.7827 21.2609 61.2395 20.7236 60.0443 20.7236H59.501V23.6249ZM51.244 28.7818H56.4595V27.1702H53.0912V24.5916H56.3508V22.9799H53.0912V20.8311H56.4595V19.2195H51.244V28.7818V28.7818ZM45.8112 25.666L43.3122 19.2195H41.3564L45.3766 28.9967H46.3545L50.3748 19.2195H48.419L45.8112 25.666V25.666ZM23.7541 24.0544C23.7541 26.7404 25.9273 28.9967 28.6436 28.9967C29.5129 28.9967 30.2735 28.7818 31.0341 28.4595V26.3106C30.4908 26.9553 29.7302 27.385 28.861 27.385C27.1225 27.385 25.7099 26.0958 25.7099 24.3767V24.1618C25.6013 22.4427 27.0138 20.9386 28.7523 20.8311C29.6215 20.8311 30.4908 21.2609 31.0341 21.9055V19.7567C30.3821 19.3269 29.5129 19.2195 28.7523 19.2195C25.9273 19.0046 23.7541 21.2609 23.7541 24.0544V24.0544ZM20.3858 22.8725C19.2993 22.4427 18.9733 22.2278 18.9733 21.6906C19.082 21.046 19.6252 20.5088 20.2772 20.6162C20.8204 20.6162 21.3637 20.9385 21.7983 21.3683L22.7762 20.079C22.0157 19.4344 21.0378 19.0046 20.0599 19.0046C18.5387 18.8971 17.2348 20.079 17.1262 21.5832V21.6906C17.1262 22.9799 17.6694 23.732 19.4079 24.2692C19.8425 24.3767 20.2772 24.5915 20.7118 24.8064C21.0378 25.0213 21.2551 25.3436 21.2551 25.7734C21.2551 26.5255 20.6031 27.1701 19.9512 27.1701H19.8425C18.9733 27.1701 18.2127 26.6329 17.8867 25.8808L16.6915 27.0627C17.3435 28.2446 18.6473 28.8892 19.9512 28.8892C21.6897 28.9966 23.1022 27.7074 23.2109 25.9883V25.666C23.1022 24.3767 22.5589 23.732 20.3858 22.8725V22.8725ZM14.0838 28.7818H15.9309V19.2195H14.0838V28.7818V28.7818ZM5.5 19.2195H8.21639H8.75967C11.3674 19.327 13.4319 21.4758 13.3232 24.0544C13.3232 25.4511 12.6713 26.7404 11.5847 27.7074C10.6068 28.4595 9.4116 28.8892 8.21639 28.7818H5.5V19.2195ZM7.88996 27.1709C8.7592 27.2784 9.7371 26.956 10.389 26.4188C11.041 25.774 11.3669 24.9144 11.3669 23.9473C11.3669 23.0877 11.041 22.2281 10.389 21.5833C9.7371 21.0461 8.7592 20.7237 7.88996 20.8312H7.34668V27.1709H7.88996Z" fill="#F0F0F0"/>
<path fill-rule="evenodd" clip-rule="evenodd" d="M36.5763 18.9978C33.8599 18.9978 31.5781 21.1466 31.5781 23.9401C31.5781 26.6261 33.7512 28.8824 36.5763 28.9899C39.4013 29.0973 41.5744 26.841 41.6831 24.0476C41.5744 21.2541 39.4013 18.9978 36.5763 18.9978V18.9978Z" fill="#F0F0F0"/>
</svg>
