<svg width="70" height="48" viewBox="0 0 70 48" fill="none" xmlns="http://www.w3.org/2000/svg">
<path d="M22.8358 24.9119C22.2745 27.6169 19.8379 29.651 16.9174 29.651C16.2474 29.651 15.6024 29.5436 15.0006 29.3457L13.6592 33.2812C14.6829 33.6177 15.7783 33.7997 16.9174 33.7997C21.8816 33.7997 26.0224 30.3408 26.9767 25.7444L22.8358 24.9119Z" fill="#F0F0F0"/>
<path fill-rule="evenodd" clip-rule="evenodd" d="M46.9049 16.0239V27.4032L48.9472 28.2217L47.981 30.4661L45.9614 29.6543C45.5073 29.4639 45.2 29.1738 44.9665 28.8462C44.7423 28.511 44.576 28.0528 44.576 27.4345V16.0239H46.9049ZM31.4158 24.4813C31.4665 21.2272 34.2381 18.6296 37.6012 18.6794C40.4556 18.7227 42.8207 20.6558 43.4419 23.2269L32.4019 27.7892C31.7606 26.8413 31.3961 25.7009 31.4158 24.4813ZM33.9418 24.938C33.9267 24.8014 33.916 24.6614 33.92 24.5201C33.9517 22.6027 35.5834 21.0727 37.5649 21.1045C38.6434 21.1184 39.6011 21.596 40.2484 22.3351L33.9418 24.938ZM40.016 27.0502C39.3507 27.676 38.4484 28.0574 37.4521 28.0437C36.7692 28.0326 36.1365 27.8349 35.5986 27.5055L34.2649 29.5604C35.1782 30.1187 36.2552 30.449 37.4163 30.4664C39.1063 30.4907 40.6467 29.8487 41.7668 28.7887L40.016 27.0502ZM55.4047 21.1047C55.0069 21.1047 54.6246 21.1669 54.2674 21.2828L53.4727 18.9801C54.0793 18.7843 54.7288 18.6779 55.4047 18.6779C58.3544 18.6779 60.8151 20.704 61.3794 23.3955L58.9194 23.8804C58.5879 22.2964 57.1403 21.1047 55.4047 21.1047ZM51.3661 28.9872L53.0283 27.1698C52.2859 26.5343 51.8184 25.6062 51.8184 24.5717C51.8184 23.5383 52.2859 22.6106 53.0276 21.9756L51.3642 20.1582C50.1031 21.238 49.3086 22.8159 49.3086 24.5717C49.3086 26.3297 50.1037 27.907 51.3661 28.9872ZM55.4046 28.0407C57.1386 28.0407 58.586 26.85 58.9194 25.2683L61.3786 25.7553C60.8116 28.4439 58.3516 30.4673 55.4046 30.4673C54.7281 30.4673 54.0778 30.3605 53.4696 30.1638L54.2662 27.8619C54.624 27.9775 55.0065 28.0407 55.4046 28.0407Z" fill="#F0F0F0"/>
<path d="M10.0688 31.5777L12.5489 28.3757C11.4419 27.2561 10.7432 25.6215 10.7432 23.7995C10.7432 21.9789 11.4412 20.3443 12.548 19.2255L10.0665 16.0239C8.18543 17.9261 7 20.7047 7 23.7995C7 26.8959 8.18716 29.6755 10.0688 31.5777" fill="#F0F0F0"/>
<path d="M14.9987 18.2521C15.6004 18.0549 16.2441 17.9478 16.9139 17.9478C19.8369 17.9478 22.2752 19.9844 22.8345 22.6899L26.9767 21.8614C26.0262 17.2633 21.8826 13.802 16.9139 13.802C15.7763 13.802 14.6813 13.9838 13.6592 14.3186L14.9987 18.2521Z" fill="#F0F0F0"/>
</svg>
