<svg width="70" height="48" viewBox="0 0 70 48" fill="none" xmlns="http://www.w3.org/2000/svg">
<path fill-rule="evenodd" clip-rule="evenodd" d="M32.0603 31.5125V25.4713H35.1786C36.4564 25.4713 37.535 25.0432 38.4142 24.1988L38.6252 23.9848C40.2313 22.2366 40.1258 19.5133 38.4142 17.896C37.5584 17.0398 36.3861 16.576 35.1786 16.5997H30.1729V31.5125H32.0603ZM32.0605 23.6405V18.4311H35.2262C35.9063 18.4311 36.5512 18.6928 37.0319 19.1685C38.052 20.1676 38.0754 21.8327 37.0905 22.8674C36.6098 23.3788 35.9297 23.6643 35.2262 23.6405H32.0605ZM47.4296 22.1058C46.6207 21.3566 45.5187 20.9761 44.1237 20.9761C42.33 20.9761 40.9819 21.642 40.0909 22.9621L41.7556 24.0205C42.3652 23.1167 43.1976 22.6648 44.2526 22.6648C44.9209 22.6648 45.5656 22.9145 46.0697 23.3664C46.5621 23.7945 46.8434 24.4129 46.8434 25.067V25.507C46.1166 25.1026 45.2022 24.8886 44.0768 24.8886C42.7638 24.8886 41.7087 25.1978 40.9233 25.8281C40.1378 26.4584 39.7392 27.2908 39.7392 28.3492C39.7158 29.3125 40.1261 30.2282 40.8529 30.8466C41.5915 31.5125 42.5293 31.8455 43.6313 31.8455C44.9326 31.8455 45.9642 31.2628 46.7497 30.0974H46.8317V31.5125H48.6371V25.2216C48.6371 23.9015 48.2385 22.855 47.4296 22.1058ZM42.3069 29.6339C41.92 29.3485 41.6855 28.8846 41.6855 28.3851C41.6855 27.8261 41.9435 27.3623 42.4476 26.9936C42.9635 26.6249 43.6084 26.4346 44.3705 26.4346C45.4258 26.4227 46.2465 26.6605 46.8328 27.1363C46.8328 27.945 46.5162 28.6468 45.8948 29.2414C45.332 29.8123 44.5698 30.1334 43.7725 30.1334C43.2449 30.1453 42.729 29.9669 42.3069 29.6339ZM52.693 35.9959L59.0001 21.3091H56.9485L54.0295 28.6346H53.9943L51.0049 21.3091H48.9534L53.0916 30.8584L50.747 35.9959H52.693Z" fill="#F0F0F0"/>
<path d="M25.544 24.1632C25.544 23.5804 25.4971 22.9976 25.4034 22.4268H17.4434V25.7213H22.0037C21.8161 26.7798 21.2065 27.7313 20.3155 28.3259V30.4668H23.0353C24.6296 28.9801 25.544 26.7798 25.544 24.1632Z" fill="#F0F0F0"/>
<path d="M17.4442 32.5358C19.7185 32.5358 21.6411 31.7746 23.0361 30.4663L20.3164 28.3255C19.5544 28.8488 18.5814 29.1461 17.4442 29.1461C15.2403 29.1461 13.3763 27.6357 12.7081 25.6138H9.90625V27.826C11.3365 30.7161 14.2555 32.5358 17.4442 32.5358Z" fill="#F0F0F0"/>
<path d="M12.708 25.6145C12.3563 24.556 12.3563 23.4023 12.708 22.3319V20.1316H9.90575C8.69808 22.546 8.69808 25.4004 9.90575 27.8148L12.708 25.6145Z" fill="#F0F0F0"/>
<path d="M17.4442 18.8001C18.6517 18.7763 19.8123 19.2401 20.6798 20.0846L23.0948 17.6345C21.559 16.1835 19.5427 15.3866 17.4442 15.4104C14.2555 15.4104 11.3365 17.242 9.90625 20.1322L12.7081 22.3444C13.3763 20.3106 15.2403 18.8001 17.4442 18.8001Z" fill="#F0F0F0"/>
</svg>
