<svg width="70" height="48" viewBox="0 0 70 48" fill="none" xmlns="http://www.w3.org/2000/svg">
<path fill-rule="evenodd" clip-rule="evenodd" d="M20.0264 9.9165H36.6837C48.0028 9.9165 52.3525 16.1017 52.3525 23.9197C52.3525 33.2717 46.2728 37.9725 36.6837 37.9725H20.0264V9.9165ZM21.6084 11.599V36.3892H36.684C45.7788 36.3892 50.7217 32.1338 50.7217 23.9693C50.7217 15.5575 45.3834 11.599 36.684 11.599H21.6084ZM26.0561 24.4151C27.7214 24.4151 29.0713 23.0636 29.0713 21.3964C29.0713 19.7292 27.7214 18.3777 26.0561 18.3777C24.3909 18.3777 23.041 19.7292 23.041 21.3964C23.041 23.0636 24.3909 24.4151 26.0561 24.4151ZM23.6348 25.7009H28.4787V34.3117H23.6348V25.7009Z" fill="#F0F0F0"/>
<path fill-rule="evenodd" clip-rule="evenodd" d="M45.2346 18.6252H46.6186V22.7816H48.6452C48.1014 15.2109 42.1206 13.5286 36.6835 13.5286H30.9004V18.6252H31.7407C33.3224 18.6252 34.2615 19.6643 34.2615 21.3961C34.2615 23.128 33.3224 24.1671 31.7901 24.1671H30.9004V34.3108H36.6835C45.5312 34.3108 48.5463 30.2038 48.6946 24.1671H45.2346V18.6252ZM38.5618 22.7821V24.1677H35.1018V18.6252H38.4629V20.0108H36.4858V20.6541H38.3641V22.0398H36.5352V22.7821H38.5618ZM39.1543 24.1678L40.8349 18.6252H42.812L44.4926 24.1678H43.0591L42.7626 23.1286H40.9337L40.6371 24.1678H39.1543ZM41.3455 21.6933H41.3301V21.7428L41.3455 21.6933ZM41.3455 21.6933H42.3186L41.8738 20.1592H41.8244L41.3455 21.6933ZM30.9004 22.7819V20.0106H31.7407C32.2844 20.0106 32.8775 20.1591 32.8775 21.3963C32.8775 22.6335 32.3338 22.7819 31.7407 22.7819H30.9004Z" fill="#F0F0F0"/>
</svg>
