<svg width="70" height="48" viewBox="0 0 70 48" fill="none" xmlns="http://www.w3.org/2000/svg">
<path fill-rule="evenodd" clip-rule="evenodd" d="M49.6205 39.4172C50.1333 38.9045 50.4213 38.2091 50.4213 37.4841L50.4194 10.1195C50.4194 9.39448 50.1314 8.69913 49.6187 8.18645C49.1059 7.67377 48.4105 7.38574 47.6853 7.38574H20.3183C19.959 7.38534 19.6031 7.45575 19.271 7.59295C18.9389 7.73015 18.6372 7.93146 18.383 8.18535C18.1287 8.43925 17.9271 8.74076 17.7895 9.07264C17.6519 9.40452 17.5811 9.76026 17.5811 10.1195V37.4841C17.5811 37.8433 17.6519 38.1991 17.7895 38.531C17.9271 38.8629 18.1287 39.1644 18.383 39.4183C18.6372 39.6722 18.9389 39.8735 19.271 40.0107C19.6031 40.1479 19.959 40.2183 20.3183 40.2179H47.6872C48.4123 40.2179 49.1078 39.9298 49.6205 39.4172ZM19.032 18.6922L19.0326 28.1231L20.7514 27.7161V18.2858L19.032 18.6922ZM18.8117 30.0556C18.9574 30.1425 19.1239 30.1886 19.2936 30.189C19.3584 30.1891 19.423 30.182 19.4862 30.1678C19.6105 30.1424 20.212 30.0051 20.7153 29.8839L20.7501 29.8758V28.1902L18.5318 28.714L18.5138 28.7183L18.5038 28.7314C18.4114 28.8737 18.3591 29.0383 18.3524 29.2078C18.3457 29.3774 18.3848 29.5456 18.4656 29.6948C18.5465 29.844 18.666 29.9686 18.8117 30.0556ZM18.6286 32.0708C18.8052 32.2467 19.0443 32.3456 19.2936 32.3456L19.2924 32.3487C19.3574 32.3488 19.4224 32.3425 19.4862 32.33C19.6105 32.3058 20.212 32.166 20.7153 32.0455L20.7501 32.0361V30.3505L18.5318 30.8743L18.5138 30.878L18.5038 30.8948C18.4036 31.0466 18.3506 31.2248 18.3516 31.4067C18.3524 31.656 18.452 31.8948 18.6286 32.0708ZM19.2936 34.5059C19.0437 34.5057 18.8041 34.4063 18.6275 34.2296C18.4508 34.0528 18.3516 33.8132 18.3516 33.5633C18.3506 33.3814 18.4036 33.2032 18.5038 33.0514L18.5138 33.034L20.7507 32.5071V34.1927L20.716 34.2014C20.2061 34.3243 19.6412 34.4522 19.5021 34.4838L19.4868 34.4872C19.4229 34.4994 19.3587 34.5057 19.2936 34.5059ZM22.9961 26.5872C23.1944 26.7807 23.3091 27.044 23.3158 27.321H23.3133C23.3133 27.7452 23.3167 30.5484 23.3182 31.7903L23.3189 32.3803C23.3173 32.4112 23.322 32.4421 23.3327 32.4712C23.3434 32.5002 23.36 32.5268 23.3813 32.5492C23.4026 32.5716 23.4282 32.5895 23.4567 32.6017C23.4851 32.614 23.5157 32.6203 23.5467 32.6203C23.5776 32.6203 23.6082 32.614 23.6367 32.6017C23.6651 32.5895 23.6908 32.5716 23.7121 32.5492C23.7334 32.5268 23.7499 32.5002 23.7606 32.4712C23.7713 32.4421 23.776 32.4112 23.7744 32.3803V28.2523L26.4513 30.0703C26.6415 30.1973 26.7974 30.3692 26.905 30.571C27.0127 30.7727 27.0688 30.9979 27.0684 31.2265V39.0048C27.0684 39.0048 24.8687 39.0085 24.0658 39.0085C23.3045 39.007 22.5747 38.7039 22.0364 38.1656C21.4981 37.6272 21.1951 36.8975 21.1938 36.1362V27.321C21.2005 27.044 21.3152 26.7807 21.5135 26.5872C21.7117 26.3937 21.9778 26.2854 22.2548 26.2854C22.5318 26.2854 22.7979 26.3937 22.9961 26.5872ZM24.7487 20.7444C24.4236 20.8195 24.1186 20.9638 23.8544 21.1675C23.5901 21.3713 23.373 21.6296 23.2176 21.9249V21.2644L21.6698 21.631V25.864C21.9413 25.7569 22.2371 25.7268 22.5246 25.7771C22.8121 25.8275 23.0801 25.9562 23.299 26.1492V23.4154C23.299 22.7611 23.6259 22.238 24.0907 22.1355C24.4418 22.0584 24.7338 22.1839 24.7338 22.8071V26.7953L26.3637 26.4126V22.1945C26.3637 21.1712 25.9716 20.4548 24.7487 20.7444ZM27.5779 24.3704C27.5779 25.695 27.8265 26.0678 27.8265 26.0678L29.5707 25.654C29.5707 25.654 29.2109 25.3937 29.2109 24.0386V21.0563L30.3642 20.7823V19.5769L29.2109 19.8503V18.5387L27.5785 18.9239V20.2386L26.7875 20.425V21.6297L27.5779 21.4434V24.3704ZM30.5345 22.5704C30.5345 21.5247 30.6836 20.7624 31.003 20.1771C31.3827 19.4825 32.0072 19.0302 32.9156 18.8233C34.7058 18.4163 35.3515 19.4763 35.326 20.8966C35.3179 21.4042 35.3198 21.6521 35.3198 21.6521L32.1656 22.3933V22.4443C32.1656 23.4384 32.3744 23.9087 33.0032 23.7745C33.5463 23.6602 33.6973 23.3197 33.7402 22.8997C33.7477 22.8307 33.7501 22.6586 33.7501 22.6586L35.2284 22.3045C35.2284 22.3045 35.2322 22.4256 35.2284 22.5605C35.2148 23.1252 35.0507 24.5257 32.997 25.0103C31.0521 25.472 30.5326 24.284 30.5326 22.5704H30.5345ZM32.1712 21.3986C32.1824 20.5493 32.4564 20.0367 32.979 19.918C33.5594 19.7863 33.7582 20.1243 33.7613 20.7649C33.7613 20.8966 33.7613 20.9823 33.7582 21.0209L32.1712 21.3986ZM35.9175 18.2765V24.156L37.54 23.7801V20.5337C37.54 19.7882 37.8258 19.2973 38.395 19.073C38.6498 18.966 38.9228 18.9091 39.1991 18.9053V17.4054C39.1991 17.4054 39.0562 17.3626 38.7722 17.434C37.8501 17.6695 37.453 18.6828 37.453 18.6828V17.913L35.9175 18.2765ZM39.3165 21.6384C39.3165 20.2765 40.1156 19.846 41.3168 19.3495C42.3961 18.9028 42.4191 18.681 42.4241 18.2933C42.4297 17.9671 42.2787 17.6869 41.7406 17.8242C41.2466 17.9485 41.1154 18.3076 41.0893 18.5934C41.0803 18.6938 41.0769 18.7946 41.0794 18.8953L39.5651 19.2526C39.5549 18.9508 39.5901 18.6492 39.6695 18.3579C39.9118 17.5434 40.6308 16.9954 41.8698 16.7089C43.4804 16.3361 44.0179 17.0444 44.0204 18.1442V20.7481C44.0204 22.0075 44.2541 22.1914 44.2541 22.1914L42.7671 22.5437C42.6849 22.3718 42.6179 22.193 42.567 22.0094C42.567 22.0094 42.242 22.8289 41.1198 23.0936C39.9392 23.3707 39.3178 22.6412 39.3178 21.6391L39.3165 21.6384ZM41.6237 20.2423C41.8999 20.11 42.1646 19.9552 42.4154 19.7795V20.599C42.4154 21.2222 42.0811 21.6714 41.5995 21.7919C41.1521 21.9037 40.9035 21.6415 40.9035 21.2433C40.9035 20.7835 41.1266 20.4853 41.6237 20.2423ZM47.1211 15.4663C45.1234 15.9199 44.6586 17.3414 44.7207 19.1321C44.7829 20.9674 45.1799 22.1374 47.2013 21.6627C48.6703 21.321 49.4538 20.384 49.4582 18.8978V18.6549L47.896 19.0227C47.896 19.0227 47.8917 19.2514 47.8917 19.3228C47.8805 19.7776 47.7997 20.2945 47.2081 20.4188C46.5277 20.5617 46.3724 20.0423 46.3724 18.9084V18.3883C46.3724 17.2725 46.611 16.712 47.2019 16.5635C47.699 16.4393 47.8854 16.7002 47.8854 17.3837V17.6018L49.4501 17.229V17.1221C49.4501 16.5449 49.3594 16.133 49.1239 15.8273C48.879 15.5073 48.3962 15.1768 47.1211 15.4663Z" fill="#F0F0F0"/>
</svg>
