<svg width="70" height="48" viewBox="0 0 70 48" fill="none" xmlns="http://www.w3.org/2000/svg">
<path d="M43.6362 24.3753C44.6635 24.3977 45.6967 24.33 46.72 24.4105C47.7562 24.6038 48.006 26.1724 47.0853 26.6861C46.4572 27.0245 45.711 26.8121 45.03 26.8718H43.6362V24.3753V24.3753ZM47.314 21.5496C47.5422 22.3552 46.7656 23.0785 45.9897 22.9675H43.6362C43.6527 22.2079 43.6039 21.3833 43.6601 20.6636C44.6029 20.6902 45.5544 20.6095 46.4917 20.7058C46.8945 20.807 47.2315 21.138 47.314 21.5496V21.5496ZM52.9779 9.60333C53.0217 11.1418 52.9842 12.7615 52.9968 14.3311C52.9939 20.7127 53.003 27.0941 52.9918 33.476C52.9505 35.8676 50.8307 37.9458 48.4553 37.9935C46.0777 38.0032 43.6996 37.995 41.3216 37.9976V28.35C43.9126 28.3367 46.5048 28.3772 49.0947 28.3298C50.2962 28.2544 51.6122 27.4618 51.6681 26.1398C51.8095 24.812 50.5576 23.8937 49.369 23.7486C48.9121 23.7368 48.9255 23.6155 49.369 23.5626C50.5027 23.3176 51.3929 22.1444 51.0594 20.9694C50.7751 19.7337 49.4091 19.2554 48.2729 19.2578C45.9562 19.242 43.639 19.2556 41.3222 19.251C41.3371 17.4499 41.291 15.6469 41.347 13.8471C41.5306 11.4986 43.7038 9.56192 46.0457 9.60394C48.3568 9.60359 50.6674 9.60359 52.9779 9.6035V9.60333Z" fill="#F0F0F0"/>
<path d="M15.1407 14.0905C15.1999 11.7027 17.3288 9.64158 19.7011 9.60669C22.0699 9.59939 24.4392 9.60563 26.808 9.60352C26.8015 17.5928 26.8209 25.5829 26.7983 33.5717C26.707 35.9305 24.6014 37.9524 22.2549 37.9941C19.8815 38.0027 17.5079 37.9954 15.1345 37.9977V28.0249C17.4399 28.5695 19.8575 28.8013 22.2094 28.4401C23.6152 28.2139 25.1534 27.5236 25.6294 26.0652C25.9796 24.8178 25.7824 23.5049 25.8345 22.2246V19.2512H21.7643C21.7461 21.2177 21.8018 23.1877 21.7349 25.1518C21.6252 26.3591 20.4294 27.1262 19.2907 27.0852C17.8784 27.1001 15.0798 26.0618 15.0798 26.0618C15.0728 22.3774 15.1208 17.7631 15.1407 14.0909V14.0905Z" fill="#F0F0F0"/>
<path d="M28.3261 20.4505C28.1119 20.4959 28.2831 19.7208 28.2283 19.4267C28.2429 17.5675 28.1978 15.7063 28.2532 13.8484C28.4362 11.49 30.6261 9.54848 32.9775 9.60369H39.9024C39.8959 17.5929 39.9151 25.5831 39.8926 33.5719C39.8013 35.9307 37.6955 37.9524 35.3489 37.9943C32.9755 38.0032 30.6018 37.9957 28.2282 37.998V27.0714C29.8493 28.4013 32.0525 28.6083 34.0721 28.6119C35.5946 28.6114 37.1082 28.3767 38.5867 28.0256V26.0238C36.9205 26.8542 34.9618 27.3816 33.1147 26.9045C31.8262 26.5839 30.8909 25.3388 30.9117 24.0092C30.7624 22.6266 31.573 21.1668 32.9319 20.7558C34.6191 20.2276 36.4579 20.6315 38.0394 21.3182C38.3782 21.4956 38.7221 21.7156 38.5867 21.1493V19.5759C35.9417 18.9467 33.1268 18.7151 30.4695 19.3996C29.7003 19.6166 28.951 19.9456 28.3261 20.4506V20.4505Z" fill="#F0F0F0"/>
</svg>
