<svg width="70" height="48" viewBox="0 0 70 48" fill="none" xmlns="http://www.w3.org/2000/svg">
<path fill-rule="evenodd" clip-rule="evenodd" d="M10.8483 31.1599H8V18.4021H10.8483V31.1599ZM17.9599 18.4021H15.1733C15.1733 20.7499 14.1233 22.9047 12.2925 24.3145L11.1885 25.1644L15.4661 31.1604H18.9831L15.0471 25.6432C16.9128 23.7334 17.9599 21.1641 17.9599 18.4021ZM22.5025 31.1564H19.8126V18.4045H22.5025V31.1564ZM30.6293 22.3354V22.8996C29.9035 22.3907 29.0275 22.0916 28.0826 22.0916C25.5819 22.0916 23.5547 24.1754 23.5547 26.746C23.5547 29.3167 25.5819 31.4005 28.0826 31.4005C29.0275 31.4005 29.9035 31.1014 30.6293 30.5926V31.1563H33.1986V22.3354H30.6293ZM30.6218 26.7464C30.6218 27.9999 29.5795 29.0162 28.2938 29.0162C27.0081 29.0162 25.9658 27.9999 25.9658 26.7464C25.9658 25.4928 27.0081 24.4768 28.2938 24.4768C29.5795 24.4768 30.6218 25.4928 30.6218 26.7464ZM57.734 22.8996V22.3354H60.3031V31.1563H57.734V30.5926C57.0081 31.1014 56.1321 31.4005 55.1871 31.4005C52.6864 31.4005 50.6592 29.3167 50.6592 26.746C50.6592 24.1754 52.6864 22.0916 55.1871 22.0916C56.1321 22.0916 57.0081 22.3907 57.734 22.8996ZM55.398 29.0162C56.6838 29.0162 57.726 27.9999 57.726 26.7463C57.726 25.4928 56.6838 24.4768 55.398 24.4768C54.1123 24.4768 53.0701 25.4928 53.0701 26.7463C53.0701 27.9999 54.1123 29.0162 55.398 29.0162ZM46.0937 22.0981C45.0674 22.0981 44.0962 22.4257 43.4468 23.3293V22.3359H40.8887V31.1564H43.4782V26.5209C43.4782 25.1795 44.3533 24.5227 45.4068 24.5227C46.536 24.5227 47.1851 25.2161 47.1851 26.5026V31.1564H49.7512V25.5469C49.7512 23.4942 48.1635 22.0981 46.0937 22.0981ZM37.1733 22.3356V23.4844C37.6883 22.7953 38.6479 22.3361 39.6912 22.3361V24.9028C39.6864 24.9028 39.6817 24.9025 39.677 24.9023C39.6716 24.902 39.6663 24.9017 39.6607 24.9017C38.6442 24.9017 37.1792 25.6486 37.1792 27.038V31.1564H34.5429V22.3356H37.1733ZM61.418 29.6854C61.418 28.7699 62.1398 28.0278 63.0301 28.0278C63.9205 28.0278 64.6424 28.7699 64.6424 29.6854C64.6424 30.6007 63.9205 31.3428 63.0301 31.3428C62.1398 31.3428 61.418 30.6007 61.418 29.6854Z" fill="#F0F0F0"/>
</svg>
