<svg width="70" height="48" viewBox="0 0 70 48" fill="none" xmlns="http://www.w3.org/2000/svg">
<path fill-rule="evenodd" clip-rule="evenodd" d="M35 34.5206C38.004 32.0029 39.9141 28.2231 39.9141 23.9972C39.9141 19.7713 38.004 15.9915 35 13.4738C37.3844 11.4754 40.4579 10.2722 43.8125 10.2722C51.3935 10.2722 57.5391 16.4171 57.5391 23.9972C57.5391 31.5773 51.3935 37.7222 43.8125 37.7222C40.4579 37.7222 37.3844 36.519 35 34.5206ZM35 34.5206C32.6156 36.519 29.5421 37.7222 26.1875 37.7222C18.6065 37.7222 12.4609 31.5773 12.4609 23.9972C12.4609 16.4171 18.6065 10.2722 26.1875 10.2722C29.5421 10.2722 32.6156 11.4754 35 13.4738C31.996 15.9915 30.0859 19.7713 30.0859 23.9972C30.0859 28.2231 31.996 32.0029 35 34.5206Z" fill="#F0F0F0"/>
</svg>
