<svg width="70" height="48" viewBox="0 0 70 48" fill="none" xmlns="http://www.w3.org/2000/svg">
<path fill-rule="evenodd" clip-rule="evenodd" d="M15.6403 16.052C21.4989 16.052 26.2479 19.1675 26.2479 22.989V23.396C26.2479 27.4509 22.1352 30.7335 15.6391 30.7335C9.18307 30.7335 5.03223 27.4497 5.03223 23.3954C5.03223 23.3826 5.03239 23.3368 5.0326 23.2794C5.03295 23.1821 5.03342 23.0512 5.03342 22.989C5.03342 19.1675 9.78236 16.052 15.6403 16.052ZM15.6436 29.5106C21.2765 29.5106 25.8428 26.5897 25.8428 22.9867C25.8428 19.383 21.2765 16.4621 15.6436 16.4621C10.0106 16.4621 5.44434 19.383 5.44434 22.9867C5.44434 26.5897 10.0106 29.5106 15.6436 29.5106Z" fill="#F0F0F0"/>
<path d="M14.8578 27.3993C14.4095 27.3987 14.0448 27.0501 14.0281 26.6067C14.0275 26.5685 14.0233 26.467 13.938 26.467C13.9021 26.467 13.8717 26.4885 13.8365 26.5201C13.738 26.6115 13.6126 26.7046 13.4294 26.7046C13.3458 26.7046 13.2557 26.6849 13.1608 26.6461C12.6869 26.4545 12.6803 26.1292 12.6994 25.9985C12.7048 25.9633 12.7066 25.9269 12.6827 25.8988L12.6534 25.8732H12.6242C12.6003 25.8732 12.5752 25.8827 12.5418 25.9066C12.4045 26.0027 12.2732 26.0492 12.1395 26.0492C12.0661 26.0492 11.9909 26.0343 11.9151 26.0051C11.2919 25.7628 11.3414 25.1743 11.3719 24.9976C11.3761 24.9612 11.3671 24.9338 11.3444 24.9153L11.3003 24.8788L11.2591 24.9182C11.1379 25.0352 10.9785 25.0997 10.812 25.0997C10.4544 25.0991 10.1638 24.809 10.1644 24.4521C10.1644 24.0946 10.4556 23.8051 10.8126 23.8051C11.1355 23.8051 11.4101 24.0481 11.4513 24.3703L11.4734 24.544L11.5689 24.3972C11.5796 24.3799 11.841 23.9842 12.3221 23.9848C12.4135 23.9848 12.5078 23.9991 12.6033 24.029C12.9865 24.1459 13.0516 24.4933 13.0617 24.6383C13.0683 24.7225 13.1286 24.7267 13.1405 24.7267C13.1733 24.7267 13.1978 24.7058 13.2151 24.6873C13.2873 24.6121 13.4449 24.4867 13.6914 24.4867C13.8043 24.4867 13.9248 24.5136 14.0484 24.5667C14.6578 24.8281 14.3815 25.6022 14.3785 25.6106C14.3259 25.7389 14.3236 25.7956 14.3731 25.8284L14.397 25.8397H14.4149C14.4423 25.8397 14.4764 25.8278 14.5325 25.8087C14.6154 25.7801 14.7408 25.7371 14.8578 25.7371H14.8584C15.3168 25.7425 15.6899 26.1155 15.6899 26.5691C15.6893 27.0268 15.3162 27.3993 14.8578 27.3993ZM21.3139 23.6679C20.3075 22.7899 17.982 20.7685 17.3522 20.2952C16.9923 20.0248 16.747 19.8816 16.5315 19.8177C16.4348 19.7885 16.3005 19.755 16.128 19.755C15.968 19.755 15.7961 19.7837 15.6164 19.841C15.2094 19.9699 14.8041 20.2922 14.4113 20.6037L14.391 20.6199C14.0257 20.9105 13.6485 21.2107 13.3625 21.2746C13.2378 21.3026 13.1095 21.317 12.9817 21.317C12.6612 21.317 12.3741 21.2244 12.266 21.0872C12.2481 21.0639 12.2595 21.0275 12.3013 20.9744L12.3072 20.9672L13.1924 20.0135C13.8854 19.32 14.5402 18.6658 16.048 18.6312C16.0725 18.6306 16.0981 18.63 16.1232 18.63C17.0615 18.6306 17.9993 19.0508 18.1043 19.0991C18.9842 19.5283 19.8926 19.7461 20.8053 19.7467C21.7568 19.7473 22.7387 19.5115 23.7707 19.0365C23.6555 18.9398 23.5355 18.8455 23.412 18.753C22.5053 19.1457 21.6416 19.3444 20.8083 19.3444C19.9565 19.3432 19.1065 19.1391 18.2804 18.7363C18.2368 18.7154 17.2012 18.2272 16.1232 18.2266C16.0952 18.2266 16.0665 18.2272 16.0385 18.2278C14.7724 18.257 14.0591 18.707 13.5792 19.1009C13.113 19.1123 12.7101 19.2245 12.3526 19.3247C12.0327 19.4131 11.7569 19.4901 11.4877 19.4901C11.3767 19.4901 11.1773 19.4799 11.1594 19.4793C10.8502 19.4698 9.29049 19.0878 8.05013 18.6181C7.92359 18.7076 7.80182 18.8001 7.68304 18.8944C8.97891 19.4256 10.5559 19.8362 11.0537 19.8684C11.1922 19.878 11.3396 19.8935 11.4871 19.8935C11.8166 19.8935 12.1449 19.8016 12.463 19.7127C12.6504 19.6596 12.8576 19.6023 13.076 19.5605C13.0175 19.6178 12.9596 19.6757 12.9011 19.7336L12.0022 20.7064C11.9312 20.778 11.7772 20.969 11.8787 21.2036C11.9192 21.2985 12.001 21.3892 12.1156 21.4662C12.3293 21.6106 12.7131 21.7079 13.0701 21.7085C13.205 21.7085 13.3333 21.6948 13.4509 21.6685C13.8275 21.5837 14.2233 21.2686 14.6423 20.9356C14.976 20.6706 15.4499 20.334 15.8134 20.2349C15.9149 20.2074 16.0396 20.1901 16.1393 20.1901C16.1692 20.1907 16.1978 20.1913 16.2241 20.1955C16.464 20.2254 16.6956 20.3071 17.1099 20.6181C17.8483 21.1725 21.1151 24.0302 21.1473 24.0588C21.1491 24.0606 21.3574 24.2396 21.3431 24.5387C21.3353 24.7052 21.2428 24.8532 21.0823 24.9558C20.9426 25.0442 20.7987 25.0889 20.6537 25.0889C20.4352 25.0889 20.2848 24.9863 20.2747 24.9797C20.2627 24.9696 19.1435 23.9436 18.7317 23.5986C18.666 23.5443 18.6021 23.4954 18.5377 23.4954C18.5036 23.4954 18.4732 23.5097 18.4523 23.536C18.3879 23.616 18.4601 23.7264 18.546 23.7992L19.8532 25.1128C19.855 25.1146 20.0162 25.2656 20.0335 25.4673C20.0443 25.6852 19.9398 25.8672 19.7231 26.0092C19.5691 26.1107 19.4127 26.1626 19.2599 26.1626C19.0594 26.1626 18.9179 26.0707 18.8869 26.0492L18.6994 25.8642C18.3568 25.527 18.0029 25.1785 17.7438 24.9624C17.6805 24.9099 17.6131 24.8615 17.5486 24.8615C17.517 24.8615 17.4883 24.8729 17.4662 24.8962C17.437 24.929 17.4161 24.9881 17.4901 25.0859C17.52 25.1259 17.5558 25.1594 17.5558 25.1594L18.5102 26.2313C18.518 26.2408 18.7066 26.4652 18.5317 26.6884L18.4977 26.7308C18.4696 26.7624 18.4386 26.7917 18.4093 26.8168C18.2464 26.9505 18.0291 26.9648 17.9432 26.9648C17.8972 26.9648 17.8524 26.9606 17.8142 26.9534C17.7199 26.9367 17.6566 26.9105 17.6256 26.8741L17.6143 26.8621C17.5623 26.8084 17.0812 26.3172 16.6831 25.9854C16.6312 25.9412 16.5655 25.8857 16.4981 25.8857C16.4646 25.8857 16.4348 25.8988 16.4115 25.9245C16.3327 26.0104 16.4509 26.1394 16.501 26.1871L17.3152 27.0841C17.314 27.0919 17.3039 27.1104 17.2842 27.139C17.2549 27.179 17.1564 27.2781 16.861 27.3151C16.8258 27.3199 16.7894 27.3217 16.7529 27.3217C16.4485 27.3217 16.1238 27.1737 15.9567 27.0853C16.0331 26.9242 16.0725 26.7469 16.0725 26.5697C16.0725 25.8994 15.5287 25.3545 14.859 25.3545C14.8446 25.3545 14.8297 25.3545 14.8154 25.3551C14.8369 25.0495 14.7939 24.4706 14.1994 24.2158C14.0281 24.1418 13.8574 24.1042 13.692 24.1042C13.5619 24.1042 13.4372 24.1262 13.3202 24.171C13.1966 23.9317 12.9925 23.7574 12.7257 23.6667C12.5782 23.616 12.4314 23.5897 12.2899 23.5897C12.0422 23.5897 11.8148 23.6625 11.6112 23.8069C11.4166 23.5652 11.1224 23.4214 10.8126 23.4214C10.5416 23.4214 10.2807 23.53 10.0879 23.7216C9.83427 23.5282 8.82968 22.8896 6.14005 22.279C6.00992 22.2498 5.71147 22.1639 5.52822 22.1107C5.49778 22.2558 5.4745 22.4032 5.45898 22.5518C5.45898 22.5518 5.95501 22.6706 6.0529 22.6927C8.80043 23.3026 9.70772 23.937 9.86172 24.057C9.8092 24.1817 9.78234 24.316 9.78234 24.4521C9.78174 25.0191 10.2437 25.4816 10.8114 25.4822C10.8753 25.4822 10.9385 25.4763 11 25.4649C11.086 25.8827 11.3593 26.1996 11.7766 26.362C11.8989 26.4085 12.0225 26.433 12.1437 26.433C12.2219 26.433 12.3013 26.4234 12.3783 26.4038C12.4553 26.5995 12.629 26.8436 13.0169 27.0012C13.153 27.0561 13.2891 27.0847 13.421 27.0847C13.5291 27.0847 13.6347 27.0656 13.7356 27.0286C13.9212 27.4816 14.3641 27.7812 14.8572 27.7812C15.1843 27.7818 15.4983 27.6487 15.7275 27.413C15.9232 27.5222 16.3369 27.7192 16.7547 27.7198C16.809 27.7198 16.8598 27.7156 16.9105 27.7096C17.326 27.6577 17.5188 27.4948 17.6077 27.3688C17.6238 27.3467 17.6381 27.3235 17.6507 27.299C17.7486 27.3276 17.856 27.3503 17.9796 27.3509C18.2064 27.3509 18.4243 27.2733 18.6439 27.1128C18.86 26.9576 19.0134 26.7338 19.0355 26.5434C19.0361 26.5404 19.0367 26.538 19.0373 26.5351C19.1095 26.55 19.1847 26.5577 19.2593 26.5577C19.4927 26.5577 19.7219 26.4849 19.9416 26.3411C20.3648 26.0642 20.4382 25.7019 20.4316 25.4643C20.5051 25.4799 20.5809 25.4876 20.6561 25.4876C20.8751 25.4876 21.0906 25.422 21.2954 25.2913C21.558 25.1235 21.7156 24.8669 21.7394 24.5679C21.7562 24.365 21.706 24.1603 21.5986 23.9842C22.3077 23.6786 23.9283 23.0878 25.8366 22.6574C25.8252 22.5094 25.8037 22.3632 25.7775 22.2176C23.4687 22.7303 21.7454 23.4757 21.3139 23.6679Z" fill="#F0F0F0"/>
<path d="M61.4439 21.3212C61.2583 21.5677 60.9926 21.6907 60.6452 21.6907C60.2984 21.6907 60.031 21.5677 59.8442 21.3212C59.6568 21.0747 59.5637 20.7237 59.5637 20.2694C59.5637 19.8152 59.6568 19.4654 59.8442 19.2201C60.031 18.9754 60.2984 18.8524 60.6452 18.8524C60.9926 18.8524 61.2583 18.9754 61.4439 19.2201C61.6295 19.4654 61.7232 19.8152 61.7232 20.2694C61.7232 20.7237 61.6295 21.0747 61.4439 21.3212ZM62.393 18.5689C62.0098 18.0896 61.429 17.8496 60.6488 17.8496C59.8699 17.8496 59.2885 18.0896 58.9059 18.5689C58.5227 19.0488 58.3311 19.6152 58.3311 20.2694C58.3311 20.935 58.5227 21.5038 58.9059 21.9772C59.2885 22.4487 59.8699 22.6857 60.6488 22.6857C61.429 22.6857 62.0098 22.4487 62.393 21.9772C62.7762 21.5038 62.9672 20.935 62.9672 20.2694C62.9672 19.6152 62.7762 19.0488 62.393 18.5689Z" fill="#F0F0F0"/>
<path d="M52.0047 20.7601C51.9969 21.1582 51.8829 21.4328 51.6638 21.5826C51.4448 21.733 51.2054 21.8088 50.9458 21.8088C50.7816 21.8088 50.6425 21.7629 50.5279 21.6728C50.4133 21.582 50.3566 21.4352 50.3566 21.2316C50.3566 21.0042 50.4497 20.8359 50.6372 20.7267C50.7488 20.6634 50.9302 20.6085 51.1845 20.5649L51.4555 20.5148C51.5904 20.4891 51.6967 20.4616 51.7743 20.4324C51.853 20.4037 51.9289 20.3655 52.0047 20.3178V20.7601ZM52.6081 18.1672C52.2195 17.9708 51.7754 17.8711 51.2752 17.8711C50.5064 17.8711 49.9639 18.0717 49.6481 18.4722C49.4493 18.7288 49.3383 19.0553 49.312 19.4535H50.4605C50.4891 19.278 50.5452 19.1389 50.63 19.0362C50.7488 18.8972 50.9499 18.8273 51.2347 18.8273C51.4889 18.8273 51.6817 18.8619 51.8131 18.9342C51.9438 19.0046 52.0094 19.1335 52.0094 19.3198C52.0094 19.4732 51.9247 19.5854 51.7528 19.6582C51.6573 19.7 51.4991 19.7346 51.277 19.7627L50.8699 19.8128C50.4079 19.8707 50.0564 19.9686 49.8188 20.1053C49.3837 20.356 49.167 20.7601 49.167 21.32C49.167 21.7509 49.3013 22.0846 49.5717 22.3198C49.8415 22.555 50.1847 22.6535 50.599 22.6732C53.1961 22.789 53.1668 21.3045 53.1907 20.9953V19.2863C53.1907 18.7384 52.9961 18.3653 52.6081 18.1672Z" fill="#F0F0F0"/>
<path d="M46.684 18.8895C46.9812 18.8895 47.1991 18.9814 47.34 19.1647C47.4367 19.3002 47.497 19.4536 47.5202 19.6231H48.8018C48.7313 18.9767 48.5051 18.5254 48.1231 18.2693C47.7399 18.0151 47.2498 17.8867 46.6499 17.8867C45.9438 17.8867 45.3899 18.1034 44.9894 18.5361C44.5883 18.9695 44.3877 19.5748 44.3877 20.3531C44.3877 21.0419 44.5692 21.6036 44.9321 22.037C45.295 22.4691 45.8614 22.6858 46.6314 22.6858C47.402 22.6858 47.9834 22.4267 48.3756 21.9074C48.6209 21.5857 48.7588 21.2443 48.788 20.8838H47.5113C47.485 21.1219 47.4104 21.3165 47.2868 21.4663C47.1639 21.6156 46.9562 21.6908 46.6625 21.6908C46.2494 21.6908 45.9677 21.5027 45.8179 21.1243C45.7361 20.9232 45.6949 20.6563 45.6949 20.3239C45.6949 19.9753 45.7361 19.6959 45.8179 19.4852C45.9737 19.0889 46.2626 18.8895 46.684 18.8895Z" fill="#F0F0F0"/>
<path d="M44.0451 17.8867C41.4133 17.8867 41.5691 20.217 41.5691 20.217V22.5837H42.7629V20.3639C42.7629 20.0003 42.8089 19.7305 42.9002 19.5557C43.0638 19.2453 43.3843 19.0895 43.8618 19.0895C43.8976 19.0895 43.9448 19.0913 44.0033 19.0942C44.0612 19.0966 44.1274 19.102 44.2033 19.111V17.8957C44.1501 17.8921 44.1161 17.8909 44.1012 17.8891C44.0857 17.8879 44.0672 17.8867 44.0451 17.8867Z" fill="#F0F0F0"/>
<path d="M38.0527 19.1235C38.221 18.951 38.4568 18.8644 38.7606 18.8644C39.0412 18.8644 39.2752 18.9456 39.4644 19.1092C39.653 19.2715 39.7586 19.5109 39.7801 19.8255H37.7369C37.7793 19.53 37.885 19.2966 38.0527 19.1235ZM39.6578 21.347C39.6076 21.4186 39.5539 21.4801 39.4942 21.5278C39.3259 21.6669 39.0967 21.7087 38.8269 21.7087C38.5714 21.7087 38.372 21.6699 38.1912 21.5559C37.8933 21.3732 37.7256 21.0634 37.7077 20.608H41.0121C41.0169 20.2164 41.0038 19.9168 40.9721 19.7079C40.9172 19.3527 40.7967 19.0393 40.611 18.7701C40.4051 18.4645 40.143 18.2407 39.8267 18.0986C39.5109 17.9572 39.1558 17.8867 38.7606 17.8867C38.0951 17.8867 37.5549 18.0962 37.1382 18.5153C36.7216 18.9349 36.5127 19.5371 36.5127 20.3227C36.5127 21.1619 36.7437 21.7672 37.2057 22.139C37.6671 22.5109 38.2001 22.6977 38.8036 22.6977C39.5348 22.6977 40.1036 22.4769 40.5101 22.0358C40.7292 21.8036 40.8665 21.5738 40.9244 21.347H39.6578Z" fill="#F0F0F0"/>
<path d="M36.0349 22.5826H34.9437V19.8357C34.9437 19.585 34.8614 18.9881 34.1415 18.9881C33.6616 18.9881 33.3148 19.3343 33.3148 19.8357V22.5826H32.2231V19.8357C32.2231 19.585 32.1484 18.9881 31.4292 18.9881C30.9409 18.9881 30.6019 19.3343 30.6019 19.8357V22.5826H29.5107V19.862C29.5107 18.7279 30.2628 17.8701 31.4292 17.8701C32.0082 17.8701 32.4791 18.1137 32.7853 18.5034C33.1077 18.1137 33.587 17.8701 34.1415 17.8701C35.3323 17.8701 36.0349 18.6932 36.0349 19.862V22.5826Z" fill="#F0F0F0"/>
<path d="M56.5432 21.3297C56.3689 21.5798 56.1128 21.7045 55.7773 21.7045C55.4413 21.7045 55.1912 21.5786 55.0264 21.3279C54.8617 21.076 54.7793 20.7107 54.7793 20.2917C54.7793 19.9031 54.8599 19.5778 55.0222 19.3157C55.184 19.0537 55.4383 18.9224 55.7857 18.9224C56.0131 18.9224 56.2131 18.994 56.3856 19.1385C56.6655 19.3772 56.8058 19.8052 56.8058 20.3603C56.8058 20.7567 56.718 21.0802 56.5432 21.3297ZM57.9757 16.4512C57.9757 16.4512 56.7724 16.3229 56.7724 17.2893L56.7718 18.5684C56.6387 18.3547 56.4656 18.187 56.2519 18.067C56.0388 17.9464 55.7946 17.8856 55.5189 17.8856C54.9226 17.8856 54.4468 18.1076 54.0899 18.5517C53.7329 18.9958 53.5557 19.6357 53.5557 20.4099C53.5557 21.0814 53.7365 21.6317 54.0982 22.0609C54.4606 22.4889 55.1709 22.6769 55.8012 22.6769C58.0002 22.6769 57.9745 20.7907 57.9745 20.7907L57.9757 16.4512Z" fill="#F0F0F0"/>
<path d="M32.706 26.9307C32.706 26.4807 32.6182 26.1344 32.4421 25.8915C32.2666 25.6498 32.0153 25.5274 31.687 25.5274C31.3719 25.5274 31.1254 25.6498 30.9493 25.8915C30.7863 26.1112 30.7045 26.4586 30.7045 26.9307C30.7045 27.3712 30.7917 27.6989 30.9678 27.9186C31.1427 28.1615 31.3952 28.2827 31.7223 28.2827C32.0267 28.2827 32.2666 28.1615 32.4421 27.9186C32.6182 27.6762 32.706 27.3479 32.706 26.9307ZM30.7045 30.1623C30.7045 30.3235 30.646 30.4626 30.5279 30.5778C30.4115 30.6936 30.2712 30.7515 30.107 30.7515H29.5107V26.6012C29.5107 25.7942 29.7823 25.2892 30.23 24.9472C30.5261 24.7216 30.9666 24.5061 31.7927 24.5061C32.3502 24.5061 33.0032 24.7228 33.356 25.1525C33.7517 25.636 33.9165 26.175 33.9165 26.8788C33.9165 27.607 33.741 28.1944 33.3906 28.6462C33.0396 29.0855 32.5884 29.304 32.038 29.304C31.7455 29.304 31.4883 29.2521 31.2662 29.1488C31.031 29.033 30.8448 28.8539 30.7045 28.611V30.1623Z" fill="#F0F0F0"/>
<path d="M39.8641 26.9317C39.8641 27.728 40.0945 28.1691 40.5541 28.2563C41.0131 28.3416 41.3528 28.2348 41.5712 27.9351C41.6751 27.8092 41.7491 27.6092 41.7957 27.3388C41.841 27.0678 41.8446 26.7992 41.804 26.5342C41.7646 26.268 41.6691 26.0316 41.5193 25.8239C41.3707 25.6168 41.1516 25.5123 40.8645 25.5123C40.4735 25.5123 40.2097 25.6574 40.0712 25.9445C39.9327 26.2334 39.8641 26.5623 39.8641 26.9317ZM41.8303 28.9218V28.6287C41.6238 28.9523 41.3438 29.1528 40.9934 29.234C40.6431 29.3146 40.2951 29.2859 39.9512 29.1468C39.6056 29.009 39.3096 28.7523 39.0625 28.3774C38.8153 28.0014 38.6924 27.5084 38.6924 26.8965C38.6924 26.182 38.8559 25.6019 39.183 25.1578C39.5107 24.7137 40.0372 24.5107 40.7612 24.491C41.4745 24.4719 41.8894 24.6337 42.2959 24.9411C42.74 25.2783 43.0026 25.7952 43.0026 26.6029V29.0442C43.0044 29.8207 42.4624 31.2605 40.7612 31.1387C39.7071 31.0623 39.1222 30.6295 38.7956 29.65H40.0545C40.1464 29.8112 40.2867 29.9348 40.4771 30.0207C40.6657 30.1085 40.8567 30.1311 41.0448 30.0905C41.2346 30.05 41.4071 29.9371 41.5635 29.7533C41.7181 29.5689 41.807 29.2913 41.8303 28.9218Z" fill="#F0F0F0"/>
<path d="M37.0652 27.4137C37.0574 27.8118 36.9434 28.0858 36.725 28.2362C36.5059 28.386 36.2666 28.4612 36.0069 28.4612C35.8422 28.4612 35.7031 28.4159 35.5891 28.3257C35.4745 28.2356 35.4172 28.0882 35.4172 27.8846C35.4172 27.6572 35.5109 27.4889 35.6983 27.3802C35.8099 27.3164 35.9914 27.2614 36.2451 27.2179L36.5161 27.1677C36.6516 27.1421 36.7578 27.1146 36.8348 27.0854C36.9136 27.0567 36.9894 27.0191 37.0652 26.9714V27.4137ZM37.6687 24.8207C37.2801 24.6243 36.836 24.5247 36.3364 24.5247C35.567 24.5247 35.025 24.7252 34.7086 25.1257C34.5105 25.3818 34.3988 25.7083 34.3732 26.107H35.5222C35.5503 25.931 35.6064 25.7919 35.6911 25.6892C35.8099 25.5501 36.0111 25.4809 36.2952 25.4809C36.5507 25.4809 36.7429 25.5155 36.8736 25.5871C37.0043 25.6582 37.0706 25.7871 37.0706 25.9733C37.0706 26.1261 36.9852 26.239 36.8139 26.3118C36.719 26.3536 36.5602 26.3882 36.3382 26.4162L35.9311 26.4658C35.4691 26.5243 35.1175 26.6222 34.88 26.7583C34.4448 27.009 34.2275 27.4137 34.2275 27.973C34.2275 28.4039 34.3624 28.7376 34.6328 28.9728C34.9026 29.2073 35.2459 29.307 35.6601 29.3261C38.256 29.4419 38.2274 27.9568 38.2512 27.6482V25.9393C38.2512 25.3914 38.0573 25.0189 37.6687 24.8207Z" fill="#F0F0F0"/>
<path d="M46.5695 27.9482C46.3839 28.1953 46.1176 28.3182 45.7708 28.3182C45.4234 28.3182 45.156 28.1953 44.9698 27.9482C44.7818 27.7022 44.6887 27.3519 44.6887 26.8976C44.6887 26.4434 44.7818 26.0936 44.9698 25.8483C45.156 25.6029 45.4234 25.4812 45.7708 25.4812C46.1176 25.4812 46.3839 25.6029 46.5695 25.8483C46.7551 26.0936 46.8482 26.4434 46.8482 26.8976C46.8482 27.3519 46.7551 27.7022 46.5695 27.9482ZM47.5186 25.197C47.1353 24.7171 46.554 24.4778 45.7738 24.4778C44.9955 24.4778 44.4135 24.7171 44.0309 25.197C43.6477 25.6764 43.4561 26.2428 43.4561 26.8976C43.4561 27.5632 43.6477 28.1314 44.0309 28.6048C44.4135 29.0763 44.9955 29.3133 45.7738 29.3133C46.554 29.3133 47.1353 29.0763 47.5186 28.6048C47.9012 28.1314 48.0916 27.5632 48.0916 26.8976C48.0916 26.2428 47.9012 25.6764 47.5186 25.197Z" fill="#F0F0F0"/>
</svg>
