<svg width="70" height="48" viewBox="0 0 70 48" fill="none" xmlns="http://www.w3.org/2000/svg">
<path fill-rule="evenodd" clip-rule="evenodd" d="M18.2471 18.125H14.8182C14.5836 18.125 14.384 18.2955 14.3475 18.527L12.9606 27.3188C12.9331 27.4923 13.0674 27.6487 13.2434 27.6487H14.8804C15.1151 27.6487 15.3146 27.4781 15.3512 27.2461L15.7252 24.8749C15.7613 24.6427 15.9614 24.4724 16.1955 24.4724H17.281C19.5397 24.4724 20.8432 23.3795 21.1839 21.2138C21.3372 20.2663 21.1903 19.5218 20.7465 19.0003C20.2592 18.428 19.3947 18.125 18.2471 18.125ZM18.6427 21.3361C18.4553 22.5663 17.5152 22.5663 16.6062 22.5663H16.0887L16.4517 20.2686C16.4733 20.1299 16.5936 20.0276 16.734 20.0276H16.9712C17.5904 20.0276 18.1745 20.0276 18.4764 20.3805C18.6562 20.5911 18.7114 20.9038 18.6427 21.3361ZM28.497 21.2966H26.8549C26.715 21.2966 26.5941 21.3989 26.5726 21.5379L26.4999 21.997L26.3851 21.8307C26.0296 21.3147 25.237 21.1423 24.4459 21.1423C22.6312 21.1423 21.0815 22.5164 20.7797 24.4441C20.6228 25.4055 20.8458 26.3249 21.3913 26.9661C21.8918 27.5556 22.6078 27.8013 23.4595 27.8013C24.9215 27.8013 25.7324 26.8613 25.7324 26.8613L25.6591 27.3176C25.6315 27.4921 25.7658 27.6484 25.9408 27.6484H27.4199C27.6552 27.6484 27.8536 27.4779 27.8907 27.2459L28.7782 21.6265C28.8062 21.4537 28.6724 21.2966 28.497 21.2966ZM26.2081 24.4921C26.0496 25.4301 25.305 26.0597 24.3556 26.0597C23.8788 26.0597 23.4976 25.9068 23.253 25.6171C23.0103 25.3294 22.918 24.9197 22.9952 24.4636C23.1433 23.5335 23.9004 22.8835 24.8354 22.8835C25.3016 22.8835 25.6807 23.0382 25.9303 23.3305C26.1805 23.6258 26.2798 24.0379 26.2081 24.4921ZM35.592 21.2964H37.2421C37.4732 21.2964 37.608 21.5555 37.4767 21.7451L31.9887 29.6659C31.8998 29.7941 31.7534 29.8705 31.597 29.8705H29.949C29.7169 29.8705 29.5814 29.6092 29.7158 29.4192L31.4246 27.0074L29.6072 21.6743C29.5443 21.4889 29.6812 21.2964 29.8784 21.2964H31.4998C31.7105 21.2964 31.8963 21.4346 31.9571 21.6363L32.9216 24.8573L35.1975 21.5054C35.2866 21.3746 35.4347 21.2964 35.592 21.2964Z" fill="#F0F0F0"/>
<path fill-rule="evenodd" clip-rule="evenodd" d="M53.4835 27.318L54.8907 18.3655C54.9123 18.2266 55.0327 18.1242 55.1726 18.1238H56.7568C56.9318 18.1238 57.0661 18.2806 57.0385 18.4541L55.6508 27.2454C55.6146 27.4774 55.415 27.6479 55.18 27.6479H53.7651C53.5902 27.6479 53.4558 27.4915 53.4835 27.318ZM42.7063 18.1242H39.2767C39.0426 18.1242 38.8431 18.2948 38.8064 18.5263L37.4196 27.318C37.392 27.4915 37.5264 27.6479 37.7015 27.6479H39.4612C39.6248 27.6479 39.7647 27.5286 39.7902 27.3662L40.1837 24.8742C40.2199 24.6419 40.4199 24.4716 40.654 24.4716H41.739C43.9982 24.4716 45.3014 23.3787 45.6423 21.213C45.7961 20.2656 45.6483 19.5211 45.2047 18.9996C44.7177 18.4272 43.8538 18.1242 42.7063 18.1242ZM43.1019 21.3353C42.9148 22.5656 41.9747 22.5656 41.0652 22.5656H40.5482L40.9118 20.2679C40.9334 20.1291 41.0526 20.0268 41.1935 20.0268H41.4306C42.0494 20.0268 42.6341 20.0268 42.9357 20.3797C43.1158 20.5904 43.1705 20.9031 43.1019 21.3353ZM52.9551 21.2959H51.3143C51.1732 21.2959 51.0535 21.3982 51.0324 21.5371L50.9598 21.9963L50.8444 21.8299C50.489 21.3139 49.6969 21.1416 48.9057 21.1416C47.091 21.1416 45.5418 22.5157 45.2399 24.4433C45.0836 25.4047 45.3056 26.3241 45.8511 26.9654C46.3525 27.5549 47.0676 27.8005 47.9193 27.8005C49.3813 27.8005 50.192 26.8605 50.192 26.8605L50.1189 27.3168C50.0913 27.4913 50.2256 27.6477 50.4017 27.6477H51.8802C52.1143 27.6477 52.3138 27.4771 52.3505 27.2451L53.2384 21.6258C53.2656 21.4529 53.1312 21.2959 52.9551 21.2959ZM50.6665 24.4914C50.5089 25.4293 49.7634 26.059 48.8138 26.059C48.3379 26.059 47.956 25.9061 47.7112 25.6163C47.4685 25.3286 47.3773 24.9189 47.4537 24.4628C47.6024 23.5328 48.3585 22.8827 49.2936 22.8827C49.76 22.8827 50.1389 23.0374 50.3887 23.3298C50.6398 23.6251 50.7391 24.0371 50.6665 24.4914Z" fill="#F0F0F0"/>
</svg>
