<svg width="70" height="48" viewBox="0 0 70 48" fill="none" xmlns="http://www.w3.org/2000/svg">
<path d="M52.7558 28.3953C52.0759 28.3953 51.3327 28.6325 50.7319 29.2491C50.1785 29.8183 49.8941 30.5296 49.8941 31.3517C49.8941 31.7312 49.9731 32.0947 50.1152 32.4585C50.2576 32.8223 50.4632 33.1385 50.7161 33.4071C50.9849 33.6919 51.3011 33.913 51.6333 34.0553C51.9809 34.1976 52.297 34.2767 52.7082 34.2767C53.0084 34.2767 53.2932 34.2292 53.5778 34.1343C53.8466 34.0553 54.226 33.8342 54.3683 33.597V34.1661H55.6014V28.5216H54.3526V29.091C54.1788 28.8064 53.8466 28.6164 53.5778 28.5216C53.309 28.4425 53.0403 28.3953 52.7558 28.3953V28.3953ZM46.3049 28.411C46.0203 28.411 45.7513 28.4428 45.4826 28.5376C45.2138 28.6325 44.8822 28.8221 44.7081 29.1067V28.5376H43.459V36.2848V36.3009H44.692V33.6131C44.8343 33.8502 45.2138 34.0555 45.4826 34.1504C45.7513 34.2454 46.0517 34.2924 46.3521 34.2924C46.7632 34.2924 47.0796 34.2136 47.4274 34.0713C47.7596 33.9292 48.0759 33.7076 48.3445 33.4229C48.5977 33.1542 48.8032 32.838 48.9455 32.4742C49.0876 32.1264 49.1666 31.7469 49.1666 31.3675C49.1666 30.5453 48.8818 29.834 48.3285 29.2648C47.7277 28.6482 47.0004 28.411 46.3049 28.411V28.411ZM56.3607 28.5376L58.7638 33.8342L57.7204 36.2848H59.0167L62.2897 28.5376H60.9773L59.3805 32.5218L57.6728 28.5376H56.3607ZM52.8033 29.4863C53.2458 29.4863 53.6412 29.6286 53.9734 29.9606C54.3052 30.3084 54.4316 30.8143 54.4316 31.3045C54.4316 31.842 54.3213 32.348 53.9891 32.6956C53.6571 33.0433 53.2616 33.1699 52.7873 33.1699C52.3129 33.1699 51.9335 32.9803 51.6333 32.6799C51.3011 32.3319 51.1429 31.8736 51.1429 31.3675C51.1429 30.8299 51.3011 30.3399 51.6333 29.9921C51.9179 29.6917 52.313 29.5022 52.8033 29.4863ZM46.2577 29.502C46.732 29.502 47.1429 29.6916 47.4277 30.0078C47.7599 30.3557 47.9181 30.8302 47.9181 31.3835C47.9181 31.8895 47.7599 32.348 47.4277 32.6956C47.1431 32.9962 46.748 33.1857 46.2737 33.1857C45.7994 33.1857 45.4039 33.0594 45.0719 32.7114C44.7556 32.3637 44.629 31.8418 44.629 31.3202C44.629 30.8143 44.7556 30.3242 45.0876 29.9763C45.4038 29.6443 45.7991 29.502 46.2577 29.502V29.502Z" fill="#F0F0F0"/>
<path d="M9.44816 29.1543C8.59438 29.1543 7.89878 29.4391 7.77229 30.2138C7.74067 30.4193 7.74061 30.609 7.78804 30.862C7.97777 31.8577 9.68531 32.1266 9.92247 32.7432C9.9699 32.8537 9.95403 33.0118 9.93822 33.0909C9.89079 33.249 9.79592 33.4071 9.4639 33.4071C9.1635 33.4071 8.98958 33.2332 8.98958 32.9803V32.5218H7.70898V32.8855C7.70898 33.9608 8.54695 34.277 9.44815 34.277C10.3177 34.277 11.0294 33.9765 11.1401 33.186C11.2033 32.7749 11.1559 32.5063 11.1401 32.3955C10.9345 31.3996 9.11607 31.099 8.98958 30.53C8.97377 30.4351 8.97377 30.3403 8.98958 30.2771C9.0212 30.119 9.132 29.9609 9.4324 29.9609C9.71699 29.9609 9.87522 30.1347 9.87522 30.3876V30.6881H11.061V30.3562C11.061 29.3126 10.128 29.1543 9.44815 29.1543H9.44816ZM39.4568 29.1858C38.6029 29.1858 37.8913 29.4704 37.7807 30.3716C37.7807 30.4506 37.7649 30.6088 37.7649 30.6878V32.6956C37.7649 32.7905 37.7649 32.8537 37.7807 33.0118C37.8597 33.8814 38.6187 34.1976 39.4568 34.1976C40.3105 34.1976 41.0694 33.8814 41.1485 33.0118C41.1644 32.8537 41.1642 32.7905 41.1642 32.6956V31.415H39.4726V32.1108H39.9627V32.8062C39.9627 32.8538 39.9627 32.9328 39.9469 32.9803C39.9151 33.1067 39.8045 33.3281 39.4568 33.3281C39.109 33.3281 38.9825 33.1225 38.9825 32.9643C38.9666 32.917 38.9665 32.8537 38.9665 32.7904V30.6088C38.9665 30.5297 38.9666 30.4506 38.9825 30.3873C39.014 30.2767 39.109 30.0396 39.4568 30.0396C39.8205 30.0396 39.9152 30.2767 39.9312 30.3873C39.947 30.4664 39.9469 30.5769 39.9469 30.5769V30.8459H41.1485V30.6878C41.1485 30.6878 41.1485 30.5139 41.1327 30.3716C41.0537 29.4704 40.3105 29.1858 39.4568 29.1858L39.4568 29.1858ZM25.0219 29.2176C24.184 29.2176 23.4883 29.4863 23.3618 30.261C23.3302 30.4666 23.3143 30.6563 23.3776 30.8935C23.5513 31.8578 25.2273 32.1266 25.4644 32.7432C25.5119 32.8537 25.496 32.9962 25.4802 33.0909C25.4486 33.249 25.3378 33.4071 25.0216 33.4071C24.7212 33.4071 24.5473 33.2332 24.5473 32.9803V32.5218H23.2824V32.8855C23.2824 33.945 24.1205 34.2609 25.0059 34.2609C25.8596 34.2609 26.5711 33.9762 26.6817 33.1857C26.745 32.7746 26.6977 32.5062 26.6817 32.4112C26.4762 31.4153 24.6897 31.1306 24.5634 30.5773C24.5317 30.4824 24.5475 30.3876 24.5634 30.3243C24.595 30.1662 24.7055 30.0081 24.9901 30.0081C25.2747 30.0081 25.4329 30.1819 25.4329 30.4349V30.7354H26.6187V30.4034C26.6187 29.3757 25.686 29.2176 25.0219 29.2176H25.0219ZM12.8317 29.3282L11.9464 34.1028H13.227L13.8909 29.7549H13.9069L14.5551 34.1028H15.8357L14.9504 29.3282H12.8317ZM16.8949 29.3282L16.7843 34.1028H17.9859L18.0177 29.8025H18.0492L18.8397 34.1028H20.057L20.8476 29.8025H20.8794L20.9109 34.1028H22.1124L22.0019 29.3282H20.057L19.4564 32.9803H19.4407L18.8555 29.3282H16.8949ZM27.8042 29.3282V32.7589C27.8042 32.8538 27.82 33.0276 27.82 33.0751C27.899 33.9762 28.5947 34.2609 29.4801 34.2609C30.3656 34.2609 31.0772 33.9605 31.1563 33.0751C31.1563 33.0276 31.172 32.8538 31.172 32.7589V29.3282H29.9547V32.838C29.9547 32.9012 29.9544 32.9803 29.9387 33.0276C29.9228 33.1542 29.8126 33.3756 29.4804 33.3756C29.1484 33.3756 29.0532 33.1543 29.0373 33.0594C29.0215 32.9962 29.0215 32.9327 29.0215 32.8695V29.3282H27.8042ZM32.5002 29.3282V34.0553H33.6702L33.6069 30.1659H33.6384L34.8085 34.0553H36.5161V29.3282H35.3303L35.3933 33.0751H35.3776L34.2708 29.3282H32.5002Z" fill="#F0F0F0"/>
<path fill-rule="evenodd" clip-rule="evenodd" d="M40.1811 12.3914C40.9558 13.2134 41.3985 14.3359 41.5566 15.5689C41.7147 16.7546 41.6515 17.5609 41.6515 17.5609C41.6515 17.5609 41.6989 18.3671 41.5408 19.5528C41.3827 20.7857 40.94 21.9084 40.1653 22.7303C39.3431 23.505 38.2206 23.9474 36.9873 24.1055C35.8015 24.2478 34.9952 24.2164 34.9952 24.2164C34.9952 24.2164 34.1889 24.2636 33.0031 24.1055C31.7698 23.9474 30.6473 23.505 29.8251 22.7303C29.0504 21.9083 28.6077 20.7857 28.4496 19.5528C28.3073 18.3671 28.3389 17.5609 28.3389 17.5609C28.3389 17.5609 28.3073 16.7546 28.4654 15.5689C28.6235 14.3359 29.0662 13.2134 29.8409 12.3914C30.6631 11.6167 31.7856 11.1741 33.0189 11.016C34.2047 10.8737 35.011 10.9054 35.011 10.9054C35.011 10.9054 35.8174 10.8579 37.0032 11.016C38.2364 11.1741 39.3589 11.6167 40.1811 12.3914ZM30.8084 19.1111V15.617L31.9942 15.617C32.1839 15.617 32.3422 15.6486 32.5003 15.7118C32.6584 15.7751 32.7849 15.8701 32.8956 15.9808C33.0062 16.0915 33.101 16.218 33.1642 16.3761C33.2275 16.5342 33.259 16.6922 33.259 16.8661C33.259 17.04 33.2275 17.1981 33.1642 17.3562C33.101 17.5143 33.0062 17.6409 32.8956 17.7515C32.7849 17.862 32.6426 17.9572 32.5003 18.0201C32.358 18.0834 32.1839 18.1152 31.9942 18.1152H31.4565V19.1111H30.8084ZM31.9469 16.2022H31.4408V16.218V17.4986H31.9469C32.0418 17.4986 32.1365 17.4829 32.2156 17.4513C32.2946 17.4197 32.358 17.3722 32.4212 17.309C32.4845 17.2457 32.5159 17.1823 32.5475 17.1033C32.5792 17.0242 32.5951 16.9452 32.5951 16.8504C32.5951 16.7555 32.5792 16.6765 32.5475 16.5975C32.5159 16.5184 32.4687 16.4551 32.4212 16.3918C32.358 16.3286 32.2946 16.2814 32.2156 16.2498C32.1365 16.2181 32.0418 16.2022 31.9469 16.2022ZM34.2395 16.3918C34.4134 16.3286 34.5713 16.297 34.761 16.297C34.9507 16.297 35.1248 16.3286 35.2671 16.3918C35.4253 16.4551 35.5517 16.5498 35.6624 16.6605V16.297H36.3106V19.1111H35.6624V18.7159C35.5675 18.8425 35.4253 18.9373 35.2671 19.0163C35.109 19.0799 34.9507 19.1111 34.761 19.1111C34.5871 19.1111 34.4291 19.0797 34.2552 19.0163C34.0971 18.9531 33.9389 18.8582 33.8124 18.7477C33.6859 18.621 33.5752 18.4788 33.4962 18.3048C33.4171 18.1309 33.3699 17.9256 33.3699 17.7042C33.3699 17.4829 33.4014 17.2772 33.4804 17.1033C33.5595 16.9294 33.6701 16.787 33.7966 16.6605C33.9231 16.534 34.0813 16.4551 34.2395 16.3918ZM37.6702 18.9848L36.532 16.3128H37.2117L38.0022 18.2258L38.7294 16.3128H39.4094L37.7493 20.392H37.0854L37.6702 18.9848ZM35.2038 16.977C35.0932 16.9137 34.9826 16.8979 34.8719 16.8979C34.7612 16.8979 34.6503 16.9138 34.5396 16.9612C34.4289 17.0087 34.35 17.056 34.271 17.1351C34.1919 17.2141 34.1287 17.2931 34.0971 17.388C34.0497 17.4829 34.0338 17.5935 34.0338 17.7042C34.0338 17.8149 34.0497 17.9256 34.0971 18.0204C34.1445 18.1156 34.2077 18.21 34.271 18.2891C34.35 18.3681 34.4447 18.4156 34.5396 18.4632L34.5396 18.4633C34.6345 18.4947 34.7454 18.5262 34.8719 18.5262C34.9984 18.5262 35.109 18.5107 35.2038 18.4633C35.2987 18.4158 35.3934 18.3681 35.4725 18.2891C35.5516 18.21 35.5989 18.131 35.6464 18.0362C35.6938 17.941 35.7097 17.8305 35.7097 17.72C35.7097 17.6091 35.6938 17.4985 35.6464 17.4038L35.6463 17.4036C35.5989 17.3088 35.5515 17.214 35.4725 17.1508C35.3934 17.0718 35.3145 17.0244 35.2038 16.977Z" fill="#F0F0F0"/>
</svg>
