<svg width="70" height="48" viewBox="0 0 70 48" fill="none" xmlns="http://www.w3.org/2000/svg">
<path fill-rule="evenodd" clip-rule="evenodd" d="M39.8213 23.378H42.1131C42.8398 23.3518 43.2818 23.2958 43.4408 23.2082C43.6581 23.0885 43.8039 22.849 43.8765 22.4896C43.9229 22.2504 43.9461 21.8948 43.9461 21.4224C43.9461 20.8437 43.9 20.4148 43.8074 20.1346C43.6752 19.7422 43.3585 19.5031 42.8569 19.4163C42.7578 19.4032 42.5203 19.3962 42.1441 19.3962H39.8213V23.378ZM36.1445 30.0836V16.4023H42.9937C43.9331 16.4023 44.65 16.4792 45.1425 16.6327C46.2691 16.9863 47.0249 17.7101 47.412 18.804C47.6119 19.3782 47.7118 20.2426 47.7118 21.3968C47.7118 22.7845 47.6009 23.7819 47.3817 24.389C46.9424 25.5897 46.0381 26.2813 44.6726 26.4606C44.512 26.4875 43.8287 26.5116 42.6228 26.5308L42.0125 26.5512H39.8208V30.0836H36.1445ZM17.6852 20.7666H21.1052C21.1273 20.4643 21.1384 20.2383 21.1384 20.0871C21.1384 18.2435 20.3943 17.1217 18.906 16.7212C18.2962 16.5574 17.2732 16.4747 15.8378 16.4747C14.9261 16.4747 14.0971 16.5081 13.3499 16.5733C12.4519 16.6457 11.7142 16.8878 11.1376 17.3003C10.7441 17.569 10.4589 17.9619 10.2819 18.4794C10.1051 18.9968 10.0166 19.6846 10.0166 20.5423C10.0166 21.6687 10.1803 22.5107 10.5076 23.0672C10.8799 23.7221 11.6262 24.1535 12.7459 24.3633C13.1711 24.4362 13.9304 24.5114 15.0235 24.5895C16.3847 24.6813 17.1473 24.7537 17.3112 24.8056C17.7495 24.9371 17.9691 25.3036 17.9691 25.9059C17.9691 26.1748 17.9431 26.3946 17.8907 26.5643C17.7921 26.8402 17.5858 27.0395 17.2714 27.1634C17.0948 27.2294 16.6853 27.2623 16.0436 27.2623H14.7864C14.4516 27.255 14.1669 27.1934 13.9311 27.0761C13.5909 26.9059 13.4204 26.5238 13.4204 25.9298L13.4202 25.8317L13.42 25.6453H10C10 26.7585 10.0814 27.5537 10.2458 28.0313C10.5409 28.889 11.1507 29.4587 12.0757 29.7398C12.8294 29.9694 14.1643 30.0836 16.0796 30.0836C17.227 30.0836 18.0801 30.031 18.6377 29.9257C19.9688 29.6769 20.8242 29.0846 21.205 28.1466C21.4151 27.6354 21.52 26.8288 21.52 25.7273C21.52 25.2495 21.4972 24.8194 21.4511 24.4393C21.3724 23.804 21.1256 23.2894 20.7118 22.8957C20.186 22.3912 19.3385 22.0798 18.1696 21.9618C17.8014 21.9224 16.8782 21.8532 15.4 21.755L14.7103 21.7062C14.4075 21.6866 14.1648 21.621 13.981 21.5095C13.7244 21.3523 13.5965 21.0243 13.5965 20.5262C13.5965 19.976 13.741 19.6187 14.0297 19.4544C14.3185 19.2905 14.9105 19.2087 15.8033 19.2087C16.7227 19.2087 17.2845 19.3509 17.488 19.6351C17.6193 19.8271 17.6852 20.2044 17.6852 20.7666ZM10.0127 32.7969L10.5254 32.7451C10.5562 32.9183 10.6189 33.0452 10.7132 33.1266C10.8076 33.2078 10.9349 33.2483 11.0951 33.2483C11.2648 33.2483 11.3926 33.2122 11.4788 33.1402C11.5648 33.068 11.6077 32.9837 11.6077 32.8871C11.6077 32.8251 11.5896 32.7725 11.5537 32.7289C11.5176 32.6854 11.4546 32.6477 11.3646 32.6153C11.303 32.5942 11.1628 32.5564 10.9438 32.5019C10.662 32.4322 10.4644 32.3462 10.3508 32.2441C10.191 32.1007 10.1111 31.9258 10.1111 31.7193C10.1111 31.5866 10.1487 31.4623 10.2241 31.3468C10.2994 31.2311 10.4081 31.1429 10.5498 31.0825C10.6916 31.0221 10.8628 30.9917 11.0633 30.9917C11.3908 30.9917 11.6372 31.0639 11.8028 31.208C11.9683 31.3522 12.0551 31.5446 12.0634 31.7853L11.5353 31.8061C11.5127 31.6716 11.4644 31.575 11.3901 31.5159C11.316 31.457 11.2049 31.4274 11.0565 31.4274C10.9034 31.4274 10.7838 31.459 10.6971 31.5221C10.6413 31.5624 10.6134 31.6165 10.6134 31.6842C10.6134 31.7462 10.6396 31.7989 10.6918 31.8431C10.7581 31.8989 10.9193 31.9571 11.1755 32.0174C11.4315 32.0778 11.621 32.1404 11.7438 32.2055C11.8664 32.2704 11.9625 32.3592 12.0319 32.4717C12.1012 32.5846 12.136 32.7237 12.136 32.8894C12.136 33.0398 12.0944 33.1804 12.0112 33.3115C11.928 33.4426 11.8105 33.5401 11.6586 33.6038C11.5066 33.6676 11.3172 33.6996 11.0903 33.6996C10.7602 33.6996 10.5067 33.6228 10.3297 33.469C10.1529 33.3153 10.0472 33.0914 10.0127 32.7969ZM12.6838 31.7596H13.1861V33.6529H12.6838V31.7596ZM12.6838 31.0385H13.1861V31.5003H12.6838V31.0385ZM15.0278 33.6529H15.5301V32.4738C15.5301 32.3274 15.5208 32.2149 15.5024 32.1363C15.484 32.0577 15.4514 31.9874 15.4045 31.9255C15.3576 31.8636 15.2885 31.8127 15.1972 31.7728C15.1059 31.733 15.0049 31.7129 14.8946 31.7129C14.6443 31.7129 14.4365 31.8211 14.2717 32.0377V31.7595H13.8057V33.6529H14.3079V32.7935C14.3079 32.5814 14.3205 32.4361 14.3461 32.3576C14.3714 32.2789 14.4183 32.2159 14.4869 32.1682C14.5555 32.1206 14.6329 32.0967 14.7193 32.0967C14.7865 32.0967 14.8442 32.1134 14.8921 32.1466C14.94 32.18 14.9745 32.227 14.9958 32.2871C15.017 32.3472 15.0278 32.4796 15.0278 32.6845V33.6529ZM16.5458 32.6654C16.5458 32.8669 16.5843 33.0145 16.6615 33.1079C16.7386 33.2017 16.8337 33.2484 16.9469 33.2484C17.068 33.2484 17.1704 33.2004 17.2541 33.1045C17.3376 33.0085 17.3795 32.8662 17.3795 32.6778C17.3795 32.4813 17.3394 32.3352 17.2594 32.2398C17.1792 32.1445 17.0781 32.0967 16.9556 32.0967C16.8367 32.0967 16.7386 32.1437 16.6615 32.2371C16.5843 32.3309 16.5458 32.4735 16.5458 32.6654ZM16.0953 33.7774L16.6649 33.8396C16.6745 33.9102 16.6966 33.9587 16.731 33.9852C16.7788 34.0231 16.8538 34.042 16.9562 34.042C17.0873 34.042 17.1856 34.0224 17.2512 33.9832C17.2951 33.957 17.3286 33.9148 17.3513 33.8566C17.3667 33.8147 17.3745 33.7382 17.3745 33.6263L17.376 33.35C17.2278 33.552 17.0399 33.6529 16.8119 33.6529C16.5575 33.6529 16.3563 33.5453 16.2079 33.3297C16.0914 33.1594 16.0332 32.9472 16.0332 32.6936C16.0332 32.3756 16.1094 32.1327 16.2621 31.9647C16.4147 31.7969 16.6046 31.7129 16.8315 31.7129C17.0654 31.7129 17.2585 31.816 17.4106 32.0218V31.7595H17.8768V33.4615C17.8768 33.6854 17.8584 33.8528 17.8214 33.9633C17.7846 34.0742 17.7329 34.161 17.6663 34.2241C17.5997 34.2872 17.5109 34.3366 17.3997 34.3723C17.2885 34.408 17.148 34.4259 16.9781 34.4259C16.6571 34.4259 16.4294 34.3705 16.295 34.2598C16.1606 34.1491 16.0935 34.0086 16.0935 33.8385C16.0935 33.8217 16.0942 33.8015 16.0953 33.7774ZM18.9809 31.0385H18.4786V33.6529H18.9809V31.0385ZM20.7298 32.548C20.7263 32.4006 20.6887 32.2887 20.6169 32.2118C20.5453 32.1351 20.4582 32.0966 20.3554 32.0966C20.2456 32.0966 20.1547 32.1373 20.0832 32.2181C20.0114 32.299 19.9763 32.409 19.9774 32.548H20.7298ZM20.7039 33.0564L21.2011 33.1394C21.1368 33.3218 21.0352 33.4609 20.8965 33.5564C20.7578 33.652 20.5841 33.6996 20.3758 33.6996C20.0459 33.6996 19.8018 33.5916 19.6435 33.3756C19.5184 33.2026 19.4559 32.9844 19.4559 32.7204C19.4559 32.4057 19.538 32.1588 19.7024 31.9804C19.8666 31.802 20.0742 31.7128 20.3253 31.7128C20.6075 31.7128 20.83 31.8064 20.9931 31.9935C21.1562 32.1809 21.2341 32.4676 21.2269 32.854H19.9687C19.9721 33.0031 20.0129 33.119 20.0908 33.202C20.1687 33.2846 20.2658 33.3261 20.3821 33.3261C20.4612 33.3261 20.5278 33.3049 20.5816 33.2622C20.6355 33.2197 20.6764 33.151 20.7039 33.0564ZM22.8701 31.0386V33.653H24.8536V33.2121H23.3984V32.5015H24.7034V32.0606H23.3984V31.4796H24.8019V31.0386H22.8701ZM26.6492 33.6528V33.3693C26.5801 33.4704 26.4895 33.5507 26.377 33.6103C26.2645 33.6697 26.1458 33.6996 26.0208 33.6996C25.8934 33.6996 25.7794 33.6715 25.6782 33.6156C25.5771 33.5597 25.5038 33.481 25.4586 33.3799C25.4133 33.2786 25.3908 33.1387 25.3908 32.9601V31.7594H25.8931V32.6302C25.8931 32.8968 25.9022 33.0602 25.9208 33.1201C25.9392 33.1805 25.9726 33.228 26.0213 33.2632C26.0701 33.2982 26.1317 33.3157 26.2066 33.3157C26.2921 33.3157 26.3689 33.2924 26.4365 33.2453C26.5042 33.1983 26.5505 33.14 26.5755 33.0703C26.6004 33.0008 26.6129 32.8303 26.6129 32.559V31.7594H27.1152V33.6528H26.6492ZM27.7168 33.6528H28.2191V33.0674C28.2191 32.745 28.2332 32.533 28.2612 32.4319C28.2892 32.3308 28.3276 32.2609 28.3765 32.2221C28.4254 32.1836 28.4849 32.1642 28.5553 32.1642C28.6279 32.1642 28.7068 32.1916 28.7913 32.2462L28.9441 31.8078C28.8383 31.7445 28.7283 31.7128 28.6143 31.7128C28.5334 31.7128 28.4613 31.7337 28.3977 31.7754C28.3341 31.8172 28.2625 31.9016 28.1828 32.0287V31.7595H27.7168V33.6528ZM29.6593 32.7062C29.6593 32.8949 29.7039 33.0392 29.7932 33.1394C29.8826 33.2397 29.9926 33.2898 30.1237 33.2898C30.2546 33.2898 30.3645 33.2397 30.4531 33.1394C30.5418 33.0392 30.5862 32.8936 30.5862 32.7027C30.5862 32.5166 30.5418 32.3732 30.4531 32.2731C30.3645 32.1728 30.2546 32.1227 30.1237 32.1227C29.9926 32.1227 29.8826 32.1728 29.7932 32.2731C29.7039 32.3732 29.6593 32.5178 29.6593 32.7062ZM29.1467 32.6793C29.1467 32.5123 29.1876 32.3506 29.2696 32.1942C29.3515 32.038 29.4675 31.9187 29.6178 31.8363C29.7679 31.754 29.9358 31.7128 30.1211 31.7128C30.4072 31.7128 30.6417 31.8061 30.8247 31.9929C31.0075 32.1796 31.0989 32.4156 31.0989 32.7008C31.0989 32.9883 31.0065 33.2269 30.8219 33.4159C30.6373 33.605 30.4048 33.6996 30.1245 33.6996C29.9512 33.6996 29.7858 33.6601 29.6286 33.5816C29.4711 33.5028 29.3515 33.3874 29.2696 33.2352C29.1876 33.083 29.1467 32.8979 29.1467 32.6793ZM33.2626 32.2265V31.4795H33.5165C33.7061 31.4795 33.832 31.4855 33.8948 31.4975C33.98 31.5131 34.0505 31.5519 34.1061 31.6141C34.1618 31.6764 34.1897 31.7554 34.1897 31.8512C34.1897 31.929 34.1698 31.9973 34.1302 32.0559C34.0906 32.1146 34.0357 32.1578 33.9659 32.1853C33.896 32.2129 33.7575 32.2265 33.5503 32.2265H33.2626ZM32.7345 31.0385V33.6529H33.2627V32.6674H33.606C33.8442 32.6674 34.0261 32.6549 34.1519 32.6299C34.2444 32.6096 34.3354 32.5685 34.4248 32.5059C34.5143 32.4435 34.5882 32.3575 34.6462 32.2482C34.7044 32.1385 34.7334 32.0037 34.7334 31.8432C34.7334 31.635 34.683 31.4652 34.5821 31.3339C34.4812 31.2025 34.3561 31.117 34.2066 31.0778C34.1093 31.0517 33.9004 31.0385 33.58 31.0385H32.7345ZM36.311 32.745C36.2469 32.7666 36.1457 32.7922 36.0071 32.8221C35.8686 32.8518 35.7779 32.8812 35.7355 32.9097C35.6702 32.9564 35.6379 33.0155 35.6379 33.087C35.6379 33.1575 35.6638 33.2183 35.7158 33.2698C35.768 33.3211 35.8343 33.3468 35.915 33.3468C36.005 33.3468 36.0906 33.3169 36.1725 33.2573C36.2328 33.2118 36.2726 33.1564 36.2915 33.0906C36.3044 33.0477 36.311 32.9658 36.311 32.8451V32.745ZM35.6384 32.3353L35.1878 32.2523C35.2389 32.0689 35.3267 31.9333 35.4513 31.8451C35.5761 31.757 35.7614 31.7128 36.0071 31.7128C36.2303 31.7128 36.3967 31.7394 36.5059 31.7922C36.6151 31.8454 36.6922 31.9127 36.7366 31.9942C36.7812 32.0757 36.8035 32.2256 36.8035 32.4435L36.7984 33.0295C36.7984 33.1962 36.8064 33.3193 36.8223 33.3983C36.8383 33.4775 36.8683 33.5624 36.9123 33.6528H36.4151C36.4018 33.6201 36.3859 33.5715 36.3669 33.5071C36.3586 33.4777 36.3526 33.4584 36.3493 33.449C36.2638 33.5325 36.1725 33.5952 36.0752 33.6371C35.9779 33.6787 35.8744 33.6996 35.764 33.6996C35.5695 33.6996 35.416 33.6465 35.304 33.5406C35.192 33.4345 35.1359 33.3004 35.1359 33.1384C35.1359 33.0313 35.1615 32.9357 35.2123 32.8517C35.2635 32.7677 35.3351 32.7033 35.4271 32.6587C35.5192 32.6142 35.652 32.5748 35.8253 32.5415C36.0591 32.4975 36.2212 32.4565 36.3115 32.4183V32.3677C36.3115 32.2701 36.2877 32.2005 36.2399 32.1588C36.1921 32.1173 36.1021 32.0966 35.9695 32.0966C35.88 32.0966 35.8102 32.1144 35.76 32.1496C35.7098 32.1849 35.6692 32.2468 35.6384 32.3353ZM37.6974 31.7594H37.1642L37.8849 33.6581C37.855 33.765 37.8121 33.8531 37.7559 33.9225C37.6998 33.9916 37.6134 34.0263 37.4963 34.0263C37.4331 34.0263 37.3619 34.0186 37.2832 34.0029L37.3299 34.3955C37.4225 34.4157 37.5173 34.4258 37.6136 34.4258C37.7087 34.4258 37.7941 34.4157 37.8696 34.3953C37.9452 34.3752 38.0085 34.3467 38.0604 34.3103C38.1121 34.2741 38.158 34.2266 38.1977 34.1684C38.2375 34.1099 38.2794 34.0255 38.3235 33.9146L39.1113 31.7594H38.5935L38.1507 33.1037L37.6974 31.7594ZM39.5029 31.7595H39.9638V32.0181C40.1293 31.8146 40.3264 31.7128 40.555 31.7128C40.6763 31.7128 40.7817 31.7377 40.8711 31.7877C40.9604 31.8378 41.0336 31.9135 41.0906 32.0146C41.1738 31.9135 41.2638 31.8378 41.3599 31.7877C41.4564 31.7377 41.5589 31.7128 41.6683 31.7128C41.8075 31.7128 41.9252 31.741 42.0215 31.7978C42.1177 31.8541 42.1898 31.9372 42.2374 32.047C42.2717 32.1278 42.2889 32.2588 42.2889 32.4399V33.6528H41.7866V32.5684C41.7866 32.3801 41.7694 32.2588 41.7351 32.204C41.6887 32.1323 41.6176 32.0966 41.5217 32.0966C41.4516 32.0966 41.3856 32.118 41.324 32.161C41.2623 32.204 41.2179 32.2667 41.1907 32.3496C41.1634 32.4322 41.1496 32.5631 41.1496 32.7417V33.6528H40.6473V32.6132C40.6473 32.4283 40.6386 32.3094 40.6207 32.2556C40.6029 32.202 40.5754 32.1622 40.538 32.1359C40.5005 32.1099 40.45 32.0966 40.3858 32.0966C40.3088 32.0966 40.2394 32.1175 40.1777 32.1592C40.1161 32.2008 40.072 32.2611 40.0451 32.3396C40.0185 32.4183 40.0052 32.5486 40.0052 32.7309V33.6528H39.5029V31.7595ZM43.9062 32.2118C43.9781 32.2887 44.0156 32.4006 44.0192 32.548H43.2669C43.2657 32.409 43.3008 32.299 43.3726 32.2181C43.444 32.1373 43.535 32.0966 43.6447 32.0966C43.7474 32.0966 43.8348 32.1351 43.9062 32.2118ZM44.4905 33.1394L43.9934 33.0564C43.9659 33.151 43.9251 33.2197 43.8709 33.2622C43.817 33.3049 43.7506 33.3261 43.6715 33.3261C43.555 33.3261 43.4579 33.2846 43.3802 33.202C43.3023 33.119 43.2616 33.0031 43.2579 32.854H44.5164C44.5235 32.4676 44.4454 32.1809 44.2824 31.9935C44.1193 31.8064 43.8969 31.7128 43.6147 31.7128C43.3635 31.7128 43.156 31.802 42.9916 31.9804C42.8276 32.1588 42.7452 32.4057 42.7452 32.7204C42.7452 32.9844 42.8077 33.2026 42.9328 33.3756C43.0912 33.5916 43.3353 33.6996 43.6651 33.6996C43.8735 33.6996 44.0471 33.652 44.1859 33.5564C44.3246 33.4609 44.426 33.3218 44.4905 33.1394ZM46.7517 33.6528H46.2494V32.6844C46.2494 32.4796 46.2386 32.3471 46.2176 32.287C46.1962 32.2269 46.1616 32.1799 46.1137 32.1466C46.0658 32.1134 46.0081 32.0966 45.9408 32.0966C45.8547 32.0966 45.7771 32.1205 45.7087 32.1681C45.6401 32.2158 45.5932 32.2789 45.5676 32.3575C45.5423 32.4361 45.5295 32.5813 45.5295 32.7935V33.6528H45.0273V31.7595H45.4932V32.0377C45.6583 31.821 45.8659 31.7128 46.1162 31.7128C46.2265 31.7128 46.3276 31.7329 46.4188 31.7727C46.5101 31.8126 46.5793 31.8635 46.6262 31.9255C46.6731 31.9874 46.7056 32.0576 46.724 32.1363C46.7426 32.2148 46.7517 32.3273 46.7517 32.4737V33.6528ZM48.2341 32.1589V31.7595H47.8923V31.0852L47.39 31.3808V31.7595H47.1621V32.1589H47.39V32.9865C47.39 33.164 47.3951 33.282 47.4059 33.3404C47.4188 33.4226 47.442 33.4878 47.4756 33.536C47.5094 33.5843 47.5623 33.6238 47.6342 33.654C47.7063 33.6844 47.787 33.6997 47.877 33.6997C48.0233 33.6997 48.1544 33.6746 48.2702 33.6246L48.2263 33.2365C48.1398 33.2686 48.0742 33.2847 48.0285 33.2847C47.9958 33.2847 47.9683 33.2762 47.9454 33.2596C47.9227 33.2428 47.9082 33.2218 47.9019 33.196C47.8954 33.1705 47.8923 33.08 47.8923 32.925V32.1589H48.2341ZM48.5166 33.1187L49.0189 33.0409C49.0403 33.1376 49.0835 33.211 49.1486 33.2613C49.2139 33.3116 49.3051 33.3365 49.4224 33.3365C49.5518 33.3365 49.6491 33.3126 49.7142 33.2648C49.7581 33.2311 49.7802 33.1864 49.7802 33.13C49.7802 33.0918 49.7681 33.06 49.7442 33.0351C49.719 33.011 49.663 32.9889 49.5759 32.9685C49.17 32.8787 48.9127 32.7969 48.8043 32.723C48.6538 32.6206 48.5787 32.478 48.5787 32.2959C48.5787 32.1312 48.6435 31.9929 48.7736 31.881C48.9039 31.769 49.1056 31.7129 49.3788 31.7129C49.639 31.7129 49.8322 31.7549 49.9588 31.8387C50.0853 31.9227 50.1724 32.0467 50.2203 32.2109L49.749 32.299C49.7286 32.2255 49.6899 32.1689 49.6329 32.1297C49.5757 32.0904 49.4943 32.0708 49.3888 32.0708C49.2555 32.0708 49.1599 32.0892 49.1024 32.1266C49.0638 32.1528 49.0447 32.1868 49.0447 32.2286C49.0447 32.2647 49.0613 32.2952 49.0948 32.3204C49.14 32.3538 49.2966 32.4011 49.5643 32.4622C49.8319 32.5233 50.0188 32.598 50.125 32.6865C50.2298 32.7761 50.2825 32.9011 50.2825 33.0613C50.2825 33.2357 50.2099 33.3858 50.0652 33.5113C49.9202 33.637 49.7061 33.6997 49.4224 33.6997C49.165 33.6997 48.9612 33.6474 48.8111 33.5433C48.6609 33.4389 48.5628 33.2977 48.5166 33.1187ZM52.9745 31.6508L53.3394 32.6208H52.6219L52.9745 31.6508ZM53.739 33.6529H54.3078L53.2538 31.0385H52.6983L51.6873 33.6529H52.2463L52.4613 33.0616H53.5133L53.739 33.6529ZM55.1702 33.6529H54.668V31.7595H55.134V32.0288C55.2137 31.9016 55.2851 31.8173 55.3489 31.7755C55.4124 31.7338 55.4844 31.7129 55.5655 31.7129C55.6795 31.7129 55.7894 31.7446 55.8952 31.8078L55.7425 32.2462C55.6578 32.1916 55.5791 32.1642 55.5065 32.1642C55.4359 32.1642 55.3764 32.1837 55.3275 32.2222C55.2786 32.261 55.2402 32.3309 55.2123 32.432C55.1842 32.5331 55.1702 32.7451 55.1702 33.0674V33.6529ZM57.2326 32.2118C57.3042 32.2887 57.3418 32.4006 57.3454 32.548H56.5931C56.5918 32.409 56.6271 32.299 56.6988 32.2181C56.7704 32.1373 56.861 32.0966 56.9711 32.0966C57.0737 32.0966 57.1608 32.1351 57.2326 32.2118ZM57.8167 33.1394L57.3195 33.0564C57.2919 33.151 57.2511 33.2197 57.1972 33.2622C57.1432 33.3049 57.0768 33.3261 56.9975 33.3261C56.8814 33.3261 56.7843 33.2846 56.7062 33.202C56.6285 33.119 56.5877 33.0031 56.5841 32.854H57.8425C57.8496 32.4676 57.7716 32.1809 57.6087 31.9935C57.4455 31.8064 57.2229 31.7128 56.9409 31.7128C56.6898 31.7128 56.482 31.802 56.3179 31.9804C56.1536 32.1588 56.0714 32.4057 56.0714 32.7204C56.0714 32.9844 56.1338 33.2026 56.259 33.3756C56.4172 33.5916 56.6615 33.6996 56.9914 33.6996C57.1997 33.6996 57.3734 33.652 57.5121 33.5564C57.6508 33.4609 57.7524 33.3218 57.8167 33.1394ZM59.3987 32.7451C59.3348 32.7667 59.2333 32.7923 59.0948 32.8221C58.9563 32.8519 58.8658 32.8812 58.8232 32.9098C58.7579 32.9564 58.7256 33.0155 58.7256 33.0871C58.7256 33.1576 58.7514 33.2184 58.8036 33.2698C58.8557 33.3211 58.922 33.3469 59.0027 33.3469C59.0926 33.3469 59.1783 33.317 59.2602 33.2574C59.3205 33.2119 59.3603 33.1565 59.3792 33.0907C59.3921 33.0477 59.3987 32.9659 59.3987 32.8452V32.7451ZM58.7259 32.3354L58.2753 32.2524C58.3264 32.069 58.4142 31.9333 58.5388 31.8452C58.6636 31.757 58.8489 31.7129 59.0946 31.7129C59.3178 31.7129 59.4842 31.7395 59.5934 31.7922C59.7026 31.8455 59.7797 31.9128 59.8241 31.9943C59.8687 32.0758 59.8911 32.2257 59.8911 32.4436L59.8859 33.0296C59.8859 33.1962 59.8939 33.3194 59.9098 33.3984C59.9259 33.4776 59.9559 33.5624 59.9996 33.6529H59.5026C59.4894 33.6202 59.4736 33.5716 59.4544 33.5072C59.4463 33.4778 59.4401 33.4585 59.4368 33.4491C59.3513 33.5325 59.2602 33.5953 59.1629 33.6371C59.0656 33.6788 58.9619 33.6997 58.8515 33.6997C58.657 33.6997 58.5035 33.6466 58.3915 33.5407C58.2796 33.4346 58.2236 33.3005 58.2236 33.1385C58.2236 33.0314 58.249 32.9358 58.3 32.8518C58.3511 32.7678 58.4227 32.7034 58.5146 32.6587C58.6068 32.6143 58.7395 32.5749 58.9128 32.5415C59.1467 32.4976 59.3087 32.4566 59.3991 32.4184V32.3677C59.3991 32.2701 59.3752 32.2006 59.3275 32.1589C59.2797 32.1174 59.1896 32.0967 59.057 32.0967C58.9675 32.0967 58.8978 32.1144 58.8475 32.1496C58.7975 32.185 58.7567 32.2469 58.7259 32.3354ZM53.1071 19.1232L54.8295 25.0544H51.4355L53.1071 19.1232ZM50.6445 27.719H55.5598L56.2611 30.0836H59.9847L55.8303 16.4023H50.2848L46.1807 30.0836H49.9842L50.6445 27.719Z" fill="#F0F0F0"/>
<path fill-rule="evenodd" clip-rule="evenodd" d="M31.0708 18.3272C32.5871 18.3272 33.9404 19.0268 34.8299 20.1226L35.6224 18.4208C34.383 17.2475 32.6962 16.5242 30.8357 16.5242C27.939 16.5242 25.461 18.2764 24.4441 20.7568H22.8988L21.9863 22.716H23.9742C23.9593 22.8977 23.9497 23.0796 23.9497 23.2652C23.9497 23.4898 23.9613 23.7117 23.9835 23.9309H22.9844L22.0722 25.8908H24.4914C25.5374 28.3084 27.9844 30.0057 30.8357 30.0057C32.2726 30.0057 33.6059 29.5745 34.7099 28.8379V26.436C33.8209 27.4498 32.5205 28.0905 31.0708 28.0905C29.3762 28.0905 27.8856 27.2153 27.0176 25.8908H32.0837L32.9959 23.9309H26.2722C26.2376 23.6951 26.219 23.4541 26.219 23.2086C26.219 23.0426 26.2276 22.8783 26.2436 22.716H33.5614L34.4736 20.7568H26.8764C27.7166 19.3045 29.2801 18.3272 31.0708 18.3272" fill="#F0F0F0"/>
</svg>
