<svg width="70" height="48" viewBox="0 0 70 48" fill="none" xmlns="http://www.w3.org/2000/svg">
<path fill-rule="evenodd" clip-rule="evenodd" d="M45.9152 15.26C44.7834 15.26 43.8642 16.1744 43.8642 17.3017C43.8642 18.4296 44.7834 19.342 45.9152 19.342C47.049 19.342 47.9675 18.4296 47.9675 17.3017C47.9675 16.1744 47.049 15.26 45.9152 15.26ZM16.3283 22.0997C15.8024 22.0659 14.5839 21.987 14.5839 20.8963C14.5839 19.5802 16.3369 19.5802 16.9948 19.5802C18.152 19.5802 19.649 19.9197 20.7195 20.2386C20.7195 20.2386 21.3154 20.4481 21.8227 20.6616L21.87 20.6749V17.0701L21.8067 17.0508C20.5429 16.6113 19.0758 16.1889 16.3543 16.1889C11.6624 16.1889 10 18.9066 10 21.2371C10 22.5791 10.5786 25.7403 15.9503 26.1043L15.9553 26.1046C16.4156 26.1327 17.616 26.2059 17.616 27.3289C17.616 28.2598 16.6262 28.8074 14.9618 28.8074C13.1381 28.8074 11.3678 28.346 10.2933 27.9064V31.618C11.9023 32.039 13.7167 32.2472 15.843 32.2472C20.4289 32.2472 22.4846 29.6753 22.4846 27.1254C22.4846 24.2353 20.1856 22.357 16.3283 22.0997ZM30.1756 20.4976C30.1846 20.4743 30.1916 20.456 30.1968 20.4429H35.1093C34.9693 20.8878 34.0928 23.5723 32.0945 26.0931C32.0945 26.0931 34.3201 29.9724 34.8287 32.0768H29.6849C29.6849 32.0768 29.0703 29.2829 27.8265 27.4264V32.0768H23.5312V17.0343L27.8265 16.189V24.4886C29.3485 22.6576 30.0266 20.8867 30.1756 20.4976ZM55.8369 32.0768V16.9296L59.9995 16.189V32.0768H55.8369ZM41.4875 20.2858C37.6421 20.4091 35.6885 22.1263 35.6885 25.5395V32.0769H39.8851V26.7449C39.8851 24.7021 40.1544 23.8263 42.592 23.7428V20.3461C42.182 20.2593 41.4875 20.2858 41.4875 20.2858ZM43.8359 32.0767V20.4561H47.9979V32.0767H43.8359ZM49.7607 16.9296L53.9207 16.189V32.0768H49.7607V16.9296Z" fill="#F0F0F0"/>
</svg>
