<svg width="70" height="48" viewBox="0 0 70 48" fill="none" xmlns="http://www.w3.org/2000/svg">
<path d="M27.198 21.0651C26.3101 21.0841 25.5393 21.7378 25.5445 22.7815C25.5476 23.3875 26.0157 23.8666 26.4736 24.3719C27.1805 25.1519 27.388 25.0143 27.3554 25.8049C27.3435 26.0943 26.8634 26.5462 26.3476 26.545C25.5834 26.5436 25.0493 25.81 25.2611 24.9231H25.0406L24.458 27.0332H24.6785C24.7429 26.8165 25.1784 26.836 25.3556 26.8285C25.6894 26.8144 25.8798 27.083 26.5681 27.0804C27.5098 27.0769 28.4352 26.461 28.4262 25.3168C28.4216 24.723 28.0573 24.3196 27.5759 23.8523C26.8354 23.1337 26.5468 22.7901 26.6783 22.2146C26.7872 21.7384 27.1274 21.6049 27.4657 21.6005C28.0994 21.5924 28.3721 22.2605 28.4577 22.9547H28.6624L29.1821 21.1911H28.9616C28.9133 21.3994 28.6585 21.4099 28.4577 21.3958C28.3673 21.3893 28.3163 21.4075 28.0956 21.3328C27.8603 21.253 27.4893 21.059 27.198 21.0651ZM29.4183 21.3013L29.3553 21.6477C29.7032 21.6492 29.8287 21.6415 29.8277 22.2933V27.0332C29.8277 27.0332 29.9195 27.2412 30.0482 27.0332C30.177 26.825 32.2685 23.3641 32.2685 23.3641V23.4744L32.2527 27.0332C32.2527 27.0332 32.3859 27.2412 32.5204 27.0332C32.655 26.825 35.5438 22.0571 35.5439 22.0571C35.6756 21.8206 35.7757 21.6558 36.1107 21.6477L36.1895 21.3013H34.4101L34.3471 21.6477C34.7366 21.6485 34.996 21.5871 35.0085 21.8209C35.0137 21.919 34.9959 21.9977 34.9297 22.1201L33.4653 24.5137L33.4338 24.4664V22.2933C33.4352 22.1956 33.4357 22.0993 33.4338 22.0256C33.4241 21.6567 33.5255 21.6485 33.8117 21.6477L33.8747 21.3013H31.8906L31.8276 21.6477C32.1264 21.6558 32.257 21.7425 32.2527 22.0099V22.4981L30.9772 24.5609L30.93 24.5924V22.2776C30.9301 22.1961 30.9308 22.0683 30.93 21.9784C30.9288 21.8523 30.9012 21.6485 31.2607 21.6477L31.3552 21.3013H29.4183ZM36.4572 21.3013L36.3942 21.6477C36.5568 21.6393 36.7228 21.7007 36.7406 21.8839C36.7483 21.9637 36.7012 22.0808 36.6619 22.2304L35.5754 26.2773C35.5112 26.5461 35.1879 26.6901 34.7565 26.6867L34.6935 27.0332H37.0083L37.0871 26.6867C36.6782 26.6785 36.7039 26.5652 36.7091 26.419C36.7124 26.3276 36.7566 26.2436 36.7879 26.1356L37.8902 22.0729C38.0035 21.6929 38.2769 21.6562 38.6932 21.6477L38.772 21.3013H36.4572ZM39.0869 21.3013L39.0082 21.6477C39.3531 21.6738 39.8426 21.67 39.7168 22.0729C39.6893 22.161 39.7195 22.1206 39.6853 22.2619L38.6303 26.1986C38.5482 26.564 38.2925 26.6784 37.9846 26.6867L37.8902 27.0332H40.3467L40.4412 26.6867C39.9039 26.6854 39.6866 26.6134 39.7955 26.1986C39.8187 26.1102 39.8627 25.9537 39.89 25.8207L40.3939 24.0885H40.5041C40.9844 24.0867 41.1199 24.1465 41.134 24.4034C41.1429 24.5685 41.1384 24.7025 41.1498 24.7971H41.4175L41.8269 23.1122L41.6064 23.0807C41.3794 23.6611 40.895 23.6693 40.7246 23.6633H40.5041L40.8506 22.2776C41.0012 21.7656 41.0501 21.7941 41.4332 21.7894C42.1006 21.7815 42.4967 21.8909 42.441 22.8287H42.6615L43.0709 21.3013H39.0869ZM43.3858 21.3013L42.9607 22.8287H43.2126C43.3357 22.4021 43.3389 22.3304 43.5905 22.1044C43.8489 21.8785 44.1265 21.7894 44.5669 21.7894L43.4173 25.9939C43.3377 26.6806 42.9426 26.6783 42.441 26.6867L42.3623 27.0332H44.9605L45.0235 26.7182C44.6911 26.7491 44.4864 26.5305 44.5511 26.2773C44.576 26.1799 44.6218 26.0353 44.6613 25.8679L45.7321 21.7894C46.5477 21.789 46.7112 22.1164 46.6612 22.8287H46.8974L47.3068 21.3013H43.3858ZM33.544 26.3876C33.4075 26.3871 33.264 26.5574 33.2291 26.7655C33.194 26.9735 33.2815 27.1429 33.418 27.1434C33.5543 27.144 33.6979 26.9735 33.733 26.7655C33.768 26.5576 33.6803 26.3882 33.544 26.3876ZM37.5752 26.3876C37.4388 26.3871 37.2952 26.5574 37.2603 26.7655C37.2251 26.9735 37.3128 27.1429 37.4492 27.1434C37.5856 27.144 37.7292 26.9735 37.7642 26.7655C37.7993 26.5576 37.7116 26.3882 37.5752 26.3876ZM41.0395 26.3876C40.9032 26.3871 40.7596 26.5574 40.7246 26.7655C40.6895 26.9735 40.7614 27.1429 40.8978 27.1434C41.0342 27.144 41.1778 26.9735 41.2128 26.7655C41.2479 26.5576 41.1759 26.3882 41.0395 26.3876ZM28.6309 26.4033C28.4946 26.4027 28.3667 26.5732 28.3318 26.7812C28.2967 26.9893 28.3687 27.1585 28.505 27.1592C28.6414 27.1598 28.7849 26.9893 28.8199 26.7812C28.855 26.5732 28.7673 26.4039 28.6309 26.4033ZM45.6691 26.4033C45.5328 26.4028 45.3892 26.5732 45.3542 26.7812C45.3191 26.9893 45.4068 27.1587 45.5432 27.1592C45.6795 27.1598 45.8231 26.9893 45.8581 26.7812C45.8932 26.5733 45.8055 26.4039 45.6691 26.4033Z" fill="#F0F0F0" stroke="#F0F0F0" stroke-width="0.0785521"/>
<path d="M24.0203 20.0466H47.9982M24.0203 28.3722H47.9982M26.5732 32.6921H45.4256M26.5732 15.7268H45.4256M35.9798 20.0466V11.5247M35.9798 28.3722V36.8745M36.3285 11.5393C36.3285 11.5393 41.4933 14.3275 42.5144 20.0219M35.6585 11.5437C35.6585 11.5437 30.3942 14.2949 29.3299 19.9814M35.6376 36.8353C35.6376 36.8353 30.4335 34.0758 29.4124 28.3814M36.3713 36.836C36.3713 36.836 41.5572 34.1133 42.6214 28.4268M35.9995 11.516C28.9938 11.516 23.3145 17.1947 23.3145 24.1996C23.3145 31.2043 28.9938 36.8831 35.9995 36.8831C43.0051 36.8831 48.6846 31.2043 48.6846 24.1996C48.6846 17.1947 43.0051 11.516 35.9995 11.516Z" stroke="#F0F0F0" stroke-width="0.706969"/>
</svg>
