<svg width="70" height="48" viewBox="0 0 70 48" fill="none" xmlns="http://www.w3.org/2000/svg">
<path fill-rule="evenodd" clip-rule="evenodd" d="M44.8535 10.5789H32.6704C32.6352 10.5789 32.6 10.5795 32.5649 10.5808H22.5578C21.016 10.5808 19.4751 11.8358 19.1158 13.3807L13.9777 35.4289C13.6185 36.9683 14.5784 38.2244 16.1161 38.2244H27.1466C27.1818 38.2244 27.217 38.2237 27.2522 38.2224H38.414H38.9137H49.4404C50.9822 38.2224 52.5251 36.9664 52.8875 35.4269L58.0227 13.3787C58.3849 11.8339 57.4271 10.5789 55.8851 10.5789H45.3564H44.8535ZM24.5021 16.959C24.6091 16.9842 24.9441 16.9958 26.0786 16.9842C26.0721 16.9945 26.0697 17.0055 26.0655 17.0247C26.065 17.0272 26.0644 17.0298 26.0638 17.0326C25.9231 17.4674 25.0955 20.8092 25.0955 20.8092L25.003 21.1692L25.0023 21.1716C24.803 21.8727 24.5788 22.6611 23.7247 23.1657C23.2321 23.4671 22.5032 23.6322 21.7261 23.6322C21.123 23.6322 20.0569 23.5343 19.6831 22.8813C19.5664 22.6753 19.5078 22.4318 19.5078 22.1333L19.6441 21.1273L19.7146 20.8197L20.535 17.1931C20.535 17.1931 20.5737 16.9936 20.5842 16.959C20.6033 16.9842 20.8805 16.998 22.4443 16.9842C22.4424 16.9958 22.4403 17.0084 22.4327 17.0326C22.2889 17.458 21.4855 20.6756 21.4855 20.6756C21.4855 20.681 21.3322 21.6378 21.3322 21.6378L21.3416 21.8005C21.3908 22.2742 21.6839 22.524 22.187 22.524C22.5 22.524 22.7699 22.4318 23.0012 22.2406C23.4085 21.9118 23.5285 21.4026 23.6933 20.6882C23.6954 20.6853 24.4609 17.1544 24.5021 16.959ZM28.0029 19.889C28.3304 19.7285 28.695 19.6801 28.8945 19.6801C29.2002 19.6801 29.5331 19.7651 29.6719 20.117C29.8031 20.4311 29.716 20.8166 29.5425 21.5769L29.4533 21.9654C29.2758 22.811 29.2465 22.9664 29.1465 23.5471L29.0814 23.5974C28.528 23.5879 28.3304 23.5879 27.6824 23.6226L27.6582 23.5732C27.685 23.454 27.713 23.336 27.7411 23.2178C27.7713 23.0903 27.8017 22.9626 27.8305 22.833L27.9104 22.4948C28.03 21.9708 28.1467 21.3605 28.1605 21.1736C28.1607 21.1711 28.161 21.1684 28.1613 21.1657C28.1744 21.0497 28.2045 20.783 27.8916 20.783C27.7571 20.783 27.6162 20.848 27.4735 20.9142C27.4122 21.1342 27.3015 21.6678 27.2203 22.0589C27.1984 22.1643 27.1787 22.2593 27.1626 22.3351C27.0451 22.8853 27.0085 23.08 26.9689 23.2901C26.9543 23.3675 26.9394 23.4469 26.9198 23.5471L26.8736 23.5974C26.3022 23.5879 26.1027 23.5879 25.4453 23.6226L25.4157 23.5659C25.5251 23.1196 25.6343 22.6679 25.7394 22.2205C26.0156 21.0067 26.0817 20.5424 26.1562 19.9248L26.21 19.889C26.2519 19.8831 26.2918 19.8775 26.3299 19.8722C26.8742 19.7957 27.0524 19.7707 27.7015 19.6393L27.7601 19.7043L27.6531 20.0907C27.6804 20.0745 27.7074 20.0583 27.7342 20.0423C27.8238 19.9886 27.9114 19.936 28.0029 19.889ZM31.9261 20.4982C31.9627 20.4911 32.0006 20.4838 32.0403 20.4762L32.0529 20.5055L32.0623 20.5372C32.0343 20.654 32.0057 20.7708 31.977 20.8879C31.9411 21.0341 31.9051 21.181 31.8701 21.329C31.8417 21.4539 31.8124 21.5774 31.7832 21.7002C31.7498 21.8409 31.7166 21.9807 31.6853 22.1208C31.635 22.3475 31.5968 22.5167 31.5672 22.6478C31.5238 22.8397 31.4989 22.95 31.4815 23.0397C31.4636 23.125 31.4539 23.1871 31.4382 23.287C31.4281 23.352 31.4154 23.4331 31.3963 23.547L31.3648 23.5734L31.3355 23.5973C31.2274 23.5967 31.1317 23.5955 31.0445 23.5944C30.8616 23.5922 30.7166 23.5903 30.5751 23.5954C30.3839 23.5972 30.1974 23.6061 29.9291 23.6189C29.9039 23.6201 29.878 23.6213 29.8513 23.6226L29.8346 23.5954L29.8147 23.5659C29.8892 23.2852 29.9339 23.165 29.972 23.0625C29.9774 23.0481 29.9827 23.034 29.9879 23.0198C30.0309 22.9053 30.0699 22.7918 30.1454 22.4663C30.243 22.0409 30.303 21.7449 30.342 21.4844C30.3758 21.2989 30.3979 21.1338 30.421 20.9607C30.4293 20.8987 30.4377 20.8357 30.4468 20.7703L30.471 20.7512L30.4974 20.7273C30.8303 20.6811 31.0413 20.6496 31.2578 20.6149C31.451 20.5897 31.6453 20.5523 31.9261 20.4982ZM30.8156 19.5319C31.1853 19.2768 31.7346 19.2182 32.0476 19.4029C32.3563 19.5857 32.3103 19.9374 31.9425 20.1928C31.576 20.4501 31.0245 20.5036 30.7169 20.324C30.405 20.1368 30.4469 19.782 30.8156 19.5319ZM35.7113 22.9882C35.2227 23.506 34.5736 23.6805 33.9404 23.6805C33.6925 23.6805 33.308 23.649 33.0413 23.5345C32.1768 23.1847 32.3145 22.2448 32.4341 21.7227C32.5527 21.2102 32.7493 20.6758 33.1746 20.2819C33.767 19.7359 34.5252 19.7044 34.8436 19.7044C35.373 19.7044 35.8834 19.823 36.1722 20.1926C36.3623 20.4351 36.5136 20.8333 36.3192 21.6861C36.2595 21.9434 36.0872 22.5682 35.7113 22.9882ZM34.6492 20.5739C34.2093 20.5739 34.0369 21.1159 33.8909 21.7617C33.8407 21.9854 33.7995 22.1913 33.8017 22.3929C33.806 22.8013 34.081 22.8013 34.1273 22.8013C34.2827 22.8013 34.4233 22.6994 34.5422 22.5314C34.7124 22.3037 34.8382 21.7689 34.8656 21.6251C35.0189 20.9772 34.9939 20.5739 34.6492 20.5739ZM37.9516 23.5472L37.9022 23.5974C37.3319 23.588 37.1353 23.588 36.4768 23.6227L36.4475 23.566C36.5567 23.1197 36.6658 22.668 36.771 22.2206C37.0471 21.0065 37.1103 20.5424 37.188 19.9249L37.2372 19.8891C37.2848 19.8824 37.3298 19.8761 37.3725 19.8701C37.9045 19.7953 38.0882 19.7695 38.7309 19.6391L38.7844 19.7044L38.6846 20.0908C38.7992 20.0203 38.9159 19.9502 39.0323 19.8891C39.3579 19.7284 39.7244 19.6802 39.9242 19.6802C40.2256 19.6802 40.5606 19.7652 40.7034 20.1171C40.8325 20.4311 40.7443 20.8164 40.57 21.5767L40.4829 21.9655C40.3001 22.8108 40.2737 22.9662 40.1761 23.5472L40.1089 23.5974C39.5523 23.588 39.3622 23.588 38.712 23.6227L38.6879 23.5732C38.7186 23.4363 38.7516 23.301 38.7847 23.1651C38.8115 23.0551 38.8384 22.9447 38.8642 22.8328L38.9398 22.4946C39.0616 21.9706 39.1783 21.3606 39.1899 21.1734L39.1907 21.1664C39.2039 21.0508 39.2347 20.7828 38.9231 20.7828C38.786 20.7828 38.6492 20.8463 38.5079 20.9119L38.5029 20.9143C38.4468 21.1217 38.3437 21.6076 38.2625 21.9903C38.2343 22.123 38.2088 22.2432 38.1888 22.3352C38.0681 22.9196 38.0342 23.103 37.9922 23.3297C37.9801 23.3951 37.9673 23.464 37.9516 23.5472ZM42.9649 22.2407C42.9627 22.2407 42.7199 23.4231 42.679 23.6226C42.4984 23.6027 42.0689 23.6027 41.0216 23.6153L42.0983 19.1824C42.0983 19.1792 42.5279 17.1881 42.5279 17.1881C42.5279 17.1881 42.5594 17.0327 42.5761 16.9453C42.7737 16.9695 43.2547 16.9738 44.4542 16.959L44.9162 16.9547C45.8532 16.959 46.665 16.9695 47.0726 17.5397C47.2334 17.754 47.2891 18.0283 47.2891 18.3054C47.2891 18.5165 47.2574 18.7275 47.2143 18.905C47.0484 19.6287 46.6766 20.2243 46.1326 20.6275C45.3332 21.2155 44.3133 21.2155 43.4101 21.2155H43.3144C43.2494 21.2513 43.1843 21.3416 43.1843 21.3416C43.1716 21.3731 42.9649 22.2407 42.9649 22.2407ZM43.9299 18.106C43.9321 18.0984 43.4752 20.0855 43.4752 20.0855L43.4564 20.1853H43.7043C44.0875 20.1853 44.4593 20.1726 44.7629 20.0205C45.1315 19.8409 45.4184 19.469 45.5161 19.0268C45.6231 18.5428 45.4698 18.1721 45.0979 18.0283C45.0759 18.0261 44.1337 17.9452 44.1337 17.9452L43.9511 17.9264L43.9447 18.0041L43.9299 18.106ZM46.9203 23.588C46.0601 23.253 46.1989 22.3131 46.3196 21.7985C46.4341 21.2879 46.6358 20.7556 47.0558 20.3671C47.6535 19.8229 48.3489 19.6729 48.6449 19.7893C48.8764 19.8783 49.0265 20.0211 49.13 20.1883C49.1332 20.163 49.1365 20.1376 49.1398 20.112C49.1433 20.0858 49.1467 20.0592 49.1501 20.0321L49.2007 19.991C49.8665 19.8966 50.0514 19.8692 50.7436 19.7409L50.7635 19.7987C50.6363 20.3238 50.5126 20.8459 50.3886 21.3731C50.1441 22.4313 50.0494 22.9886 49.9555 23.5412L49.9442 23.6079L49.8834 23.6541C49.2131 23.649 49.0211 23.649 48.4024 23.6751L48.3634 23.6248L48.4247 23.3898C48.1983 23.5802 47.9539 23.7124 47.6901 23.7267C47.4403 23.7393 47.1945 23.7047 46.9203 23.588ZM48.5325 20.6591C48.0915 20.6591 47.9213 21.1957 47.7732 21.8299C47.7218 22.0558 47.6807 22.2614 47.6828 22.4612C47.6923 22.8623 47.9644 22.8623 48.0085 22.8623C48.1639 22.8623 48.4338 22.7626 48.5473 22.6018C48.6078 22.5214 48.6629 22.4007 48.7103 22.2727C48.722 22.2254 48.7339 22.1781 48.7457 22.1308C48.7807 21.991 48.8158 21.8511 48.8487 21.7103C48.8791 21.5799 48.9047 21.4646 48.9283 21.3551C48.9582 20.9164 48.8114 20.6591 48.5325 20.6591ZM55.3104 19.6748L55.3639 19.7358C55.3639 19.7358 52.6068 24.4649 52.2443 25.2452L52.1876 25.3102H52.1962L51.6574 26.2335C51.4872 26.5496 51.171 26.7849 50.6679 26.787L49.8109 26.7722L50.0607 25.9415H50.2288C50.3162 25.9415 50.3791 25.9372 50.4275 25.9133C50.4716 25.8985 50.503 25.8638 50.5377 25.8132L50.841 25.3336L50.8381 25.3272C51.0889 24.9499 51.2296 24.6976 51.3917 24.4069C51.508 24.1983 51.6353 23.97 51.8222 23.6616C51.7552 22.9677 51.7186 22.6683 51.67 22.2696C51.6607 22.1933 51.6509 22.1134 51.6404 22.0264C51.6215 21.8682 51.5995 21.7086 51.5774 21.5485C51.5543 21.381 51.5312 21.2129 51.5114 21.0454C51.4938 20.9041 51.4808 20.797 51.4705 20.7118C51.4321 20.3943 51.4307 20.3824 51.3654 20.0487L51.3611 20.0393C51.3626 20.0301 51.3635 20.0211 51.3645 20.0123C51.3663 19.9962 51.3679 19.981 51.3726 19.9667L51.4242 19.9205C51.9061 19.8587 52.0464 19.8302 52.3631 19.7659C52.4819 19.7418 52.6254 19.7126 52.8211 19.6748L52.8811 19.7358L52.9765 21.5799C52.9776 21.5999 52.9781 21.616 52.9786 21.6316C52.9792 21.648 52.9797 21.6641 52.9808 21.6839C53.1544 21.2967 53.2461 21.134 53.3387 20.9698C53.4495 20.7733 53.5616 20.5745 53.8168 19.9858L53.8189 19.9963C53.8222 19.9858 53.824 19.9743 53.8262 19.9667L53.8724 19.9205C54.5016 19.8355 54.6256 19.8135 55.3104 19.6748ZM45.956 30.6466H46.3196L46.038 31.5652H45.6788L45.5938 31.8489H44.3134L44.4005 31.5652H41.802L42.0615 30.7146H42.3261L43.6896 26.1968L43.9614 25.2862H45.2661L45.1295 25.7451C45.1295 25.7451 45.4771 25.4951 45.8071 25.4101C46.0797 25.3375 47.4263 25.3036 47.8772 25.2942V25.2915H49.2719L49.2856 25.8102C49.2762 25.8983 49.3518 25.9395 49.5147 25.9395H49.7981L49.5389 26.7963H48.7858C48.1345 26.8426 47.8866 26.5632 47.9033 26.2481L47.8896 25.7384L47.7479 26.1968H47.3015L45.956 30.6466ZM44.6557 27.334C44.6557 27.334 45.0445 27.1587 45.2534 27.1009C45.4677 27.0442 45.788 27.0254 45.788 27.0254L46.038 26.1968H45.0015L44.6557 27.334ZM44.7334 28.8149C44.9477 28.7665 45.2733 28.7256 45.2733 28.7256L45.5255 27.897H44.4836L44.1265 29.0805C44.1265 29.0805 44.5223 28.8789 44.7334 28.8149ZM43.6528 30.6571H44.6925L44.9907 29.6583H43.9542L43.6528 30.6571ZM48.6953 27.897H47.1966L47.4517 27.0369H51.6227L51.3632 27.897H49.9642L49.7456 28.5944H51.1489L50.9158 29.3569H49.4001L49.1301 29.6782H49.7456L49.8959 30.639C49.9003 30.664 49.9036 30.6868 49.9066 30.7075C49.915 30.7661 49.9211 30.8083 49.9443 30.8385C49.9758 30.8721 50.1605 30.8902 50.2678 30.8902H50.4546L50.1702 31.8247H49.6964C49.6322 31.8247 49.5394 31.8207 49.4144 31.8153C49.398 31.8146 49.381 31.8139 49.3635 31.8131C49.2588 31.8039 49.1768 31.7557 49.1019 31.7116C49.0761 31.6964 49.0511 31.6817 49.0263 31.6693C48.9389 31.6284 48.8099 31.5233 48.7784 31.3437L48.6303 30.385L47.9403 31.3292C47.7217 31.6284 47.4257 31.8564 46.9244 31.8564H45.9602L46.2135 31.0214H46.5822C46.6892 31.0214 46.7817 30.9794 46.8521 30.9437C46.9223 30.9144 46.9855 30.8775 47.0559 30.7735L48.0621 29.3569H46.7333L46.9613 28.5944H48.4799L48.6953 27.897ZM34.8877 29.6877L34.5379 30.8513C34.496 30.9795 34.8802 30.9962 35.019 30.9962L35.7374 30.8975L35.4486 31.8562H33.8278C33.6966 31.8562 33.6001 31.8374 33.4592 31.806C33.3226 31.7713 33.2618 31.7102 33.2018 31.618C33.1926 31.6031 33.1825 31.5885 33.1722 31.5738C33.1179 31.4957 33.0607 31.4135 33.1136 31.2419L33.5799 29.7024H32.7808L33.0464 28.8222H33.848L34.0612 28.106H33.2618L33.517 27.268H37.0356L36.7751 28.106H35.3688L35.1491 28.8222H36.5882L36.3255 29.6877H34.8877ZM34.3385 25.9393L34.7028 25.2809H36.1355L35.8835 25.7597H37.3266L37.065 26.6367H35.0935L34.8803 26.8214C34.8259 26.8739 34.7927 26.8829 34.7502 26.8944C34.7204 26.9025 34.686 26.9117 34.6367 26.9381C34.5254 26.9938 34.2922 27.1051 33.9887 27.1051H33.3573L33.6114 26.2628H33.8015C33.9613 26.2628 34.0715 26.2483 34.1272 26.2136C34.1903 26.1724 34.2605 26.0832 34.3385 25.9393ZM37.6553 30.5571C37.6039 30.7345 37.5797 30.8198 37.6134 30.8682C37.6405 30.909 37.7059 30.9574 37.7962 30.9574L38.6416 30.8776L38.3517 31.8562H37.4074C37.106 31.8562 36.8876 31.8489 36.7341 31.8374C36.7025 31.8347 36.6707 31.8331 36.6391 31.8316C36.5246 31.826 36.4136 31.8206 36.3329 31.7597C36.3228 31.7506 36.312 31.7413 36.3009 31.7316C36.2164 31.658 36.1117 31.5669 36.1146 31.475C36.124 31.3784 36.1649 31.2177 36.2259 30.9961L37.9462 25.2913H39.175L38.9954 25.91C38.9954 25.91 39.3842 25.5992 39.6563 25.4879C39.926 25.3881 40.5386 25.2978 40.5386 25.2978L42.5278 25.2862L41.8505 27.543C41.7359 27.9285 41.6025 28.1785 41.5195 28.2928C41.445 28.4073 41.3568 28.5071 41.1844 28.6017C41.0174 28.6921 40.8642 28.7423 40.7233 28.7571C40.5921 28.7665 40.3904 28.7698 40.111 28.7738H38.1942L37.6553 30.5571ZM40.5552 27.5693H38.5418L38.4179 27.9748H40.1613C40.2993 27.9585 40.3639 27.9664 40.3968 27.9705C40.4128 27.9725 40.4214 27.9735 40.4272 27.9705L40.5552 27.5693ZM40.9755 26.224H38.9451L38.651 27.2029C38.651 27.2029 39.0449 26.8426 39.7193 26.7259C39.8725 26.6977 40.8295 26.7071 40.8295 26.7071L40.9755 26.224ZM40.3925 29.4377C40.4293 29.4102 40.4556 29.3737 40.4723 29.3137L40.592 28.9314H41.5301L41.4156 29.4734C41.3672 29.6436 41.3252 29.7694 41.197 29.8789C41.0625 29.9931 40.9049 30.113 40.5363 30.113L39.8536 30.1413L39.8485 30.7534C39.8425 30.8914 39.8709 30.9082 39.8966 30.9234C39.903 30.9272 39.9092 30.9309 39.9146 30.9363C39.9453 30.9669 39.9728 30.9787 40.0016 30.9909L40.0039 30.9919L40.2204 30.9793L40.8713 30.9435L40.6014 31.8375H39.8536C39.3306 31.8375 38.9421 31.8248 38.816 31.7251C38.6899 31.6452 38.6732 31.5455 38.6751 31.3731L38.7235 28.9849H39.9168L39.8999 29.4734H40.1868C40.2854 29.4734 40.3516 29.464 40.3925 29.4377Z" fill="#F0F0F0"/>
</svg>
